<svg width="357" height="360" viewBox="0 0 357 360" fill="none" xmlns="http://www.w3.org/2000/svg">
<path fill-rule="evenodd" clip-rule="evenodd" d="M314.583 188.172C315.364 284.549 273.288 354.954 192.846 358.952C134.216 361.865 169.289 269.697 95.808 208.502C48.7729 169.331 17.7286 67.5561 133.652 41.2409C249.575 14.9259 313.802 91.7946 314.583 188.172Z" fill="#B7FFDC"/>
<path d="M159.284 334.019C145.759 321.622 134.31 306.95 125.562 290.801C121.871 283.99 118.574 276.337 119.955 268.709C122.538 254.441 117.199 240.104 112.992 226.23C108.786 212.356 105.806 196.689 112.572 183.875C101.899 193.75 97.618 208.715 95.3297 223.1C90.0248 256.451 93.0105 291.097 103.942 323.039C91.1065 299.464 90.6019 271.258 91.8191 244.423C92.7662 223.542 95.0937 201.305 108.167 185.03C88.0404 201.499 81.9163 229.3 77.4752 254.974C73.3051 279.082 69.5933 304.384 77.3252 327.59C70.0301 314.097 71.2216 297.769 72.7276 282.494C76.1917 247.356 81.5254 209.518 106.055 184.201C112.543 177.505 120.463 171.827 129.551 169.811C136.593 168.249 143.378 165.523 149.549 161.776C151.036 153.037 142.84 146.155 137.114 139.402C130.702 131.84 126.702 122.25 125.835 112.36C125.321 106.506 124.096 98.5289 118.244 98.2793C113.433 98.0742 109.812 92.2502 111.743 87.8249C113.674 83.3996 120.396 82.1192 123.809 85.5266C118.94 67.2127 129.225 46.0827 146.614 38.6754C143.779 34.6071 149.968 29.7314 154.881 30.3141C159.795 30.8967 164.551 33.8746 169.375 32.7744C167.722 29.8533 170.371 25.9723 173.635 25.224C176.899 24.4758 180.249 25.8975 183.176 27.5272C201.97 37.9888 214.39 59.0863 214.449 80.6504C214.935 76.7143 220.822 75.3664 223.702 78.0838C226.581 80.8013 226.444 85.665 224.399 89.0594C222.355 92.4539 218.87 94.6825 215.421 96.6199C215.508 110.92 210.088 125.184 200.534 135.796C193.582 143.518 183.732 151.709 186.014 161.86C189.712 161.039 193.453 165.32 192.159 168.891C208.015 167.566 222.812 177.168 234.046 188.474C250.514 205.047 262.35 226.206 267.872 248.943C268.836 252.915 274.468 253.997 277.952 251.878C281.436 249.759 283.227 245.752 284.815 241.987C295.27 217.198 305.725 192.408 316.18 167.619C312.681 146.043 315.794 147.245 317.432 137.156C321.914 125.429 321.057 114.833 322.87 103.672C323.363 100.633 325.482 96.622 328.279 97.8891C329.694 98.5299 330.194 100.26 330.495 101.788C332.191 110.374 332.733 119.188 332.102 127.918C335.721 121.706 339.341 115.494 342.96 109.282C344.941 105.883 349.316 102.076 352.063 104.888C353.572 106.433 353.175 108.968 352.553 111.039C350.572 117.626 347.344 123.833 343.09 129.231C348.825 131.193 355.466 134.173 356.47 140.167C356.887 142.654 356.184 145.185 355.352 147.564C352.46 155.835 347.89 163.512 342.004 169.99C343.355 169.172 344.238 171.605 343.969 173.165C337.513 210.644 321.78 246.479 298.576 276.556C291.728 285.432 282.439 294.587 271.3 293.54C264.329 292.885 258.437 288.295 252.983 283.89C247.109 279.146 241.236 274.403 235.362 269.659C249.035 272.723 256.648 289.836 270.556 291.526C281.864 292.899 291.357 283.397 298.191 274.254C320.492 244.42 335.723 209.303 342.282 172.596C333.365 174.098 324.082 173.366 315.508 170.483C307.001 196.947 296.287 222.697 283.515 247.376C281.307 251.641 277.38 256.599 272.846 255.048C270.817 254.354 269.445 252.485 268.302 250.665C256.873 232.478 254.217 208.226 237.548 194.715C244.266 236.519 233.674 279.029 221.685 319.628C230.864 287.992 236.455 255.31 238.316 222.414C238.743 214.862 238.957 207.143 236.826 199.887C234.696 192.63 229.833 185.803 222.774 183.146C218.176 213.148 191.247 235.466 184.432 265.041C178.922 288.955 170.454 312.182 159.284 334.019ZM186.965 251.889C197.21 232.347 210.642 214.457 218.982 194.023C220.878 189.377 222.442 183.855 219.864 179.552C218.933 177.999 217.546 176.783 216.182 175.595C214.026 173.715 211.661 171.745 208.814 171.512C205.036 171.204 201.76 174.039 199.33 176.957C193.436 184.033 189.63 192.586 186.011 201.063C177.354 221.339 169.306 241.975 164.245 263.441C159.183 284.907 157.165 307.313 160.646 329.093C165.053 309.119 179.874 292.195 181.905 271.839C182.239 268.486 182.217 265.083 182.944 261.794C183.716 258.303 185.306 255.054 186.965 251.889ZM207.247 67.4523C205.86 64.7686 204.129 62.2017 201.761 60.3314C196.489 56.1651 189.064 56.1541 182.467 57.3921C178.25 58.1835 174.113 59.4039 170.14 61.0285C169.102 61.4526 168.001 61.9138 166.899 61.7128C165.797 61.5118 164.806 60.3197 165.257 59.2913C165.344 59.0935 165.479 58.9099 165.502 58.695C165.566 58.093 164.804 57.7916 164.206 57.7052C155.127 56.3917 145.459 57.9279 137.826 63.0331C130.193 68.1384 124.909 77.0405 125.192 86.24C125.255 88.3043 126.803 89.9933 128.355 91.3492C130.73 93.423 133.347 95.2173 136.136 96.6835C137.388 97.3417 139.105 97.8638 140.062 96.8202C141.96 94.7503 145.113 94.5894 147.915 94.6496C157.656 94.8589 167.45 95.9865 177.106 94.6842C182.989 93.8909 188.719 92.2065 194.579 91.2587C196.374 90.9684 198.227 90.7494 199.996 91.1699C201.765 91.5904 203.455 92.7711 204.018 94.5056C206.3 91.9188 208.352 89.1279 210.141 86.1769C210.678 85.2916 211.2 84.3708 211.399 83.3538C211.575 82.451 211.488 81.5187 211.368 80.6065C210.768 76.0264 209.367 71.5531 207.247 67.4523ZM192.637 131.715C196.075 130.202 198.007 126.534 199.307 123.001C202.407 114.58 203.403 105.389 202.181 96.4964C202.058 95.6025 201.893 94.6659 201.325 93.9665C200.425 92.8584 198.816 92.6867 197.392 92.7449C194.045 92.8817 190.787 93.8073 187.528 94.5879C180.666 96.2313 173.636 97.2529 166.581 97.2766C159.61 97.3001 152.649 96.3513 145.683 96.6228C144.296 96.6769 142.83 96.8073 141.704 97.6219C139.92 98.9135 139.606 101.416 139.535 103.622C139.264 112.01 140.25 120.438 142.451 128.535C142.584 129.021 142.733 129.529 143.085 129.888C143.466 130.275 144.017 130.425 144.537 130.578C152.954 133.051 160.235 140.134 168.984 139.523C175.474 139.07 180.931 134.399 187.284 132.992C189.079 132.595 190.954 132.456 192.637 131.715ZM120.684 270.28C120.162 277.891 124.454 284.899 128.582 291.305C132.76 297.791 136.939 304.276 141.117 310.762C134.954 290.184 132.047 268.768 130.07 247.374C128.006 225.034 126.981 202.117 133.069 180.53C134.035 177.104 135.193 173.694 137.062 170.668C131.458 170.522 125.495 170.952 120.924 174.208C117.952 176.325 115.842 179.465 114.279 182.769C109.451 192.977 109.439 204.891 111.574 215.985C113.708 227.08 117.85 237.667 121.095 248.488C122.038 251.632 122.913 254.86 122.799 258.141C122.655 262.253 120.966 266.176 120.684 270.28ZM147.905 133.889C145.017 132.776 141.513 131.867 140.364 128.985C139.825 127.631 139.956 126.117 139.801 124.668C139.645 123.218 139.04 121.629 137.688 121.093C134.433 119.802 131.31 118.175 128.385 116.245C129.836 124.807 133.7 132.943 139.413 139.468C142.274 142.735 145.592 145.613 148.127 149.141C150.663 152.669 152.387 157.108 151.453 161.355C151.156 162.709 153.094 163.298 154.475 163.265C163.649 163.048 172.822 162.791 181.994 162.494C183.548 162.444 184.465 160.622 184.428 159.062C184.392 157.503 183.766 155.995 183.786 154.435C183.816 152.142 185.217 150.118 186.643 148.326C190.867 143.018 195.8 138.321 200.191 133.151C204.582 127.981 208.494 122.189 210.164 115.606C207.258 120.524 201.128 123.059 198.855 128.301C197.564 131.276 194.444 133.027 191.354 133.984C188.264 134.94 184.989 135.329 182.039 136.66C180.527 137.342 179.132 138.259 177.652 139.007C172.449 141.636 166.18 142.053 160.678 140.136C156.198 138.576 152.332 135.595 147.905 133.889ZM331.615 146.893C334.802 146.703 338.652 147.947 340.764 145.544C341.247 144.994 341.566 144.237 341.391 143.525C341.152 142.555 340.135 142.022 339.21 141.655C333.299 139.313 326.682 138.797 320.482 140.197C318.322 140.684 317.06 142.684 316.587 144.854C316.114 147.023 316.229 149.372 316.587 151.563C317.497 157.13 318.407 162.696 319.317 168.262C319.358 168.513 319.403 168.773 319.543 168.984C319.754 169.302 320.137 169.449 320.497 169.572C324.977 171.103 329.743 171.786 334.471 171.574C336.351 171.49 338.384 171.191 339.703 169.845C346.161 163.257 350.882 154.97 353.263 146.043C351.967 147.206 350.302 148.112 348.568 147.978C346.834 147.843 345.149 146.363 345.262 144.621C341.938 147.192 338.022 149.912 333.912 149.058C330.77 148.405 327.301 149.803 325.48 152.454C324.37 152.161 324.797 150.438 325.605 149.62C327.187 148.017 329.371 147.027 331.615 146.893ZM140.736 196.441C138.56 196.781 136.394 197.188 134.245 197.674C132.734 198.016 130.936 198.713 130.74 200.254C130.35 203.328 130.139 206.424 130.107 209.523C146.537 205.634 163.984 206.157 180.154 211.022C181.872 206.983 183.59 202.945 185.308 198.906C170.84 194.975 155.547 194.129 140.736 196.441ZM201.44 172.214C198.84 170.834 195.812 170.279 192.894 170.649C192.318 170.722 191.67 170.882 191.393 171.394C190.285 173.437 187.863 174.32 185.622 174.915C174.347 177.911 162.442 177.844 150.885 176.263C148.736 175.97 146.558 175.613 144.606 174.666C142.654 173.718 140.929 172.089 140.349 169.993C138.811 169.97 137.887 171.656 137.34 173.099C135.687 177.463 134.258 181.912 133.062 186.423C151.798 182.165 171.601 182.716 190.074 188.009C191.837 185.849 193.145 183.318 193.889 180.628C194.237 179.372 195.197 178.397 196.122 177.481C197.894 175.725 199.667 173.97 201.44 172.214ZM170.836 235.825C172.647 231.807 174.184 227.666 175.435 223.439C161.009 221.041 146.235 220.76 131.729 222.607C131.114 222.686 130.431 222.806 130.06 223.304C129.733 223.742 129.749 224.34 129.781 224.886C129.935 227.597 130.09 230.307 130.244 233.018C130.286 233.746 130.632 234.73 131.344 234.583C144.363 231.89 158.011 232.319 170.836 235.825ZM350.782 111.422C351.195 110.393 351.592 109.312 351.502 108.206C351.412 107.101 350.694 105.969 349.608 105.764C348.931 105.636 348.233 105.882 347.646 106.245C346.209 107.135 345.308 108.663 344.463 110.131C340.64 116.776 336.818 123.422 332.995 130.068C332.499 130.929 331.067 130.662 330.523 129.83C329.979 128.998 330.052 127.922 330.129 126.93C330.771 118.618 330.289 110.219 328.699 102.036C328.601 101.528 328.49 101.003 328.185 100.585C327.303 99.3742 325.242 99.7951 324.353 101.002C323.464 102.208 323.413 103.82 323.401 105.32C323.313 116.75 323.42 128.585 318.819 139.041C323.492 137.22 328.754 136.958 333.585 138.303C334.276 138.495 334.991 138.722 335.695 138.588C336.4 138.455 337.068 137.811 336.945 137.103C336.485 134.449 338.384 132.036 340.053 129.926C344.49 124.317 348.116 118.064 350.782 111.422ZM190.501 166.147C190.183 164.837 189.013 163.634 187.674 163.754C174.016 164.981 160.281 165.33 146.579 164.798C145.767 164.766 144.913 164.741 144.194 165.118C143.686 165.384 143.289 165.835 143.019 166.342C141.926 168.402 143.036 171.087 144.9 172.482C146.764 173.878 149.165 174.285 151.473 174.577C161.545 175.853 171.811 175.719 181.81 173.956C183.969 173.576 186.185 173.091 187.972 171.817C189.759 170.543 191.02 168.284 190.501 166.147ZM166.153 250.059C166.232 249.785 166.308 249.475 166.164 249.228C166.011 248.966 165.675 248.888 165.376 248.837C154.519 246.989 143.406 247.897 132.431 248.81C132.121 248.836 131.768 248.885 131.593 249.144C131.457 249.346 131.477 249.611 131.501 249.853C131.819 252.979 132.137 256.106 132.455 259.232C132.516 259.832 132.77 260.61 133.37 260.58C142.913 260.091 152.503 260.515 161.966 261.845C162.567 261.929 162.929 261.21 163.098 260.625C164.116 257.103 165.135 253.581 166.153 250.059ZM159.93 278.187C159.977 277.738 160.004 277.225 159.694 276.897C159.456 276.646 159.088 276.581 158.746 276.534C151.317 275.495 143.769 276.232 136.304 276.971C135.931 277.007 135.5 277.081 135.32 277.411C135.196 277.638 135.235 277.915 135.278 278.169C135.778 281.164 136.279 284.16 136.78 287.155C136.852 287.586 137.079 288.139 137.51 288.075C144.63 287.01 152.207 286.697 158.72 289.775C159.123 285.913 159.527 282.05 159.93 278.187ZM130.064 115.086C132.754 116.939 135.707 118.408 138.806 119.433C137.456 113.19 137.192 106.712 138.028 100.379C138.134 99.5785 137.235 99.0611 136.493 98.7474C132.154 96.9123 128.217 94.1295 125.033 90.6486C125.362 97.2556 126.074 103.843 127.164 110.367C127.327 111.346 127.51 112.351 128.038 113.19C128.535 113.979 129.298 114.558 130.064 115.086ZM201.763 121.794C204.652 119.438 207.183 116.66 209.422 113.676C210.631 112.066 211.769 110.37 212.439 108.47C213.112 106.559 213.286 104.511 213.366 102.487C213.576 97.1874 213.173 91.864 212.168 86.6573C209.848 89.8196 207.528 92.9819 205.208 96.1442C204.852 96.6295 204.487 97.1325 204.35 97.7192C204.24 98.1895 204.285 98.6804 204.324 99.1619C204.944 106.777 204.068 114.512 201.763 121.794ZM156.943 315.185C157.45 315.289 157.683 314.576 157.696 314.057C157.769 310.949 157.843 307.841 157.916 304.734C157.923 304.454 157.927 304.162 157.807 303.91C157.584 303.443 157.025 303.266 156.526 303.136C153.707 302.4 150.847 301.659 147.934 301.695C145.514 301.724 143.118 302.29 140.7 302.23C140.425 302.224 140.068 302.269 140.01 302.538C139.99 302.631 140.017 302.728 140.043 302.819C141.11 306.537 142.516 310.157 144.235 313.619C144.461 314.073 144.73 314.56 145.201 314.744C145.533 314.874 145.904 314.826 146.258 314.781C149.81 314.336 153.434 314.473 156.943 315.185ZM214.974 81.841C214.421 82.6992 213.931 83.6371 213.84 84.6551C213.785 85.2795 213.882 85.9063 213.979 86.5257C214.352 88.9124 214.725 91.2991 215.098 93.6858C215.12 93.8245 215.145 93.9712 215.237 94.0768C215.453 94.3249 215.855 94.1932 216.148 94.0439C217.329 93.4421 218.523 92.8312 219.521 91.9563C220.32 91.2545 220.972 90.4005 221.586 89.5303C222.869 87.7117 224.046 85.6833 224.13 83.4569C224.213 81.2305 222.852 78.8103 220.667 78.4083C218.355 77.9825 216.251 79.8601 214.974 81.841ZM114.476 86.5672C113.59 87.3464 113.269 88.584 113.122 89.7571C112.987 90.8313 112.964 91.9501 113.335 92.9667C113.847 94.3692 115.065 95.4204 116.412 96.0558C117.759 96.6912 119.243 96.9638 120.708 97.2303C121.431 97.3618 122.154 97.4934 122.877 97.6249C123.056 97.6575 123.268 97.6804 123.395 97.5492C123.5 97.4403 123.5 97.2702 123.493 97.1187C123.373 94.4321 123.254 91.7455 123.134 89.0589C123.084 87.9176 122.27 86.9122 121.268 86.3703C120.266 85.8283 119.099 85.6825 117.96 85.6534C116.731 85.622 115.401 85.7542 114.476 86.5672ZM346.873 132.54C346.341 131.957 345.556 131.69 344.801 131.463C344.001 131.223 343.138 131.003 342.345 131.265C341.445 131.562 340.849 132.407 340.374 133.23C339.655 134.474 339.059 135.79 338.597 137.152C338.434 137.634 338.285 138.141 338.354 138.645C338.422 139.15 338.765 139.651 339.264 139.745C341.3 140.128 343.079 141.668 343.755 143.633C344.702 141.644 345.648 139.655 346.594 137.667C346.985 136.844 347.381 136.006 347.515 135.105C347.65 134.203 347.486 133.212 346.873 132.54ZM353.962 136.705C352.993 135.791 351.381 135.855 350.261 136.574C349.141 137.294 348.444 138.523 347.993 139.778C347.479 141.208 347.23 142.732 347.26 144.252C347.267 144.614 347.293 144.989 347.46 145.311C347.862 146.088 348.924 146.262 349.77 146.048C351.618 145.579 352.849 143.856 353.763 142.178C354.234 141.313 354.672 140.405 354.794 139.427C354.917 138.45 354.677 137.38 353.962 136.705ZM159.035 330.68C158.58 328.042 158.125 325.405 157.671 322.768C157.618 322.461 157.547 322.124 157.298 321.938C157.134 321.816 156.923 321.784 156.721 321.758C154.378 321.452 151.998 321.437 149.651 321.712C152.421 325.05 155.577 328.066 159.035 330.68Z" fill="#00160A"/>
<path d="M23.9851 73.9622C21.6407 78.4562 20.4246 83.4423 20.4542 88.4865C18.5073 84.6516 16.1761 80.6859 11.6812 79.5236C7.91644 78.5169 3.55645 80.5852 3.04671 84.6522C2.43695 89.5379 6.83686 93.8038 10.1372 96.8151C14.0037 100.372 18.4724 103.229 23.053 105.805C25.3983 107.117 27.7687 108.331 30.1488 109.571C29.6224 111.237 29.1193 113.135 30.1244 114.634C30.913 115.792 32.5047 116.296 33.663 115.272C34.8213 114.249 34.7914 112.484 34.0298 111.317C33.363 110.326 32.3217 109.652 31.2185 109.061C31.2783 108.889 31.3208 108.753 31.3805 108.581C31.8124 107.16 32.281 105.756 32.7864 104.368C33.7603 101.576 34.8346 98.8084 35.7989 95.9901C37.5153 91.0326 38.9554 85.9048 39.1845 80.6462C39.3505 76.6441 39.164 70.6641 35.2961 68.2807C30.6169 65.3501 25.9898 70.1334 23.9851 73.9622ZM33.4566 112.098C33.8182 112.839 33.8669 113.814 33.2454 114.461C32.1972 115.535 30.8833 114.449 30.5776 113.356C30.2719 112.264 30.5726 111.071 30.9293 109.949C31.9493 110.48 32.9713 111.101 33.4566 112.098ZM38.2966 77.8702C38.4177 80.4739 38.2297 83.0698 37.7501 85.6214C36.8295 90.8308 34.9953 95.8012 33.1611 100.771C32.2103 103.374 31.2421 106.013 30.4284 108.656C29.7948 108.346 29.1805 108.088 28.6105 107.784C26.3599 106.647 24.1537 105.464 21.9552 104.218C17.4653 101.64 13.1221 98.7074 9.40816 95.0644C7.26326 92.9566 4.88451 90.5427 3.97528 87.624C3.0177 84.5725 4.20965 81.3705 7.41903 80.2625C13.4863 78.1746 17.9007 84.3308 20.437 88.944C20.4546 89.3288 20.4722 89.7135 20.4898 90.0983C20.5287 90.6257 21.3069 90.4929 21.2874 90.0186C21.1303 84.9607 22.0104 79.9766 24.2156 75.3526C25.3095 73.0589 26.7259 70.5575 29.0313 69.237C31.5876 67.7649 34.6471 68.0957 36.3634 70.54C37.8265 72.6253 38.1872 75.3825 38.2966 77.8702Z" fill="#159FBE"/>
<path d="M335.73 11.7548C331.045 13.6905 326.909 16.7284 323.689 20.6115C324.663 16.4224 325.426 11.886 322.73 8.10637C320.493 4.9152 315.823 3.69709 312.819 6.48494C309.211 9.83567 309.84 15.9317 310.432 20.3599C311.107 25.5703 312.694 30.6312 314.548 35.5484C315.501 38.0616 316.537 40.5147 317.563 42.9945C316.089 43.9323 314.483 45.063 314.289 46.8579C314.149 48.2513 315.045 49.6604 316.59 49.621C318.135 49.5816 319.246 48.2108 319.413 46.8272C319.539 45.6395 319.175 44.4538 318.71 43.2916C318.866 43.1981 318.986 43.1214 319.143 43.0279C320.387 42.217 321.649 41.4425 322.928 40.7045C325.468 39.192 328.07 37.7621 330.621 36.223C335.122 33.5286 339.521 30.5262 343.077 26.6451C345.777 23.686 349.478 18.9852 348.047 14.6732C346.346 9.42042 339.727 10.1104 335.73 11.7548ZM318.472 47.0565C318.273 47.8566 317.684 48.635 316.791 48.7314C315.298 48.88 314.99 47.2033 315.458 46.17C315.926 45.1368 316.923 44.4164 317.918 43.7856C318.358 44.8484 318.741 45.981 318.472 47.0565ZM344.181 23.9478C342.6 26.0202 340.788 27.8879 338.78 29.5343C334.726 32.9332 330.126 35.5617 325.526 38.1902C323.125 39.5728 320.687 40.9722 318.365 42.4739C318.079 41.8284 317.774 41.236 317.533 40.6367C316.54 38.3193 315.61 35.9951 314.727 33.6275C312.945 28.7664 311.502 23.7282 310.999 18.5502C310.711 15.5568 310.44 12.1786 311.62 9.35835C312.848 6.40523 315.819 4.71852 318.99 5.93273C324.98 8.23325 324.404 15.7867 323.382 20.951C323.148 21.257 322.914 21.563 322.68 21.8691C322.371 22.2981 323.053 22.6966 323.342 22.3207C326.473 18.3452 330.351 15.0928 335.013 12.9682C337.325 11.9142 340.018 10.9084 342.633 11.3787C345.537 11.8943 347.668 14.1142 347.412 17.09C347.192 19.6278 345.696 21.9718 344.181 23.9478Z" fill="#159FBE"/>
</svg>
