<svg width="1280" height="1359" viewBox="0 0 1280 1359" fill="none" xmlns="http://www.w3.org/2000/svg">
<path d="M-64.6536 473.446C-146.609 198.953 58.9907 -77 345.457 -77H1110C1203.89 -77 1280 -0.888405 1280 93V1131.1C1280 1244.8 1170.54 1326.45 1061.55 1294.04L182.637 1032.71C127.643 1016.35 84.6077 973.368 68.1939 918.393L-64.6536 473.446Z" fill="#1088A4" fill-opacity="0.09"/>
<path d="M-61.458 152.696C-97.5536 -165.525 -115.601 -324.635 -19.2202 -407.789C77.1609 -490.942 231.908 -449.769 541.402 -367.424L741.61 -314.156C1087.71 -222.071 1260.76 -176.028 1298.6 -45.0662C1336.43 85.8959 1214.59 217.127 970.91 479.591L841.319 619.17C764.73 701.663 726.436 742.909 675.949 763.012C625.462 783.115 569.296 779.481 456.966 772.212L407.862 769.035C215.523 756.59 119.353 750.367 55.9973 690.001C-7.35887 629.635 -18.2205 533.879 -39.9438 342.366L-61.458 152.696Z" fill="#0787A4"/>
</svg>
