<svg width="428" height="795" viewBox="0 0 428 795" fill="none" xmlns="http://www.w3.org/2000/svg">
<path d="M-41.5851 122.616C-46.8293 11.4325 -49.4514 -44.1595 -14.3954 -73.4548C20.6607 -102.75 74.9029 -90.2954 183.387 -65.3863L297.444 -39.1977C413.507 -12.5484 471.539 0.776293 489.576 45.0192C507.613 89.2621 475.439 139.362 411.09 239.563L309.877 397.168C276.083 449.79 259.186 476.101 232.229 487.088C205.272 498.076 174.797 491.073 113.847 477.068L109.628 476.098C44.1849 461.06 11.4636 453.542 -8.37636 429.796C-28.2163 406.051 -29.7981 372.514 -32.9618 305.441L-41.5851 122.616Z" fill="#0787A4"/>
<path d="M-93.6822 261.315C-111.295 202.313 -67.1007 143 -5.526 143H464C514.81 143 556 184.19 556 235V671.656C556 733.192 496.757 777.381 437.774 759.839L65.5472 649.137C35.7866 640.286 12.4981 617.021 3.6171 587.269L-93.6822 261.315Z" fill="#1088A4" fill-opacity="0.09"/>
</svg>
