<svg width="23" height="25" viewBox="0 0 23 25" fill="none" xmlns="http://www.w3.org/2000/svg">
<g clip-path="url(#clip0_82_348)">
<path d="M20.5555 1.50393C19.675 1.13212 18.699 1.47348 18.239 2.31434C18.1895 2.4057 18.127 2.49312 18.0925 2.58988C17.628 3.90373 17.1665 5.21857 16.7065 6.5334C16.386 7.44892 16.068 8.36591 15.7475 9.28733C16.0845 9.37819 16.23 9.28978 16.3305 8.9946C16.947 7.18075 17.5755 5.37083 18.223 3.56778C18.413 3.03782 18.5015 2.44745 18.9855 2.05648C19.7685 1.62721 20.2495 1.75196 20.725 2.14489C21.222 2.5555 21.303 3.09185 21.024 3.83841C20.421 5.45236 19.813 7.06434 19.22 8.68173C19.121 8.95187 19.055 9.05305 18.7315 8.89882C18.105 8.6002 17.304 8.74067 16.9475 9.3001C16.6365 9.78831 16.2535 9.80157 15.7945 9.76523C15.2915 9.72544 14.7745 9.88703 14.294 9.52701C14.043 9.3389 13.724 9.51375 13.5535 9.79077C13.468 9.92976 13.4295 10.0972 13.3715 10.2525C13.335 10.3502 13.3165 10.4764 13.1745 10.4583C13.0645 10.4445 13.0565 10.3335 13.0385 10.2456C13.0145 10.1272 12.9915 10.0088 12.9705 9.88949C12.7945 8.89342 12.6255 7.89587 12.44 6.90128C12.3725 6.54027 12.1595 6.28045 11.754 6.29666C11.3525 6.31287 11.1485 6.58448 11.1075 6.94695C10.989 7.99656 10.863 9.04617 10.8325 10.1031C10.8125 10.1749 10.5115 13.3207 10.36 14.8202C10.318 15.2358 10.343 15.6694 10.195 16.0918C9.99099 15.9784 10.026 15.8276 10.0045 15.6989C9.81999 14.5992 9.63649 13.4995 9.45299 12.4003C9.47399 12.2043 9.46649 12.0118 9.37499 11.831C9.37499 11.831 9.37499 11.831 9.37499 11.8306C9.29799 11.2932 9.22749 10.7549 9.14149 10.2191C9.10499 9.99214 9.02899 9.7446 8.80499 9.65373C8.51399 9.53536 8.45599 9.29764 8.37249 9.05845C7.62399 6.92191 6.87849 4.78438 6.12749 2.64882C5.92749 2.08055 5.58799 1.63752 4.95749 1.48084C4.55649 1.34332 3.77099 1.41405 3.45749 1.6164C2.59699 2.17191 2.33949 2.91847 2.69299 3.87475C3.22249 5.30599 3.76699 6.73232 4.28949 8.16601C4.39949 8.46807 4.55299 8.58301 4.87749 8.4499C4.82349 8.29175 4.77349 8.13409 4.71549 7.97888C4.17449 6.53536 3.65149 5.08497 3.08149 3.65275C2.76699 2.86198 3.34849 1.81434 4.27899 1.76965C5.01299 1.82711 5.49899 2.17584 5.74099 2.88114C6.48199 5.04126 7.24249 7.1945 7.99449 9.3502C8.03249 9.45923 8.13949 9.57073 8.03199 9.68566C7.82449 9.90766 7.77149 10.194 7.66849 10.4607C7.63799 10.5393 7.62049 10.6498 7.50499 10.6567C7.38899 10.6631 7.36249 10.5629 7.32549 10.4813C7.17599 10.1503 7.01499 9.82367 6.87999 9.48674C6.72499 9.09921 6.45949 8.93566 6.02949 8.94008C4.58199 8.95481 3.13449 8.94548 1.68699 8.94646C1.57949 8.94646 1.46949 8.94352 1.36599 8.96611C1.31899 8.97642 1.26299 9.04077 1.25149 9.08939C1.23049 9.17878 1.30249 9.22839 1.38399 9.23772C1.50549 9.25147 1.62899 9.2554 1.75199 9.2554C3.15349 9.25688 4.55499 9.26523 5.95599 9.25049C6.30099 9.24705 6.49649 9.36346 6.61849 9.67976C6.78149 10.1027 6.98149 10.5118 7.16799 10.9258C7.24249 11.0914 7.30799 11.2873 7.53899 11.2701C7.73949 11.2554 7.79499 11.0766 7.85099 10.9185C7.92149 10.7191 7.98749 10.5177 8.05999 10.3193C8.13649 10.1095 8.17849 9.83251 8.47799 9.85904C8.76099 9.8836 8.80499 10.1454 8.84149 10.3723C8.95299 11.0584 9.05899 11.7456 9.16749 12.4322C9.37999 13.7755 9.59449 15.1184 9.80349 16.4622C9.83799 16.6827 9.92699 16.8423 10.1755 16.8399C10.431 16.8379 10.5015 16.6518 10.5375 16.4455C10.5455 16.4008 10.549 16.3556 10.553 16.3104C10.646 15.3021 10.756 14.2947 10.827 13.2849C10.8945 12.3237 11.1565 9.57318 11.205 9.15815C11.285 8.46857 11.337 7.77554 11.4 7.08399C11.421 6.85658 11.507 6.63654 11.7485 6.611C12.0105 6.58301 12.098 6.80845 12.142 7.02849C12.1715 7.17682 12.1985 7.32515 12.2245 7.47397C12.407 8.51523 12.5925 9.5555 12.768 10.5977C12.806 10.8232 12.862 11.0172 13.132 11.0462C13.433 11.0781 13.5255 10.8703 13.5975 10.6424C13.6655 10.4268 13.7145 10.2024 13.81 9.99902C13.9075 9.79175 14.1185 9.67731 14.282 9.88507C14.4725 10.1262 14.699 10.0958 14.9395 10.0963C15.4165 10.0977 15.894 10.0815 16.37 10.1027C16.675 10.1164 16.853 10.0467 17.01 9.74853C17.426 8.95874 18.4405 8.85806 19.067 9.50246C19.1365 9.57367 19.155 9.7058 19.3095 9.70432C19.461 9.30206 19.614 8.89489 19.7665 8.48772C20.355 6.91699 20.9545 5.3502 21.528 3.77407C21.867 2.84627 21.4335 1.87475 20.5555 1.50393Z" fill="white"/>
<path d="M18.622 9.53242C18.168 9.25835 17.574 9.39194 17.283 9.83448C16.987 10.2844 17.106 10.7888 17.5855 11.1208C17.6495 11.2318 17.757 11.2706 17.876 11.2898C18.1735 11.3369 18.446 11.2706 18.698 11.1135C18.802 11.0594 18.8605 10.9671 18.9085 10.8669C19.21 10.335 19.0995 9.82073 18.622 9.53242Z" fill="white"/>
<path d="M17.4065 11.3934C17.062 11.0806 16.9185 10.5413 16.234 10.6454C15.6345 10.7363 14.989 10.7358 14.399 10.613C14.011 10.5324 13.967 10.641 13.8925 10.915C13.7425 11.4686 13.5825 12.0197 13.416 12.5688C13.3655 12.7353 13.2595 12.8718 13.0525 12.8546C12.8695 12.8394 12.797 12.7058 12.757 12.5511C12.731 12.4489 12.709 12.3458 12.6905 12.2422C12.545 11.4258 12.4005 10.61 12.257 9.79372C12.2155 9.55846 12.0995 9.38312 11.8355 9.40964C11.5985 9.43321 11.5165 9.61985 11.497 9.83253C11.4615 10.223 11.431 10.614 11.394 11.0039C11.2495 12.5201 11.0965 14.0359 10.96 15.5531C10.853 16.7392 10.766 17.9273 10.67 19.114C10.6565 19.1876 10.655 19.2662 10.6275 19.3345C10.552 19.5187 10.5485 19.7859 10.244 19.7525C9.9785 19.7235 9.961 19.5044 9.8885 19.2986C9.8025 19.0545 9.9075 18.781 9.7395 18.5604C9.7395 18.5604 9.7395 18.5599 9.739 18.5599C9.459 16.391 9.084 14.2363 8.739 12.0771C8.7015 11.8419 8.6735 11.6189 8.375 11.5786C8.081 11.5393 7.9715 11.7294 7.8825 11.9563C7.8215 12.1115 7.748 12.2839 7.542 12.277C7.3435 12.2701 7.269 12.1007 7.2 11.9479C6.944 11.3821 6.6655 10.8242 6.4485 10.2441C6.3235 9.90964 6.136 9.83302 5.799 9.83744C4.4905 9.85561 3.182 9.83842 1.8735 9.8507C1.6635 9.85266 1.2805 9.72742 1.276 9.98086C1.2705 10.2839 1.6655 10.1783 1.883 10.1812C3.145 10.1979 4.4075 10.197 5.67 10.1842C5.942 10.1812 6.09 10.2687 6.192 10.5157C6.417 11.0609 6.655 11.6022 6.9105 12.1346C7.2005 12.7382 7.726 12.7868 8.124 12.2643C8.182 12.1881 8.187 12.0319 8.3355 12.082C8.43 12.114 8.4265 12.2279 8.4405 12.3178C8.782 14.4926 9.125 16.6675 9.4675 18.8423C9.4925 19.0039 9.5215 19.1655 9.542 19.3281C9.61 19.862 9.869 20.1385 10.2895 20.1233C10.684 20.109 10.8985 19.8335 10.9345 19.2947C10.9295 19.0118 10.933 18.7309 11.1105 18.4371C11.2685 18.892 11.422 19.3021 11.5525 19.7191C11.6455 20.0157 11.8265 20.1994 12.1445 20.1911C12.444 20.1827 12.6005 19.9843 12.6905 19.7161C13.5845 17.0491 14.4825 14.3836 15.374 11.7161C15.4045 11.6253 15.555 11.4799 15.3445 11.4234C15.2025 11.3851 15.0295 11.3664 14.9405 11.5427C14.907 11.6095 14.891 11.6852 14.867 11.7569C14.047 14.193 13.2285 16.6297 12.4045 19.0648C12.349 19.2289 12.3445 19.4853 12.1305 19.4966C11.8645 19.5103 11.895 19.2245 11.8325 19.0565C11.654 18.5742 11.4995 18.083 11.3265 17.5987C11.228 17.3237 11.1805 17.0472 11.2075 16.7544C11.377 14.92 11.5265 13.084 11.72 11.252C11.764 10.8345 11.686 10.3895 11.921 9.89097C12.092 10.836 12.2435 11.6812 12.3985 12.526C12.4665 12.8983 12.6385 13.193 13.068 13.2122C13.5085 13.2318 13.6795 12.9195 13.788 12.5698C13.9225 12.137 14.053 11.7019 14.1595 11.2623C14.207 11.0673 14.264 10.9931 14.4915 11.0069C14.967 11.0364 15.4465 11.0314 15.923 11.0138C16.35 10.9976 16.7435 11.0015 16.9805 11.4455C17.0365 11.5506 17.1985 11.6007 17.3115 11.6763C17.629 11.8605 18.154 11.9278 17.7915 12.4961C17.628 12.919 17.4605 13.3399 17.301 13.7643C16.321 16.3694 15.3515 18.9779 14.36 21.5786C14.014 22.4863 13.284 22.9745 12.3315 23.0747C11.4495 23.1675 10.703 22.8369 10.1555 22.1321C9.7365 21.5928 9.574 20.9352 9.34 20.3168C8.157 17.1906 6.997 14.056 5.8375 10.9209C5.7455 10.6724 5.6155 10.4872 5.3505 10.6022C5.069 10.724 5.334 10.9126 5.3825 11.0432C6.688 14.5599 8.004 18.0727 9.321 21.5855C9.769 22.78 10.828 23.5462 12.0345 23.5609C13.303 23.5761 14.359 22.8654 14.8485 21.6606C14.9735 21.3522 15.083 21.0378 15.1985 20.7259C16.1835 18.0752 17.169 15.4239 18.154 12.7731C18.354 12.3777 18.492 11.9627 18.625 11.471C18.157 11.6464 17.777 11.5629 17.4065 11.3934Z" fill="white"/>
</g>
<defs>
<clipPath id="clip0_82_348">
<rect width="23" height="25" fill="white"/>
</clipPath>
</defs>
</svg>
