<svg width="49" height="55" viewBox="0 0 49 55" fill="none" xmlns="http://www.w3.org/2000/svg">
<g clip-path="url(#clip0_3_29)">
<path d="M43.7921 3.30864C41.9163 2.49067 39.837 3.24165 38.857 5.09155C38.7515 5.29253 38.6184 5.48487 38.5449 5.69774C37.5553 8.58821 36.5721 11.4808 35.5921 14.3735C34.9093 16.3876 34.2318 18.405 33.549 20.4321C34.267 20.632 34.577 20.4375 34.7911 19.7881C36.1045 15.7976 37.4435 11.8158 38.8229 7.84912C39.2277 6.6832 39.4162 5.38438 40.4474 4.52426C42.1155 3.57986 43.1402 3.85432 44.1533 4.71876C45.2121 5.6221 45.3846 6.80206 44.7903 8.4445C43.5056 11.9952 42.2103 15.5416 40.947 19.0998C40.736 19.6941 40.5954 19.9167 39.9062 19.5774C38.5715 18.9204 36.865 19.2295 36.1055 20.4602C35.443 21.5343 34.627 21.5635 33.6492 21.4835C32.5775 21.396 31.4761 21.7515 30.4524 20.9594C29.9177 20.5456 29.2381 20.9303 28.8748 21.5397C28.6927 21.8455 28.6107 22.214 28.4871 22.5554C28.4093 22.7704 28.3699 23.0481 28.0674 23.0082C27.8331 22.9779 27.816 22.7337 27.7777 22.5403C27.7265 22.2799 27.6775 22.0195 27.6328 21.7569C27.2578 19.5655 26.8978 17.3709 26.5026 15.1828C26.3588 14.3886 25.905 13.817 25.0411 13.8527C24.1858 13.8883 23.7512 14.4859 23.6638 15.2833C23.4113 17.5924 23.1429 19.9016 23.0779 22.2269C23.0353 22.3847 22.3941 29.3056 22.0713 32.6045C21.9818 33.5187 22.0351 34.4728 21.7198 35.4021C21.2852 35.1525 21.3597 34.8207 21.3139 34.5376C20.9209 32.1183 20.5299 29.6989 20.139 27.2807C20.1837 26.8495 20.1678 26.4259 19.9728 26.0283C19.9728 26.0283 19.9728 26.0283 19.9728 26.0272C19.8088 24.8451 19.6586 23.6608 19.4754 22.4819C19.3976 21.9827 19.2357 21.4381 18.7585 21.2382C18.1385 20.9778 18.015 20.4548 17.8371 19.9286C16.2424 15.2282 14.6542 10.5256 13.0542 5.82741C12.6282 4.57721 11.9049 3.60255 10.5616 3.25786C9.70733 2.9553 8.03387 3.1109 7.36598 3.55609C5.53274 4.77819 4.98415 6.42063 5.73726 8.52446C6.86533 11.6732 8.02535 14.8111 9.1385 17.9652C9.37285 18.6298 9.69987 18.8826 10.3912 18.5898C10.2762 18.2418 10.1696 17.895 10.0461 17.5535C8.8935 14.3778 7.77928 11.1869 6.56494 8.03605C5.89492 6.29637 7.13376 3.99155 9.11613 3.89322C10.6799 4.01965 11.7153 4.78684 12.2308 6.33851C13.8095 11.0908 15.4297 15.8279 17.0318 20.5704C17.1127 20.8103 17.3407 21.0556 17.1117 21.3084C16.6696 21.7969 16.5567 22.4268 16.3372 23.0136C16.2723 23.1864 16.235 23.4296 15.9889 23.4447C15.7418 23.4587 15.6853 23.2383 15.6065 23.0589C15.288 22.3306 14.945 21.6121 14.6574 20.8708C14.3272 20.0183 13.7615 19.6584 12.8455 19.6682C9.76165 19.7006 6.67785 19.6801 3.59405 19.6822C3.36502 19.6822 3.13068 19.6757 2.91018 19.7254C2.81005 19.7481 2.69074 19.8897 2.66624 19.9967C2.6215 20.1933 2.77489 20.3025 2.94852 20.323C3.20737 20.3532 3.47048 20.3619 3.73252 20.3619C6.71833 20.3651 9.70413 20.3835 12.6889 20.3511C13.4239 20.3435 13.8404 20.5996 14.1003 21.2955C14.4475 22.2258 14.8736 23.1259 15.271 24.0368C15.4297 24.401 15.5692 24.8321 16.0613 24.7943C16.4885 24.7619 16.6067 24.3686 16.726 24.0206C16.8762 23.5819 17.0168 23.1389 17.1713 22.7024C17.3343 22.241 17.4238 21.6315 18.0618 21.6899C18.6647 21.7439 18.7585 22.3198 18.8362 22.8191C19.0738 24.3286 19.2996 25.8403 19.5308 27.3509C19.9835 30.3062 20.4405 33.2604 20.8857 36.2168C20.9592 36.702 21.1488 37.0531 21.6782 37.0477C22.2226 37.0434 22.3728 36.6339 22.4495 36.1801C22.4665 36.0817 22.474 35.9823 22.4825 35.8829C22.6806 33.6645 22.915 31.4483 23.0662 29.2267C23.21 27.1121 23.7682 21.061 23.8715 20.1479C24.042 18.6308 24.1527 17.1062 24.287 15.5848C24.3317 15.0845 24.5149 14.6004 25.0294 14.5442C25.5876 14.4826 25.774 14.9786 25.8677 15.4627C25.9306 15.789 25.9881 16.1153 26.0435 16.4427C26.4323 18.7335 26.8275 21.0221 27.2014 23.315C27.2823 23.811 27.4017 24.2378 27.9769 24.3016C28.6181 24.3718 28.8152 23.9147 28.9686 23.4134C29.1135 22.939 29.2178 22.4452 29.4213 21.9978C29.629 21.5418 30.0785 21.2901 30.4269 21.7472C30.8327 22.2777 31.3153 22.2107 31.8276 22.2118C32.8438 22.215 33.8611 22.1794 34.8752 22.2258C35.525 22.2561 35.9042 22.1027 36.2387 21.4468C37.125 19.7092 39.2863 19.4877 40.621 20.9054C40.7691 21.0621 40.8085 21.3528 41.1376 21.3495C41.4604 20.4645 41.7863 19.5688 42.1112 18.673C43.365 15.2174 44.6422 11.7704 45.864 8.30295C46.5862 6.26179 45.6627 4.12446 43.7921 3.30864Z" fill="white"/>
<path d="M39.673 20.9713C38.7058 20.3684 37.4403 20.6623 36.8203 21.6359C36.1897 22.6256 36.4433 23.7354 37.4648 24.4658C37.6011 24.71 37.8302 24.7954 38.0837 24.8375C38.7175 24.9413 39.298 24.7954 39.8349 24.4496C40.0565 24.3308 40.1811 24.1276 40.2834 23.9072C40.9257 22.7369 40.6903 21.6056 39.673 20.9713Z" fill="white"/>
<path d="M37.0834 25.0655C36.3495 24.3772 36.0438 23.1908 34.5855 23.4198C33.3083 23.6197 31.9331 23.6187 30.6761 23.3485C29.8495 23.1713 29.7558 23.4101 29.5971 24.0131C29.2775 25.2309 28.9366 26.4432 28.5819 27.6513C28.4743 28.0176 28.2485 28.318 27.8075 28.2802C27.4176 28.2467 27.2632 27.9528 27.178 27.6124C27.1226 27.3876 27.0757 27.1607 27.0363 26.9327C26.7263 25.1368 26.4185 23.342 26.1128 21.5462C26.0243 21.0286 25.7772 20.6428 25.2148 20.7012C24.7099 20.7531 24.5352 21.1637 24.4936 21.6315C24.418 22.4906 24.353 23.3507 24.2742 24.2087C23.9663 27.5443 23.6404 30.8789 23.3496 34.2167C23.1216 36.8262 22.9363 39.4401 22.7317 42.0507C22.703 42.2128 22.6998 42.3857 22.6412 42.5359C22.4804 42.9411 22.4729 43.5289 21.8242 43.4554C21.2586 43.3917 21.2213 42.9097 21.0668 42.457C20.8836 41.92 21.1073 41.3181 20.7494 40.8329C20.7494 40.8329 20.7494 40.8318 20.7483 40.8318C20.1518 36.0601 19.3529 31.3198 18.6179 26.5697C18.538 26.0521 18.4783 25.5615 17.8424 25.4729C17.2161 25.3864 16.9828 25.8046 16.7932 26.3038C16.6632 26.6453 16.5066 27.0246 16.0677 27.0094C15.6449 26.9943 15.4861 26.6215 15.3391 26.2855C14.7937 25.0407 14.2004 23.8132 13.7381 22.537C13.4718 21.8012 13.0724 21.6326 12.3544 21.6423C9.56673 21.6823 6.77905 21.6445 3.99138 21.6715C3.54399 21.6758 2.72803 21.4003 2.71844 21.9579C2.70673 22.6246 3.54825 22.3922 4.01162 22.3987C6.70023 22.4355 9.3899 22.4333 12.0796 22.4052C12.6591 22.3987 12.9744 22.5911 13.1917 23.1346C13.671 24.334 14.1781 25.5248 14.7224 26.6961C15.3402 28.0241 16.4597 28.131 17.3077 26.9813C17.4312 26.8139 17.4419 26.4702 17.7582 26.5805C17.9596 26.6507 17.9521 26.9014 17.9819 27.0991C18.7095 31.8838 19.4402 36.6685 20.1699 41.4532C20.2232 41.8087 20.2849 42.1642 20.3286 42.5218C20.4735 43.6964 21.0253 44.3047 21.9211 44.2712C22.7616 44.2399 23.2186 43.6337 23.2952 42.4483C23.2846 41.8259 23.2921 41.2079 23.6702 40.5617C24.0068 41.5623 24.3338 42.4645 24.6119 43.3819C24.81 44.0346 25.1956 44.4387 25.8731 44.4203C26.5111 44.402 26.8446 43.9654 27.0363 43.3755C28.9409 37.5081 30.854 31.6439 32.7533 25.7754C32.8183 25.5755 33.1389 25.2557 32.6905 25.1314C32.3879 25.0472 32.0194 25.0061 31.8298 25.394C31.7584 25.541 31.7243 25.7074 31.6732 25.8651C29.9262 31.2247 28.1825 36.5853 26.427 41.9426C26.3087 42.3035 26.2992 42.8676 25.8432 42.8924C25.2766 42.9227 25.3415 42.2938 25.2084 41.9243C24.8281 40.8632 24.4989 39.7826 24.1304 38.7172C23.9205 38.1121 23.8193 37.5037 23.8769 36.8597C24.238 32.8239 24.5565 28.7848 24.9687 24.7543C25.0624 23.8359 24.8963 22.8569 25.3969 21.7601C25.7612 23.8391 26.084 25.6987 26.4142 27.5573C26.5591 28.3763 26.9255 29.0247 27.8405 29.0668C28.779 29.11 29.1433 28.4228 29.3744 27.6534C29.661 26.7015 29.939 25.7441 30.1659 24.777C30.2671 24.348 30.3885 24.1849 30.8732 24.2151C31.8862 24.28 32.9078 24.2692 33.9229 24.2303C34.8326 24.1946 35.6709 24.2032 36.1759 25.1801C36.2952 25.4113 36.6403 25.5215 36.881 25.6879C37.5574 26.0931 38.6759 26.2412 37.9036 27.4914C37.5553 28.4217 37.1985 29.3477 36.8587 30.2813C34.7708 36.0126 32.7054 41.7514 30.5931 47.4729C29.8559 49.4698 28.3007 50.5438 26.2715 50.7642C24.3924 50.9685 22.8021 50.2413 21.6356 48.6907C20.743 47.5042 20.3968 46.0574 19.8983 44.697C17.378 37.8193 14.9067 30.9232 12.4364 24.026C12.2404 23.4793 11.9635 23.0719 11.3989 23.3248C10.7992 23.5927 11.3637 24.0077 11.4671 24.2951C14.2484 32.0318 17.052 39.7599 19.8578 47.488C20.8122 50.1159 23.0684 51.8016 25.6387 51.834C28.3412 51.8675 30.5909 50.3039 31.6338 47.6533C31.9001 46.9748 32.1334 46.2832 32.3794 45.5971C34.4779 39.7653 36.5774 33.9325 38.6759 28.1008C39.102 27.2309 39.396 26.3179 39.6794 25.2363C38.6823 25.622 37.8728 25.4383 37.0834 25.0655Z" fill="white"/>
</g>
<defs>
<clipPath id="clip0_3_29">
<rect width="49" height="55" fill="white"/>
</clipPath>
</defs>
</svg>
