<svg width="1280" height="1437" viewBox="0 0 1280 1437" fill="none" xmlns="http://www.w3.org/2000/svg">
<path d="M63.3464 550.465C-18.6088 275.972 186.991 0.019043 473.457 0.019043H1238C1331.89 0.019043 1408 76.1306 1408 170.019V1208.11C1408 1321.82 1298.54 1403.47 1189.55 1371.06L310.637 1109.73C255.643 1093.37 212.608 1050.39 196.194 995.412L63.3464 550.465Z" fill="#1088A4" fill-opacity="0.09"/>
<path fill-rule="evenodd" clip-rule="evenodd" d="M1156.58 1057.17C1157.36 1153.55 1115.29 1223.95 1034.85 1227.95C976.216 1230.87 1011.29 1138.7 937.808 1077.5C890.773 1038.33 859.729 936.556 975.652 910.241C1091.58 883.926 1155.8 960.795 1156.58 1057.17Z" fill="#B7FFDC"/>
<path d="M1001.28 1203.02C987.759 1190.62 976.31 1175.95 967.561 1159.8C963.871 1152.99 960.573 1145.34 961.955 1137.71C964.538 1123.44 959.199 1109.1 954.992 1095.23C950.786 1081.36 947.806 1065.69 954.572 1052.87C943.899 1062.75 939.618 1077.71 937.33 1092.1C932.025 1125.45 935.01 1160.1 945.942 1192.04C933.106 1168.46 932.602 1140.26 933.819 1113.42C934.766 1092.54 937.094 1070.31 950.167 1054.03C930.04 1070.5 923.916 1098.3 919.475 1123.97C915.305 1148.08 911.593 1173.38 919.325 1196.59C912.03 1183.1 913.222 1166.77 914.728 1151.49C918.192 1116.36 923.525 1078.52 948.055 1053.2C954.543 1046.5 962.462 1040.83 971.551 1038.81C978.593 1037.25 985.378 1034.52 991.549 1030.78C993.036 1022.04 984.84 1015.16 979.114 1008.4C972.702 1000.84 968.702 991.25 967.835 981.36C967.321 975.506 966.096 967.529 960.244 967.279C955.433 967.074 951.812 961.25 953.743 956.825C955.674 952.4 962.396 951.119 965.809 954.527C960.94 936.213 971.225 915.083 988.614 907.675C985.779 903.607 991.967 898.731 996.881 899.314C1001.79 899.897 1006.55 902.875 1011.38 901.774C1009.72 898.853 1012.37 894.972 1015.63 894.224C1018.9 893.476 1022.25 894.897 1025.18 896.527C1043.97 906.989 1056.39 928.086 1056.45 949.65C1056.94 945.714 1062.82 944.366 1065.7 947.084C1068.58 949.801 1068.44 954.665 1066.4 958.059C1064.35 961.454 1060.87 963.683 1057.42 965.62C1057.51 979.92 1052.09 994.184 1042.53 1004.8C1035.58 1012.52 1025.73 1020.71 1028.01 1030.86C1031.71 1030.04 1035.45 1034.32 1034.16 1037.89C1050.02 1036.57 1064.81 1046.17 1076.05 1057.47C1092.51 1074.05 1104.35 1095.21 1109.87 1117.94C1110.84 1121.91 1116.47 1123 1119.95 1120.88C1123.44 1118.76 1125.23 1114.75 1126.81 1110.99C1137.27 1086.2 1147.72 1061.41 1158.18 1036.62C1154.68 1015.04 1157.79 1016.24 1159.43 1006.16C1163.91 994.429 1163.06 983.833 1164.87 972.672C1165.36 969.633 1167.48 965.622 1170.28 966.889C1171.69 967.53 1172.19 969.26 1172.5 970.788C1174.19 979.374 1174.73 988.188 1174.1 996.918C1177.72 990.706 1181.34 984.494 1184.96 978.282C1186.94 974.883 1191.32 971.076 1194.06 973.888C1195.57 975.433 1195.18 977.968 1194.55 980.039C1192.57 986.626 1189.34 992.833 1185.09 998.231C1190.82 1000.19 1197.47 1003.17 1198.47 1009.17C1198.89 1011.65 1198.18 1014.19 1197.35 1016.56C1194.46 1024.84 1189.89 1032.51 1184 1038.99C1185.35 1038.17 1186.24 1040.61 1185.97 1042.16C1179.51 1079.64 1163.78 1115.48 1140.58 1145.56C1133.73 1154.43 1124.44 1163.59 1113.3 1162.54C1106.33 1161.88 1100.44 1157.29 1094.98 1152.89C1089.11 1148.15 1083.24 1143.4 1077.36 1138.66C1091.03 1141.72 1098.65 1158.84 1112.56 1160.53C1123.86 1161.9 1133.36 1152.4 1140.19 1143.25C1162.49 1113.42 1177.72 1078.3 1184.28 1041.6C1175.36 1043.1 1166.08 1042.37 1157.51 1039.48C1149 1065.95 1138.29 1091.7 1125.51 1116.38C1123.31 1120.64 1119.38 1125.6 1114.85 1124.05C1112.82 1123.35 1111.45 1121.48 1110.3 1119.67C1098.87 1101.48 1096.22 1077.23 1079.55 1063.72C1086.27 1105.52 1075.67 1148.03 1063.69 1188.63C1072.86 1156.99 1078.45 1124.31 1080.32 1091.41C1080.74 1083.86 1080.96 1076.14 1078.83 1068.89C1076.7 1061.63 1071.83 1054.8 1064.77 1052.15C1060.18 1082.15 1033.25 1104.47 1026.43 1134.04C1020.92 1157.96 1012.45 1181.18 1001.28 1203.02ZM1028.97 1120.89C1039.21 1101.35 1052.64 1083.46 1060.98 1063.02C1062.88 1058.38 1064.44 1052.85 1061.86 1048.55C1060.93 1047 1059.55 1045.78 1058.18 1044.59C1056.03 1042.72 1053.66 1040.74 1050.81 1040.51C1047.04 1040.2 1043.76 1043.04 1041.33 1045.96C1035.44 1053.03 1031.63 1061.59 1028.01 1070.06C1019.35 1090.34 1011.31 1110.98 1006.24 1132.44C1001.18 1153.91 999.165 1176.31 1002.65 1198.09C1007.05 1178.12 1021.87 1161.19 1023.9 1140.84C1024.24 1137.49 1024.22 1134.08 1024.94 1130.79C1025.72 1127.3 1027.31 1124.05 1028.97 1120.89ZM1049.25 936.452C1047.86 933.769 1046.13 931.202 1043.76 929.331C1038.49 925.165 1031.06 925.154 1024.47 926.392C1020.25 927.184 1016.11 928.404 1012.14 930.029C1011.1 930.453 1010 930.914 1008.9 930.713C1007.8 930.512 1006.81 929.32 1007.26 928.291C1007.34 928.094 1007.48 927.91 1007.5 927.695C1007.57 927.093 1006.8 926.792 1006.21 926.705C997.127 925.392 987.459 926.928 979.826 932.033C972.193 937.138 966.909 946.04 967.192 955.24C967.255 957.304 968.803 958.993 970.355 960.349C972.73 962.423 975.347 964.217 978.136 965.684C979.388 966.342 981.105 966.864 982.062 965.82C983.96 963.75 987.112 963.589 989.915 963.65C999.656 963.859 1009.45 964.986 1019.11 963.684C1024.99 962.891 1030.72 961.207 1036.58 960.259C1038.37 959.968 1040.23 959.749 1042 960.17C1043.77 960.59 1045.45 961.771 1046.02 963.506C1048.3 960.919 1050.35 958.128 1052.14 955.177C1052.68 954.292 1053.2 953.371 1053.4 952.354C1053.58 951.451 1053.49 950.519 1053.37 949.607C1052.77 945.026 1051.37 940.553 1049.25 936.452ZM1034.64 1000.71C1038.08 999.202 1040.01 995.534 1041.31 992.001C1044.41 983.58 1045.4 974.389 1044.18 965.496C1044.06 964.603 1043.89 963.666 1043.32 962.966C1042.42 961.858 1040.82 961.687 1039.39 961.745C1036.04 961.882 1032.79 962.807 1029.53 963.588C1022.67 965.231 1015.64 966.253 1008.58 966.277C1001.61 966.3 994.649 965.351 987.683 965.623C986.296 965.677 984.83 965.807 983.704 966.622C981.92 967.913 981.606 970.416 981.535 972.622C981.264 981.01 982.25 989.438 984.451 997.535C984.584 998.021 984.733 998.529 985.085 998.888C985.466 999.275 986.017 999.425 986.537 999.578C994.954 1002.05 1002.23 1009.13 1010.98 1008.52C1017.47 1008.07 1022.93 1003.4 1029.28 1001.99C1031.08 1001.59 1032.95 1001.46 1034.64 1000.71ZM962.684 1139.28C962.162 1146.89 966.454 1153.9 970.582 1160.31C974.76 1166.79 978.938 1173.28 983.117 1179.76C976.954 1159.18 974.047 1137.77 972.07 1116.37C970.006 1094.03 968.981 1071.12 975.069 1049.53C976.035 1046.1 977.193 1042.69 979.062 1039.67C973.458 1039.52 967.495 1039.95 962.924 1043.21C959.952 1045.32 957.842 1048.47 956.279 1051.77C951.451 1061.98 951.439 1073.89 953.574 1084.99C955.708 1096.08 959.85 1106.67 963.095 1117.49C964.038 1120.63 964.913 1123.86 964.799 1127.14C964.655 1131.25 962.966 1135.18 962.684 1139.28ZM989.905 1002.89C987.017 1001.78 983.513 1000.87 982.364 997.985C981.825 996.631 981.956 995.117 981.801 993.668C981.645 992.218 981.04 990.629 979.688 990.093C976.433 988.802 973.309 987.175 970.385 985.245C971.836 993.807 975.7 1001.94 981.413 1008.47C984.274 1011.74 987.592 1014.61 990.127 1018.14C992.663 1021.67 994.387 1026.11 993.453 1030.36C993.156 1031.71 995.094 1032.3 996.475 1032.27C1005.65 1032.05 1014.82 1031.79 1023.99 1031.49C1025.55 1031.44 1026.46 1029.62 1026.43 1028.06C1026.39 1026.5 1025.77 1025 1025.79 1023.44C1025.82 1021.14 1027.22 1019.12 1028.64 1017.33C1032.87 1012.02 1037.8 1007.32 1042.19 1002.15C1046.58 996.981 1050.49 991.189 1052.16 984.606C1049.26 989.524 1043.13 992.059 1040.85 997.301C1039.56 1000.28 1036.44 1002.03 1033.35 1002.98C1030.26 1003.94 1026.99 1004.33 1024.04 1005.66C1022.53 1006.34 1021.13 1007.26 1019.65 1008.01C1014.45 1010.64 1008.18 1011.05 1002.68 1009.14C998.198 1007.58 994.331 1004.59 989.905 1002.89ZM1173.61 1015.89C1176.8 1015.7 1180.65 1016.95 1182.76 1014.54C1183.25 1013.99 1183.57 1013.24 1183.39 1012.52C1183.15 1011.56 1182.14 1011.02 1181.21 1010.66C1175.3 1008.31 1168.68 1007.8 1162.48 1009.2C1160.32 1009.68 1159.06 1011.68 1158.59 1013.85C1158.11 1016.02 1158.23 1018.37 1158.59 1020.56C1159.5 1026.13 1160.41 1031.7 1161.32 1037.26C1161.36 1037.51 1161.4 1037.77 1161.54 1037.98C1161.75 1038.3 1162.14 1038.45 1162.5 1038.57C1166.98 1040.1 1171.74 1040.79 1176.47 1040.57C1178.35 1040.49 1180.38 1040.19 1181.7 1038.85C1188.16 1032.26 1192.88 1023.97 1195.26 1015.04C1193.97 1016.21 1192.3 1017.11 1190.57 1016.98C1188.83 1016.84 1187.15 1015.36 1187.26 1013.62C1183.94 1016.19 1180.02 1018.91 1175.91 1018.06C1172.77 1017.41 1169.3 1018.8 1167.48 1021.45C1166.37 1021.16 1166.8 1019.44 1167.6 1018.62C1169.19 1017.02 1171.37 1016.03 1173.61 1015.89ZM982.736 1065.44C980.56 1065.78 978.394 1066.19 976.245 1066.67C974.734 1067.02 972.936 1067.71 972.74 1069.25C972.35 1072.33 972.139 1075.42 972.107 1078.52C988.537 1074.63 1005.98 1075.16 1022.15 1080.02C1023.87 1075.98 1025.59 1071.94 1027.31 1067.91C1012.84 1063.97 997.547 1063.13 982.736 1065.44ZM1043.44 1041.21C1040.84 1039.83 1037.81 1039.28 1034.89 1039.65C1034.32 1039.72 1033.67 1039.88 1033.39 1040.39C1032.29 1042.44 1029.86 1043.32 1027.62 1043.92C1016.35 1046.91 1004.44 1046.84 992.885 1045.26C990.736 1044.97 988.558 1044.61 986.606 1043.67C984.654 1042.72 982.929 1041.09 982.349 1038.99C980.811 1038.97 979.887 1040.66 979.34 1042.1C977.687 1046.46 976.258 1050.91 975.061 1055.42C993.798 1051.16 1013.6 1051.72 1032.07 1057.01C1033.84 1054.85 1035.15 1052.32 1035.89 1049.63C1036.24 1048.37 1037.2 1047.4 1038.12 1046.48C1039.89 1044.73 1041.67 1042.97 1043.44 1041.21ZM1012.84 1104.82C1014.65 1100.81 1016.18 1096.67 1017.43 1092.44C1003.01 1090.04 988.235 1089.76 973.729 1091.61C973.114 1091.69 972.431 1091.81 972.06 1092.3C971.733 1092.74 971.749 1093.34 971.781 1093.89C971.935 1096.6 972.09 1099.31 972.244 1102.02C972.286 1102.75 972.632 1103.73 973.344 1103.58C986.362 1100.89 1000.01 1101.32 1012.84 1104.82ZM1192.78 980.422C1193.19 979.393 1193.59 978.312 1193.5 977.206C1193.41 976.101 1192.69 974.969 1191.61 974.764C1190.93 974.636 1190.23 974.882 1189.65 975.245C1188.21 976.135 1187.31 977.663 1186.46 979.131C1182.64 985.776 1178.82 992.422 1174.99 999.068C1174.5 999.929 1173.07 999.662 1172.52 998.83C1171.98 997.998 1172.05 996.922 1172.13 995.93C1172.77 987.618 1172.29 979.219 1170.7 971.036C1170.6 970.528 1170.49 970.003 1170.19 969.585C1169.3 968.374 1167.24 968.795 1166.35 970.002C1165.46 971.208 1165.41 972.82 1165.4 974.32C1165.31 985.75 1165.42 997.585 1160.82 1008.04C1165.49 1006.22 1170.75 1005.96 1175.59 1007.3C1176.28 1007.5 1176.99 1007.72 1177.7 1007.59C1178.4 1007.45 1179.07 1006.81 1178.95 1006.1C1178.48 1003.45 1180.38 1001.04 1182.05 998.926C1186.49 993.317 1190.12 987.064 1192.78 980.422ZM1032.5 1035.15C1032.18 1033.84 1031.01 1032.63 1029.67 1032.75C1016.02 1033.98 1002.28 1034.33 988.578 1033.8C987.767 1033.77 986.913 1033.74 986.194 1034.12C985.686 1034.38 985.289 1034.83 985.019 1035.34C983.926 1037.4 985.036 1040.09 986.9 1041.48C988.764 1042.88 991.165 1043.29 993.472 1043.58C1003.55 1044.85 1013.81 1044.72 1023.81 1042.96C1025.97 1042.58 1028.18 1042.09 1029.97 1040.82C1031.76 1039.54 1033.02 1037.28 1032.5 1035.15ZM1008.15 1119.06C1008.23 1118.79 1008.31 1118.47 1008.16 1118.23C1008.01 1117.97 1007.67 1117.89 1007.38 1117.84C996.519 1115.99 985.406 1116.9 974.431 1117.81C974.121 1117.84 973.768 1117.89 973.593 1118.14C973.457 1118.35 973.476 1118.61 973.501 1118.85C973.819 1121.98 974.137 1125.11 974.455 1128.23C974.516 1128.83 974.77 1129.61 975.37 1129.58C984.913 1129.09 994.503 1129.51 1003.97 1130.84C1004.57 1130.93 1004.93 1130.21 1005.1 1129.62C1006.12 1126.1 1007.13 1122.58 1008.15 1119.06ZM1001.93 1147.19C1001.98 1146.74 1002 1146.22 1001.69 1145.9C1001.46 1145.65 1001.09 1145.58 1000.75 1145.53C993.317 1144.5 985.769 1145.23 978.304 1145.97C977.931 1146.01 977.499 1146.08 977.319 1146.41C977.196 1146.64 977.235 1146.91 977.278 1147.17C977.778 1150.16 978.279 1153.16 978.78 1156.15C978.852 1156.59 979.079 1157.14 979.51 1157.07C986.63 1156.01 994.207 1155.7 1000.72 1158.78C1001.12 1154.91 1001.53 1151.05 1001.93 1147.19ZM972.064 984.086C974.754 985.939 977.707 987.408 980.806 988.433C979.456 982.19 979.192 975.712 980.028 969.379C980.134 968.578 979.235 968.061 978.493 967.747C974.154 965.912 970.217 963.13 967.033 959.649C967.362 966.256 968.074 972.843 969.164 979.367C969.327 980.346 969.51 981.351 970.038 982.19C970.534 982.979 971.298 983.558 972.064 984.086ZM1043.76 990.794C1046.65 988.438 1049.18 985.66 1051.42 982.676C1052.63 981.066 1053.77 979.37 1054.44 977.47C1055.11 975.559 1055.29 973.511 1055.37 971.487C1055.58 966.187 1055.17 960.864 1054.17 955.657C1051.85 958.82 1049.53 961.982 1047.21 965.144C1046.85 965.63 1046.49 966.133 1046.35 966.719C1046.24 967.19 1046.28 967.68 1046.32 968.162C1046.94 975.777 1046.07 983.512 1043.76 990.794ZM998.943 1184.19C999.45 1184.29 999.683 1183.58 999.695 1183.06C999.769 1179.95 999.843 1176.84 999.916 1173.73C999.923 1173.45 999.927 1173.16 999.807 1172.91C999.584 1172.44 999.025 1172.27 998.526 1172.14C995.707 1171.4 992.846 1170.66 989.934 1170.69C987.514 1170.72 985.118 1171.29 982.699 1171.23C982.425 1171.22 982.068 1171.27 982.01 1171.54C981.99 1171.63 982.017 1171.73 982.043 1171.82C983.11 1175.54 984.516 1179.16 986.235 1182.62C986.461 1183.07 986.73 1183.56 987.201 1183.74C987.533 1183.87 987.904 1183.83 988.258 1183.78C991.81 1183.34 995.434 1183.47 998.943 1184.19ZM1056.97 950.841C1056.42 951.699 1055.93 952.637 1055.84 953.655C1055.78 954.28 1055.88 954.906 1055.98 955.526C1056.35 957.912 1056.72 960.299 1057.1 962.686C1057.12 962.824 1057.15 962.971 1057.24 963.077C1057.45 963.325 1057.85 963.193 1058.15 963.044C1059.33 962.442 1060.52 961.831 1061.52 960.956C1062.32 960.254 1062.97 959.401 1063.59 958.53C1064.87 956.712 1066.05 954.683 1066.13 952.457C1066.21 950.23 1064.85 947.81 1062.67 947.408C1060.35 946.983 1058.25 948.86 1056.97 950.841ZM956.476 955.567C955.59 956.346 955.269 957.584 955.122 958.757C954.987 959.831 954.964 960.95 955.335 961.967C955.847 963.369 957.065 964.42 958.412 965.056C959.759 965.691 961.243 965.964 962.708 966.23C963.431 966.362 964.154 966.493 964.877 966.625C965.056 966.658 965.268 966.68 965.394 966.549C965.5 966.44 965.5 966.27 965.493 966.119C965.373 963.432 965.254 960.745 965.134 958.059C965.084 956.918 964.27 955.912 963.268 955.37C962.265 954.828 961.098 954.682 959.96 954.653C958.731 954.622 957.401 954.754 956.476 955.567ZM1188.87 1001.54C1188.34 1000.96 1187.56 1000.69 1186.8 1000.46C1186 1000.22 1185.14 1000 1184.35 1000.27C1183.44 1000.56 1182.85 1001.41 1182.37 1002.23C1181.66 1003.47 1181.06 1004.79 1180.6 1006.15C1180.43 1006.63 1180.29 1007.14 1180.35 1007.65C1180.42 1008.15 1180.76 1008.65 1181.26 1008.75C1183.3 1009.13 1185.08 1010.67 1185.76 1012.63C1186.7 1010.64 1187.65 1008.66 1188.59 1006.67C1188.98 1005.84 1189.38 1005.01 1189.52 1004.1C1189.65 1003.2 1189.49 1002.21 1188.87 1001.54ZM1195.96 1005.71C1194.99 1004.79 1193.38 1004.86 1192.26 1005.57C1191.14 1006.29 1190.44 1007.52 1189.99 1008.78C1189.48 1010.21 1189.23 1011.73 1189.26 1013.25C1189.27 1013.61 1189.29 1013.99 1189.46 1014.31C1189.86 1015.09 1190.92 1015.26 1191.77 1015.05C1193.62 1014.58 1194.85 1012.86 1195.76 1011.18C1196.23 1010.31 1196.67 1009.41 1196.79 1008.43C1196.92 1007.45 1196.68 1006.38 1195.96 1005.71ZM1001.03 1199.68C1000.58 1197.04 1000.13 1194.41 999.671 1191.77C999.618 1191.46 999.547 1191.12 999.298 1190.94C999.134 1190.82 998.923 1190.78 998.721 1190.76C996.378 1190.45 993.998 1190.44 991.651 1190.71C994.421 1194.05 997.576 1197.07 1001.03 1199.68Z" fill="#00160A"/>
<path d="M865.985 942.962C863.641 947.456 862.425 952.442 862.454 957.486C860.507 953.652 858.176 949.686 853.681 948.524C849.916 947.517 845.556 949.585 845.047 953.652C844.437 958.538 848.837 962.804 852.137 965.815C856.004 969.372 860.472 972.229 865.053 974.805C867.398 976.117 869.769 977.331 872.149 978.571C871.622 980.237 871.119 982.135 872.124 983.634C872.913 984.792 874.505 985.296 875.663 984.272C876.821 983.249 876.791 981.484 876.03 980.317C875.363 979.326 874.322 978.652 873.219 978.061C873.278 977.889 873.321 977.753 873.381 977.581C873.812 976.16 874.281 974.756 874.786 973.368C875.76 970.576 876.835 967.808 877.799 964.99C879.515 960.033 880.955 954.905 881.185 949.646C881.35 945.644 881.164 939.664 877.296 937.281C872.617 934.35 867.99 939.133 865.985 942.962ZM875.457 981.098C875.818 981.839 875.867 982.814 875.245 983.461C874.197 984.535 872.883 983.449 872.578 982.356C872.272 981.264 872.573 980.071 872.929 978.949C873.949 979.48 874.971 980.101 875.457 981.098ZM880.297 946.87C880.418 949.474 880.23 952.07 879.75 954.621C878.83 959.831 876.995 964.801 875.161 969.771C874.21 972.374 873.242 975.013 872.428 977.656C871.795 977.346 871.18 977.088 870.611 976.784C868.36 975.647 866.154 974.464 863.955 973.218C859.465 970.64 855.122 967.707 851.408 964.064C849.263 961.957 846.885 959.543 845.975 956.624C845.018 953.572 846.21 950.37 849.419 949.263C855.486 947.175 859.901 953.331 862.437 957.944C862.455 958.329 862.472 958.714 862.49 959.098C862.529 959.626 863.307 959.493 863.287 959.019C863.13 953.961 864.01 948.977 866.216 944.353C867.31 942.059 868.726 939.558 871.031 938.237C873.588 936.765 876.647 937.096 878.363 939.54C879.827 941.625 880.187 944.383 880.297 946.87Z" fill="#159FBE"/>
<path d="M1177.73 880.755C1173.05 882.691 1168.91 885.728 1165.69 889.611C1166.66 885.422 1167.43 880.886 1164.73 877.106C1162.49 873.915 1157.82 872.697 1154.82 875.485C1151.21 878.836 1151.84 884.932 1152.43 889.36C1153.11 894.57 1154.69 899.631 1156.55 904.548C1157.5 907.062 1158.54 909.515 1159.56 911.994C1158.09 912.932 1156.48 914.063 1156.29 915.858C1156.15 917.251 1157.04 918.66 1158.59 918.621C1160.14 918.582 1161.25 917.211 1161.41 915.827C1161.54 914.64 1161.17 913.454 1160.71 912.292C1160.87 912.198 1160.99 912.121 1161.14 912.028C1162.39 911.217 1163.65 910.443 1164.93 909.704C1167.47 908.192 1170.07 906.762 1172.62 905.223C1177.12 902.529 1181.52 899.526 1185.08 895.645C1187.78 892.686 1191.48 887.985 1190.05 883.673C1188.35 878.42 1181.73 879.11 1177.73 880.755ZM1160.47 916.057C1160.27 916.857 1159.68 917.635 1158.79 917.731C1157.3 917.88 1156.99 916.203 1157.46 915.17C1157.93 914.137 1158.92 913.416 1159.92 912.786C1160.36 913.848 1160.74 914.981 1160.47 916.057ZM1186.18 892.948C1184.6 895.02 1182.79 896.888 1180.78 898.534C1176.73 901.933 1172.13 904.562 1167.53 907.19C1165.13 908.573 1162.69 909.972 1160.36 911.474C1160.08 910.828 1159.77 910.236 1159.53 909.637C1158.54 907.319 1157.61 904.995 1156.73 902.628C1154.94 897.766 1153.5 892.728 1153 887.55C1152.71 884.557 1152.44 881.179 1153.62 878.358C1154.85 875.405 1157.82 873.719 1160.99 874.933C1166.98 877.233 1166.4 884.787 1165.38 889.951C1165.15 890.257 1164.91 890.563 1164.68 890.869C1164.37 891.298 1165.05 891.697 1165.34 891.321C1168.47 887.345 1172.35 884.093 1177.01 881.968C1179.33 880.914 1182.02 879.908 1184.63 880.379C1187.54 880.894 1189.67 883.114 1189.41 886.09C1189.19 888.628 1187.7 890.972 1186.18 892.948Z" fill="#159FBE"/>
</svg>
