<svg width="45" height="36" viewBox="0 0 45 36" fill="none" xmlns="http://www.w3.org/2000/svg">
<path d="M41.7921 1.30864C39.9163 0.490668 37.837 1.24165 36.857 3.09155C36.7515 3.29253 36.6184 3.48487 36.5449 3.69774C35.5553 6.58821 34.5721 9.48085 33.5921 12.3735C32.9093 14.3876 32.2318 16.405 31.549 18.4321C32.267 18.632 32.577 18.4375 32.7911 17.7881C34.1045 13.7976 35.4435 9.81582 36.8229 5.84912C37.2277 4.6832 37.4162 3.38438 38.4474 2.52426C40.1155 1.57986 41.1402 1.85432 42.1533 2.71876C43.2121 3.6221 43.3846 4.80206 42.7903 6.4445C41.5056 9.99519 40.2103 13.5416 38.947 17.0998C38.736 17.6941 38.5954 17.9167 37.9062 17.5774C36.5715 16.9204 34.865 17.2295 34.1055 18.4602C33.443 19.5343 32.627 19.5635 31.6492 19.4835C30.5775 19.396 29.4761 19.7515 28.4524 18.9594C27.9177 18.5456 27.2381 18.9303 26.8748 19.5397C26.6927 19.8455 26.6107 20.214 26.4871 20.5554C26.4093 20.7704 26.3699 21.0481 26.0674 21.0082C25.8331 20.9779 25.816 20.7337 25.7777 20.5403C25.7265 20.2799 25.6775 20.0195 25.6328 19.7569C25.2578 17.5655 24.8978 15.3709 24.5026 13.1828C24.3588 12.3886 23.905 11.817 23.0411 11.8527C22.1858 11.8883 21.7512 12.4859 21.6638 13.2833C21.4113 15.5924 21.1429 17.9016 21.0779 20.2269C21.0353 20.3847 20.3941 27.3056 20.0713 30.6045C19.9818 31.5187 20.0351 32.4728 19.7198 33.4021C19.2852 33.1525 19.3597 32.8207 19.3139 32.5376C18.9209 30.1183 18.5299 27.6989 18.139 25.2807C18.1837 24.8495 18.1678 24.4259 17.9728 24.0283C17.9728 24.0283 17.9728 24.0283 17.9728 24.0272C17.8088 22.8451 17.6586 21.6608 17.4754 20.4819C17.3976 19.9827 17.2357 19.4381 16.7585 19.2382C16.1385 18.9778 16.015 18.4548 15.8371 17.9286C14.2424 13.2282 12.6542 8.52564 11.0542 3.82741C10.6282 2.57721 9.90487 1.60255 8.56163 1.25786C7.70733 0.955304 6.03387 1.1109 5.36598 1.55609C3.53274 2.77819 2.98415 4.42063 3.73726 6.52446C4.86533 9.67318 6.02535 12.8111 7.1385 15.9652C7.37285 16.6298 7.69987 16.8826 8.3912 16.5898C8.27615 16.2418 8.16963 15.895 8.04607 15.5535C6.8935 12.3778 5.77928 9.18694 4.56494 6.03605C3.89492 4.29637 5.13376 1.99155 7.11613 1.89322C8.67987 2.01965 9.71526 2.78684 10.2308 4.33851C11.8095 9.09077 13.4297 13.8279 15.0318 18.5704C15.1127 18.8103 15.3407 19.0556 15.1117 19.3084C14.6696 19.7969 14.5567 20.4268 14.3372 21.0136C14.2723 21.1864 14.235 21.4296 13.9889 21.4447C13.7418 21.4587 13.6853 21.2383 13.6065 21.0589C13.288 20.3307 12.945 19.6121 12.6574 18.8708C12.3272 18.0183 11.7615 17.6584 10.8455 17.6682C7.76165 17.7006 4.67785 17.6801 1.59405 17.6822C1.36502 17.6822 1.13068 17.6757 0.910176 17.7254C0.810046 17.7481 0.690741 17.8897 0.666241 17.9967C0.621502 18.1933 0.774892 18.3025 0.948523 18.323C1.20737 18.3532 1.47048 18.3619 1.73252 18.3619C4.71833 18.3651 7.70413 18.3835 10.6889 18.3511C11.4239 18.3435 11.8404 18.5996 12.1003 19.2955C12.4475 20.2258 12.8736 21.1259 13.271 22.0368C13.4297 22.401 13.5692 22.8321 14.0613 22.7943C14.4885 22.7619 14.6067 22.3686 14.726 22.0206C14.8762 21.5819 15.0168 21.1389 15.1713 20.7024C15.3343 20.241 15.4238 19.6315 16.0618 19.6899C16.6647 19.7439 16.7585 20.3198 16.8362 20.8191C17.0738 22.3286 17.2996 23.8403 17.5308 25.3509C17.9835 28.3062 18.4405 31.2604 18.8857 34.2168C18.9592 34.702 19.1488 35.0531 19.6782 35.0477C20.2226 35.0434 20.3728 34.6339 20.4495 34.1801C20.4665 34.0817 20.474 33.9823 20.4825 33.8829C20.6806 31.6645 20.915 29.4483 21.0662 27.2267C21.21 25.1121 21.7682 19.061 21.8715 18.1479C22.042 16.6308 22.1527 15.1062 22.287 13.5848C22.3317 13.0845 22.5149 12.6004 23.0294 12.5442C23.5876 12.4826 23.774 12.9786 23.8677 13.4627C23.9306 13.789 23.9881 14.1153 24.0435 14.4427C24.4323 16.7335 24.8275 19.0221 25.2014 21.315C25.2823 21.811 25.4017 22.2378 25.9769 22.3016C26.6181 22.3718 26.8152 21.9147 26.9686 21.4134C27.1135 20.939 27.2178 20.4452 27.4213 19.9978C27.629 19.5418 28.0785 19.2901 28.4269 19.7472C28.8327 20.2777 29.3153 20.2107 29.8276 20.2118C30.8438 20.215 31.8611 20.1794 32.8752 20.2258C33.525 20.2561 33.9042 20.1027 34.2387 19.4468C35.125 17.7092 37.2863 17.4877 38.621 18.9054C38.7691 19.0621 38.8085 19.3528 39.1376 19.3495C39.4604 18.4645 39.7864 17.5688 40.1112 16.673C41.365 13.2174 42.6422 9.77043 43.864 6.30295C44.5862 4.26179 43.6627 2.12446 41.7921 1.30864Z" fill="white"/>
</svg>
