<svg width="12" height="12" viewBox="0 0 12 12" fill="none" xmlns="http://www.w3.org/2000/svg">
<g clip-path="url(#clip0_82_366)">
<path d="M6 0C4.81332 0 3.65328 0.351894 2.66658 1.01118C1.67989 1.67047 0.910851 2.60754 0.456726 3.7039C0.00259972 4.80026 -0.11622 6.00666 0.115291 7.17054C0.346802 8.33443 0.918247 9.40353 1.75736 10.2426C2.59648 11.0818 3.66558 11.6532 4.82946 11.8847C5.99335 12.1162 7.19975 11.9974 8.2961 11.5433C9.39246 11.0892 10.3295 10.3201 10.9888 9.33342C11.6481 8.34673 12 7.18669 12 6C11.9983 4.40923 11.3656 2.88411 10.2407 1.75926C9.1159 0.634414 7.59077 0.00172054 6 0ZM11 6C11.0006 6.97986 10.7115 7.93801 10.169 8.754L9.573 8.1575C9.52627 8.11065 9.50002 8.04718 9.5 7.981V7.5C9.5 7.10218 9.34197 6.72064 9.06066 6.43934C8.77936 6.15804 8.39783 6 8 6H6.5C6.3674 6 6.24022 5.94732 6.14645 5.85355C6.05268 5.75979 6 5.63261 6 5.5V5.25C6 5.1837 6.02634 5.12011 6.07323 5.07322C6.12011 5.02634 6.1837 5 6.25 5C6.58152 5 6.89947 4.8683 7.13389 4.63388C7.36831 4.39946 7.5 4.08152 7.5 3.75V3.25C7.5 3.1837 7.52634 3.12011 7.57323 3.07322C7.62011 3.02634 7.6837 3 7.75 3H8.4395C8.7707 2.99906 9.08817 2.86754 9.323 2.634L9.5115 2.4455C9.9831 2.90954 10.3576 3.46282 10.6131 4.07309C10.8687 4.68335 11.0002 5.33839 11 6ZM1.0245 6.4815L2.6035 8.0605C2.74245 8.20035 2.90779 8.31121 3.08993 8.38666C3.27206 8.4621 3.46736 8.50063 3.6645 8.5H5C5.13261 8.5 5.25979 8.55268 5.35356 8.64645C5.44733 8.74022 5.5 8.86739 5.5 9V10.9745C4.3501 10.8571 3.2762 10.3456 2.46047 9.52666C1.64473 8.70774 1.13739 7.63185 1.0245 6.4815ZM6.5 10.9745V9C6.5 8.60218 6.34197 8.22064 6.06066 7.93934C5.77936 7.65804 5.39783 7.5 5 7.5H3.6645C3.59876 7.50005 3.53366 7.48714 3.47291 7.462C3.41217 7.43686 3.35698 7.39999 3.3105 7.3535L1.0815 5.1245C1.22459 4.3111 1.56737 3.54595 2.07909 2.89769C2.59081 2.24943 3.25546 1.73835 4.0134 1.41031C4.77134 1.08226 5.59887 0.947508 6.42173 1.01814C7.2446 1.08877 8.03705 1.36258 8.728 1.815L8.616 1.927C8.56894 1.97341 8.5056 1.99961 8.4395 2H7.75C7.41848 2 7.10054 2.1317 6.86612 2.36612C6.6317 2.60054 6.5 2.91848 6.5 3.25V3.75C6.5 3.8163 6.47366 3.87989 6.42678 3.92678C6.3799 3.97366 6.31631 4 6.25 4C5.91848 4 5.60054 4.1317 5.36612 4.36612C5.1317 4.60054 5 4.91848 5 5.25V5.5C5 5.89783 5.15804 6.27936 5.43934 6.56066C5.72065 6.84197 6.10218 7 6.5 7H8C8.13261 7 8.25979 7.05268 8.35356 7.14645C8.44733 7.24022 8.5 7.36739 8.5 7.5V7.981C8.50095 8.3122 8.63246 8.62966 8.866 8.8645L9.5345 9.533C8.72023 10.3501 7.64781 10.8595 6.5 10.9745Z" fill="white"/>
</g>
<defs>
<clipPath id="clip0_82_366">
<rect width="12" height="12" fill="white"/>
</clipPath>
</defs>
</svg>
