<svg width="58" height="70" viewBox="0 0 58 70" fill="none" xmlns="http://www.w3.org/2000/svg">
<g clip-path="url(#clip0_6_658)">
<path d="M51.1998 3.17654H6.7984C2.95907 3.17654 -0.15332 6.31286 -0.15332 10.1817V59.2556C-0.15332 63.1244 2.95907 66.2607 6.7984 66.2607H51.1998C55.0391 66.2607 58.1515 63.1244 58.1515 59.2556V10.1817C58.1515 6.31286 55.0391 3.17654 51.1998 3.17654Z" fill="#632B9A"/>
<path d="M39.1937 63.0661H37.8066C36.4326 63.053 35.0406 63.0053 33.6943 62.961L32.2615 62.9134C30.8419 62.8674 29.3961 62.8608 27.9992 62.8542L23.0279 62.828C22.9985 62.828 22.9725 62.828 22.948 62.8263C22.8616 62.823 22.7964 62.8017 22.7622 62.7902C22.459 62.6785 22.27 62.4173 22.2634 62.1316L22.2211 61.4926C22.2031 61.266 22.1966 61.0344 22.1885 60.8028C22.1705 60.4184 22.1689 60.0275 22.1673 59.6366V59.4412C22.1787 58.5017 22.2292 57.5852 22.3189 56.7065C22.5161 54.8685 22.8959 53.0799 23.4484 51.3848C24.0075 49.6849 24.7573 48.021 25.6765 46.4393C27.3179 43.6143 29.5868 40.8796 32.6136 38.0808C32.9461 37.7704 33.2982 37.4517 33.6992 37.0937C32.9771 36.054 32.3055 35.1408 31.753 34.3901C31.4645 33.9976 31.2135 33.656 31.0081 33.3669C30.8321 33.1304 30.6234 32.8446 30.3952 32.5292C29.1679 30.8358 27.3179 28.2818 25.7955 27.4523L25.093 27.2503C24.9561 27.2175 24.8013 27.2224 24.6383 27.2257C24.4834 27.247 24.3155 27.2717 24.2015 27.316C23.8967 27.4146 23.6799 27.5525 23.4174 27.7447C23.2219 27.9007 23.0295 28.0847 22.8584 28.2785C22.1673 29.0685 21.7305 29.9029 21.3067 30.7586C20.4395 32.5752 19.8202 34.4493 19.3279 36.0408C18.1266 39.9746 17.2628 43.9132 16.645 46.9058C16.3093 48.5581 15.9246 50.4831 15.6002 52.3884C15.2645 54.3511 15.0265 56.2794 14.8358 57.9055L14.3566 61.8967C14.3533 61.9164 14.3501 61.9345 14.3452 61.9542C14.3452 61.9591 14.3419 61.9969 14.3272 62.0445C14.2376 62.4009 13.9996 62.7081 13.6867 62.8674C13.5286 62.9511 13.3558 63.0004 13.1814 63.0119L13.0624 63.0152L11.1407 62.9922C10.2149 62.9741 9.29071 62.9479 8.36816 62.9183L5.94606 62.8477C5.80914 62.8427 5.68037 62.7803 5.59399 62.6719C5.5076 62.5652 5.47174 62.4255 5.49456 62.2892L5.56302 61.8934C5.56628 61.8737 5.57117 61.8556 5.57606 61.8359C5.61518 61.7061 5.64941 61.5764 5.68364 61.4466L5.72601 61.2873C5.97702 60.5154 6.39755 59.8009 6.98433 59.1406C7.3201 58.7793 7.61512 58.5115 7.92155 58.2898C8.07965 58.1699 8.25406 58.0516 8.43009 57.9383C8.48551 57.9022 8.54908 57.8644 8.61428 57.8283L8.78705 57.733C8.83269 57.7084 8.87996 57.6854 8.90604 57.6706L9.26952 57.4341L9.27767 57.393C9.28908 57.3355 9.29559 57.2895 9.30211 57.2435L9.32167 57.0974C9.33471 56.9873 9.34449 56.8871 9.35264 56.7869L9.37057 56.4814C9.37383 56.4272 9.37383 56.378 9.37546 56.327C9.37546 56.2761 9.37546 56.2252 9.37872 56.1743C9.37872 56.1529 9.38198 56.1332 9.38524 56.1119C9.58573 54.995 9.68841 53.8091 9.69982 52.4869V52.188C9.69982 51.9876 9.69982 51.7872 9.68841 51.5869L9.64277 50.6589L9.55965 49.7539C9.54498 49.5568 9.51727 49.3679 9.48956 49.179C9.47326 49.0689 9.45859 48.9589 9.44392 48.8488L9.38198 48.3955C9.36895 48.3118 9.35101 48.2198 9.33308 48.1262L9.24344 47.6482C9.20758 47.4511 9.17009 47.254 9.13097 47.0569C9.09022 46.8927 9.04621 46.7071 9.00384 46.5231C8.90441 46.0993 8.8115 45.6986 8.68599 45.306L8.1856 43.5847C8.13018 43.404 8.08781 43.2135 8.04706 43.0214C8.02587 42.9244 8.00468 42.8275 7.98186 42.7323L7.80582 41.8601C7.70966 41.3772 7.64609 40.8763 7.58415 40.3934L7.532 39.9319C7.48473 39.4178 7.43582 38.8872 7.41627 38.3551C7.36248 37.2136 7.36737 36.0244 7.42931 34.8221C7.48962 33.6625 7.60534 32.4767 7.76997 31.2941C7.84657 30.7439 7.93785 30.1756 8.05032 29.5531C8.14974 29.0127 8.29644 28.4641 8.48877 27.9172L8.89137 26.7723C8.95494 26.5851 9.02014 26.3979 9.08044 26.209C9.25485 25.6834 9.42925 25.1134 9.61669 24.4597C9.79762 23.8208 9.94431 23.2394 10.0617 22.6793C10.1269 22.3771 10.1839 22.0716 10.2361 21.7612C10.2605 21.61 10.2833 21.454 10.3045 21.2947L10.3502 20.8594C10.3502 20.8348 10.3502 20.8019 10.3485 20.7675C10.3437 20.6919 10.3306 20.6229 10.3094 20.5539C10.2263 20.2747 10.0193 20.0464 9.75361 19.9396C9.68515 19.9117 9.6167 19.892 9.54824 19.8822C9.50912 19.8756 9.47652 19.8723 9.44229 19.8707L9.2793 19.8641C9.17009 19.8641 9.03806 19.8493 8.90441 19.8345C8.63384 19.8 8.36816 19.7491 8.11062 19.6818C7.61349 19.5537 7.08702 19.3681 6.55076 19.1283C5.53694 18.6766 4.54267 18.0656 3.67391 17.3642C3.18819 16.9701 2.79211 16.5956 2.4596 16.2145C2.04886 15.7448 1.74895 15.3046 1.56639 14.9055C1.44415 14.664 1.38221 14.4242 1.34146 14.2452L1.31538 14.0957C1.31049 14.0711 1.30886 14.0464 1.30886 14.0218C1.30886 14.0005 1.30886 13.9775 1.3056 13.9561C1.29908 13.9085 1.29908 13.8608 1.30071 13.805V11.8981V11.8422C1.30071 11.8258 1.30397 11.7913 1.3056 11.7765C1.32353 11.568 1.38058 11.4037 1.47512 11.2493C1.59573 11.0752 1.73102 10.9553 1.88097 10.8732C2.06841 10.7829 2.22326 10.7451 2.40256 10.7418L6.99737 10.7221C7.11147 10.6958 7.16852 10.6794 7.23209 10.658L7.33803 10.6219C7.39345 10.6022 7.44723 10.5841 7.49776 10.5611C7.66239 10.4938 7.80419 10.4248 7.94274 10.3476C8.22309 10.1948 8.48388 10.0076 8.72511 9.79079C9.20106 9.36375 9.58247 8.83159 9.82859 8.24687L10.003 7.78369C10.0356 7.66543 10.0763 7.5094 10.1171 7.355L10.135 7.28438C10.1513 7.21868 10.1823 7.15955 10.2214 7.10699C10.2247 7.1037 10.2279 7.09878 10.2296 7.09549C10.2524 7.06265 10.2785 7.03144 10.3078 7.00516C10.3746 6.93946 10.4936 6.84912 10.7593 6.72265C10.981 6.6356 11.1896 6.56169 11.4325 6.51406C12.2328 6.33995 13.2596 6.31532 14.3892 6.44507C15.3981 6.56004 16.3924 6.79656 17.3459 7.14641C18.0908 7.42235 19.1225 7.90687 19.8039 8.64763L20.0972 9.0254C20.1413 9.08782 20.1836 9.15023 20.2276 9.21757L20.3026 9.33747C20.3434 9.40153 20.3841 9.46722 20.4232 9.53457L20.6074 9.85978C20.834 10.2803 21.054 10.7385 21.2855 11.2674C21.7142 12.2742 22.063 13.2728 22.3238 14.237C22.6334 15.3801 22.8274 16.3837 22.9171 17.3051C22.9806 17.8488 22.9855 18.3842 22.9822 18.8326C22.9578 19.3122 22.9236 19.8427 22.803 20.3421C22.7149 20.705 22.565 21.2388 22.2928 21.6922C22.0548 22.0929 21.7516 22.4362 21.3931 22.7105C21.0247 22.9684 20.6025 23.1605 20.1184 23.2952C20.0337 23.3166 19.9554 23.3314 19.8772 23.3445L19.6735 23.3823C19.5691 23.4036 19.4648 23.4233 19.3507 23.4266L19.266 23.4348C19.0606 23.4545 18.8471 23.4726 18.627 23.4628C18.4722 23.4726 18.2896 23.4513 18.1283 23.4316L17.9571 23.4135C17.9343 23.4118 17.9115 23.4086 17.8887 23.402L17.7534 23.3708C17.5871 23.3346 17.3981 23.2919 17.2155 23.2131C16.7901 23.0538 16.4038 22.7992 16.0908 22.4625C15.3655 21.707 15.139 20.5835 15.0786 19.7738C15.0477 19.3155 15.0656 18.8146 15.1324 18.243C15.1895 17.7864 15.2905 17.3051 15.4503 16.7253C16.0892 14.5967 17.2742 12.767 18.79 11.563L19.3817 12.3054C18.0093 13.396 16.9368 15.0582 16.3565 16.9898C16.2131 17.5137 16.1202 17.9523 16.0697 18.3596C16.0093 18.8688 15.993 19.3122 16.0208 19.7064C16.0892 20.6246 16.3565 21.3719 16.7738 21.8055C16.9906 22.0387 17.2563 22.2128 17.5692 22.3295C17.6898 22.382 17.8186 22.4099 17.9555 22.4411L18.0712 22.4674C18.1266 22.4723 18.1804 22.4789 18.2358 22.4855C18.3728 22.5019 18.5032 22.5167 18.6287 22.5101C18.8275 22.5183 18.997 22.5019 19.1796 22.4855L19.2921 22.4756C19.3752 22.4723 19.4306 22.4592 19.486 22.4477L19.7126 22.405C19.768 22.3951 19.8218 22.3853 19.8739 22.3722C20.2439 22.2687 20.5716 22.1225 20.834 21.9385C21.0801 21.7497 21.3018 21.4967 21.4794 21.1978C21.6375 20.9366 21.7631 20.5934 21.8804 20.1137C21.9815 19.6949 22.0124 19.217 22.0336 18.8014C22.0369 18.4023 22.032 17.9046 21.9733 17.402C21.8886 16.5266 21.7044 15.5756 21.4094 14.4833C21.1583 13.5603 20.8242 12.6044 20.4151 11.6402C20.1967 11.1393 19.988 10.7057 19.7778 10.3164L19.6017 10.006C19.5708 9.95176 19.5349 9.89591 19.4991 9.83843L19.4224 9.7136C19.3915 9.66597 19.3573 9.61505 19.323 9.56577L19.0916 9.2652C18.6776 8.81681 17.9359 8.37169 17.0199 8.0317C16.1365 7.70813 15.2156 7.48969 14.2816 7.38128C13.2531 7.26467 12.3322 7.28274 11.6215 7.43877C11.4308 7.47655 11.2662 7.53567 11.1277 7.58988C11.0804 7.61287 11.0413 7.63422 11.0119 7.65229C10.9728 7.80011 10.9369 7.93808 10.8962 8.07605L10.7039 8.59179C10.3958 9.32269 9.93127 9.97475 9.35264 10.4921C9.05925 10.7582 8.73652 10.9882 8.39586 11.1738C8.22798 11.2674 8.05358 11.3528 7.86287 11.43C7.80257 11.4563 7.72596 11.4842 7.64935 11.5121L7.51406 11.5581C7.42931 11.5844 7.35433 11.609 7.20112 11.6435L7.09843 11.6665C7.0642 11.6747 7.0316 11.678 6.99574 11.678L2.40744 11.6862C2.37648 11.6862 2.35529 11.6911 2.30965 11.7125C2.30639 11.7141 2.28194 11.7388 2.26238 11.7667C2.25912 11.7716 2.25097 11.793 2.24771 11.8143C2.24771 11.8291 2.24771 11.8439 2.24771 11.8505V11.8932V13.8444C2.25097 13.8838 2.25423 13.9216 2.25586 13.961L2.27053 14.053C2.29498 14.1614 2.33573 14.3175 2.41722 14.4801C2.57044 14.8118 2.81982 15.1748 3.17026 15.5756C3.46528 15.9139 3.8255 16.2523 4.26721 16.612C5.07241 17.2608 5.99659 17.8274 6.93707 18.2479C7.42605 18.4663 7.90036 18.6355 8.34859 18.7505C8.56864 18.808 8.79194 18.8507 9.01687 18.8786C9.11304 18.8885 9.2141 18.9 9.30863 18.9016L9.48304 18.9082C9.55802 18.9115 9.62973 18.9197 9.70145 18.9312C9.83511 18.9525 9.97528 18.9903 10.1089 19.0461C10.6387 19.2597 11.0543 19.7163 11.2173 20.2698C11.258 20.4061 11.2841 20.549 11.2939 20.6886C11.2988 20.756 11.3004 20.8266 11.2972 20.8972L11.2466 21.4031C11.2238 21.5772 11.1994 21.7431 11.1717 21.9073C11.1162 22.2358 11.0559 22.5545 10.9891 22.8698C10.8669 23.4496 10.7169 24.0524 10.5278 24.7143C10.3371 25.3828 10.1578 25.9659 9.98017 26.498C9.91986 26.6886 9.85304 26.8807 9.78784 27.0746L9.38198 28.2276C9.20758 28.7252 9.07229 29.2262 8.98265 29.7157C8.87344 30.3234 8.78379 30.8818 8.70882 31.4189C8.54745 32.5736 8.43498 33.7315 8.37467 34.8632C8.31437 36.0326 8.30948 37.1922 8.36327 38.3058C8.38283 38.8183 8.43009 39.3356 8.47573 39.8366L8.52463 40.2636C8.58494 40.7317 8.64688 41.2163 8.73815 41.6745L8.90441 42.5056C8.92723 42.6009 8.95005 42.706 8.97287 42.8095C9.00873 42.9754 9.04458 43.1429 9.09348 43.3039L9.59224 45.0202C9.7259 45.4391 9.82696 45.876 9.92639 46.2997C9.96876 46.4804 10.0111 46.6594 10.0551 46.8385C10.1008 47.0602 10.1399 47.2639 10.1774 47.4675L10.2654 47.9422C10.285 48.044 10.3029 48.1459 10.3208 48.2477L10.386 48.7191C10.3991 48.8291 10.4154 48.9343 10.43 49.0377C10.461 49.248 10.4903 49.4566 10.5066 49.6684L10.5898 50.5866L10.6354 51.5343C10.6468 51.7495 10.6468 51.9663 10.6468 52.1831V52.4804C10.6354 53.8518 10.5311 55.0788 10.3241 56.24V56.3336C10.3208 56.4009 10.3192 56.4683 10.3159 56.5373L10.298 56.8493C10.2882 56.9709 10.2768 57.0842 10.2638 57.1959C10.2605 57.2288 10.254 57.2764 10.2475 57.3224C10.2328 57.4275 10.223 57.4932 10.2084 57.572L10.1611 57.8118C10.1366 57.9383 10.0617 58.0484 9.95409 58.119L9.41784 58.4688C9.37872 58.4935 9.30211 58.5345 9.22551 58.5756L9.08044 58.6561C9.03644 58.6807 8.9908 58.707 8.94679 58.7349C8.78379 58.8384 8.63058 58.9419 8.48551 59.0535C8.22309 59.2441 7.97208 59.4724 7.68521 59.7812C7.19297 60.3347 6.83764 60.9342 6.63552 61.5567L6.60129 61.6864C6.58173 61.7603 6.56218 61.8343 6.54262 61.9065L8.40075 61.9607C9.32167 61.9903 10.241 62.0166 11.1619 62.0346L13.0543 62.0576L13.1406 62.0544C13.1651 62.0527 13.2107 62.0379 13.258 62.0133C13.3346 61.9739 13.3933 61.8917 13.4161 61.7981V61.7932C13.4194 61.7768 13.4226 61.7603 13.4259 61.7456L13.5709 60.5646L13.9002 57.7872C14.0909 56.148 14.3321 54.205 14.6712 52.2209C14.9971 50.3024 15.3851 48.3693 15.7225 46.7071C16.3451 43.6931 17.2139 39.7249 18.4282 35.7534C18.9302 34.1257 19.5659 32.2122 20.4607 30.3332C20.8992 29.4479 21.3865 28.5183 22.1526 27.6412C22.3612 27.4047 22.5943 27.1846 22.847 26.9809C23.1469 26.7608 23.468 26.549 23.8852 26.4126C24.0711 26.3371 24.3058 26.3026 24.5111 26.273C24.5291 26.2697 24.56 26.2665 24.5796 26.2665C24.8225 26.2599 25.0539 26.255 25.2935 26.3108L25.7695 26.4356L26.1248 26.549C26.1509 26.5572 26.1769 26.5687 26.2014 26.5818C27.9242 27.495 29.872 30.1821 31.1597 31.9593C31.3846 32.2697 31.59 32.5522 31.7693 32.7937C31.9779 33.0877 32.2273 33.426 32.5125 33.8136C33.0537 34.5495 33.7089 35.4397 34.4147 36.4531C34.4636 36.4104 34.5141 36.3677 34.563 36.3233L36.7634 34.4246C37.3747 33.8908 38.1375 33.2256 38.8481 32.5062C39.1236 32.227 39.4838 31.846 39.831 31.3943C40.1244 31.005 40.4276 30.5599 40.6427 29.9637L40.897 29.1079C40.9394 28.9601 40.9883 28.7926 41.0632 28.6267L41.1464 28.4197C41.192 28.3048 41.2376 28.1898 41.2865 28.0765L41.5718 27.5131C41.9793 26.7789 42.478 26.1039 43.1039 25.4354C43.632 24.8687 44.2237 24.3415 44.8496 23.7847L45.0729 23.5859C45.1886 23.4841 45.306 23.3741 45.425 23.264L45.6075 23.0948C45.663 23.0439 45.72 22.9848 45.7787 22.9257L45.9612 22.7417C46.0134 22.6908 46.0655 22.6399 46.1177 22.5758L46.4013 22.244C46.4567 22.18 46.5089 22.1028 46.561 22.0256L46.7697 21.7201C46.7795 21.702 46.8039 21.6511 46.83 21.6002L47.0451 21.1518C47.1592 20.8775 47.3777 20.5293 47.6531 20.1794C47.8895 19.8772 48.1763 19.5569 48.5072 19.2301C48.8267 18.9147 49.1804 18.5977 49.5602 18.2857C49.7134 18.1608 49.9253 18.1428 50.0964 18.243C50.2659 18.3432 50.3572 18.5386 50.3246 18.7341C50.2545 19.1447 50.1795 19.557 50.1045 19.961L49.9334 20.8726L50.8397 20.9744C51.6074 21.0615 52.2773 21.2914 52.8331 21.6593C53.3921 22.0059 53.9105 22.5413 54.3228 23.1983L54.5853 23.6697L54.8037 24.1871C54.9879 24.693 55.2079 25.1003 55.4182 25.4666C55.7588 26.0497 56.1354 26.6032 56.5999 27.206C56.6993 27.3357 56.727 27.5082 56.67 27.6626C56.6406 27.7414 56.6113 27.8219 56.5722 27.9057C56.5412 27.9845 56.4988 28.0798 56.4483 28.1734C56.2658 28.5429 56.0571 28.8813 55.8305 29.1687C55.5844 29.4791 55.3155 29.7436 55.0319 29.9555C54.745 30.1624 54.4369 30.3037 54.0865 30.3924C54.0702 30.3973 54.0523 30.4006 54.0344 30.4022C53.9757 30.4104 53.9186 30.4186 53.86 30.4318C53.8485 30.4351 53.8094 30.4416 53.798 30.4433L53.6252 30.4646C53.5437 30.4761 53.4916 30.4811 53.4378 30.4958C53.1411 30.555 52.8559 30.6683 52.6082 30.821C51.9953 31.1955 51.6677 31.7753 51.5259 32.0874C51.327 32.521 51.1982 32.9842 51.1184 33.5476C51.0858 33.7808 51.0646 34.0173 51.0548 34.2686C51.0499 34.3901 51.0483 34.5117 51.0483 34.6332L51.0515 34.8188C51.0548 34.8862 51.0564 34.9338 51.0613 35.0126L51.076 35.1096C51.4982 36.8571 51.9268 39.1303 51.4916 41.2261C51.1901 42.7438 50.4142 44.1678 49.5911 45.674C49.3662 46.0879 49.1364 46.5067 48.9147 46.9337C48.7843 47.1752 48.6621 47.415 48.5414 47.6581L48.4061 47.9274C48.3295 48.0785 48.2529 48.228 48.1812 48.3824L47.6727 49.4976L47.5129 49.9017C47.3271 50.3271 47.2033 50.7656 47.0745 51.2321L46.9832 51.5819C46.8773 52.1256 46.7795 52.6397 46.7599 53.1653C46.6866 54.315 46.8332 55.4746 47.1804 56.5323L47.3206 56.9282L47.4869 57.3421C47.5195 57.4144 47.5618 57.4998 47.6042 57.5852L47.6678 57.7166C47.7265 57.8414 47.7884 57.9597 47.8569 58.0746C47.984 58.3046 48.1274 58.5329 48.3198 58.8105L48.4045 58.9238C48.4567 58.9961 48.5105 59.0683 48.5691 59.1406C48.6669 59.2621 48.7468 59.3591 48.8756 59.4921L48.9995 59.6186L49.1918 59.6218C49.7688 59.6333 50.2529 59.7155 50.631 59.8666L50.7598 59.9175C50.7826 59.9257 50.8054 59.9372 50.8282 59.9503L50.944 60.0193C51.0043 60.0522 51.0662 60.0834 51.1282 60.1376C51.1493 60.154 51.1754 60.1754 51.2031 60.1967C51.2504 60.2246 51.3172 60.2854 51.3792 60.361C51.3824 60.3626 51.4069 60.3872 51.4313 60.4102C51.4509 60.4299 51.4688 60.4513 51.4851 60.4726L51.5601 60.5761C51.5813 60.604 51.6237 60.6582 51.6612 60.7322C51.7769 60.9194 51.8453 61.1296 51.9105 61.3464C51.9774 61.6388 52.01 61.8737 52.0197 62.102V62.1726C52.0246 62.2761 52.0279 62.3812 52.023 62.4896C52.0116 62.7442 51.803 62.961 51.5503 62.961L45.2343 62.9528C44.9735 62.9528 44.7616 62.7393 44.7616 62.4765C44.7616 62.2137 44.9719 62.0001 45.2326 62.0001L51.0662 62.0084C51.0532 61.8803 51.0304 61.7423 50.9978 61.5895C50.957 61.4581 50.9114 61.3136 50.8527 61.2249C50.8397 61.2052 50.8282 61.1822 50.8168 61.1608L50.75 61.0722C50.7223 61.0459 50.6962 61.018 50.6701 60.99C50.5984 60.9309 50.5593 60.898 50.5186 60.8652C50.5072 60.8652 50.4794 60.8504 50.4534 60.8323L50.2855 60.7535C50.01 60.6435 49.6384 60.5827 49.1739 60.5745L48.7876 60.5663C48.6637 60.5646 48.5463 60.5121 48.4599 60.4234L48.2089 60.1671C48.0443 59.9963 47.9514 59.883 47.8422 59.7483C47.7737 59.6678 47.7085 59.5775 47.6433 59.4888L47.5569 59.3722C47.3336 59.0519 47.1739 58.7957 47.0403 58.5526C46.9636 58.4261 46.887 58.2799 46.817 58.1288L46.7583 58.0106C46.711 57.9137 46.6621 57.8168 46.6181 57.7166L46.2823 56.828C45.8993 55.6618 45.7379 54.3774 45.8178 53.1193C45.839 52.5313 45.9515 51.9581 46.0574 51.4013L46.077 51.3011L46.1666 50.9742C46.3003 50.4979 46.4372 50.0035 46.6442 49.5321L46.9767 48.7273L47.3271 47.9783C47.4021 47.8157 47.4836 47.6548 47.5651 47.4938L47.6971 47.231C47.8243 46.9781 47.9498 46.7284 48.0818 46.4853C48.3035 46.0583 48.5349 45.6345 48.7631 45.2157C49.5487 43.7736 50.292 42.412 50.5658 41.0356C50.9619 39.1221 50.556 36.9836 50.1583 35.3346L50.1371 35.2475C50.1306 35.2229 50.1274 35.1966 50.1257 35.1703L50.1192 35.0833C50.1127 34.988 50.1094 34.9338 50.1078 34.8665L50.1029 34.6431C50.1029 34.4986 50.1029 34.3639 50.1094 34.2292C50.1209 33.9483 50.1437 33.6806 50.1812 33.4145C50.2741 32.7559 50.4289 32.2089 50.6652 31.6916C50.9864 30.982 51.5014 30.3841 52.1143 30.008C52.4598 29.7945 52.8461 29.6434 53.2308 29.5662C53.296 29.5498 53.3824 29.5366 53.4704 29.5251L53.6872 29.4972C53.7442 29.4841 53.8111 29.4726 53.8779 29.4627C54.1028 29.4019 54.2984 29.3116 54.4744 29.1851C54.6863 29.0275 54.895 28.8205 55.0889 28.5758C55.2731 28.3409 55.4459 28.06 55.604 27.7398C55.635 27.679 55.6594 27.6248 55.6839 27.5706C55.2682 27.0187 54.921 26.4964 54.5983 25.9462C54.3766 25.5602 54.124 25.0905 53.917 24.5238L53.7344 24.0869L53.516 23.696C53.1868 23.1704 52.7711 22.7401 52.3229 22.4625C51.8812 22.1701 51.3498 21.9895 50.7321 21.9205L49.3205 21.7612C49.1901 21.7464 49.0712 21.6774 48.9929 21.5706C48.9147 21.4639 48.8837 21.3292 48.9082 21.1994L49.1461 19.9298C48.8544 20.2205 48.6001 20.503 48.3931 20.7691C48.1698 21.0516 47.9954 21.3275 47.9106 21.5279L47.671 22.0305C47.6368 22.0979 47.6026 22.1652 47.5667 22.2276L47.3385 22.5643C47.2652 22.6711 47.1902 22.7795 47.1152 22.8665L46.8398 23.1885C46.7713 23.2706 46.6996 23.3445 46.6262 23.4168L46.4502 23.5942C46.3818 23.6631 46.3133 23.7338 46.2465 23.7945L46.0672 23.9604C45.9417 24.077 45.8162 24.1937 45.6972 24.2988L45.4755 24.4959C44.8659 25.0379 44.2905 25.5503 43.7934 26.0858C43.2213 26.6984 42.7665 27.3111 42.4063 27.9615L42.1423 28.4822C42.1097 28.5594 42.0689 28.6645 42.0265 28.7696L41.932 29.0078C41.8782 29.1244 41.844 29.2443 41.8081 29.3707L41.5408 30.2626C41.2735 31.0066 40.9068 31.5421 40.5824 31.9724C40.2026 32.4684 39.8147 32.8758 39.5213 33.1764C38.7862 33.922 38.0087 34.6004 37.3828 35.144L35.1824 37.0444C35.1058 37.1101 35.0308 37.1758 34.9591 37.2398C36.3608 39.3061 37.893 41.7928 39.0943 44.4503C39.1008 44.4651 39.1073 44.4815 39.1122 44.4979C40.2059 47.8075 40.9361 51.4571 41.2817 55.3448C41.4479 57.2107 41.5294 59.0782 41.5229 60.8948V61.6684L41.5213 61.7521C41.5229 61.7686 41.5164 61.8228 41.5082 61.877C41.4903 62.0001 41.4561 62.0954 41.4267 62.1775C41.2507 62.5898 40.9149 62.8854 40.5188 62.9922C40.4341 63.0152 40.3281 63.0398 40.2059 63.0431L39.8864 63.048L39.1953 63.053L39.1937 63.0661ZM23.1925 61.8786L28.0025 61.9032C29.4075 61.9098 30.8598 61.9164 32.2909 61.9624L33.7252 62.01C35.065 62.056 36.4505 62.102 37.8099 62.1135H39.1888L40.1651 62.1053C40.2043 62.1053 40.2401 62.0938 40.2695 62.0872C40.3836 62.056 40.4944 61.9558 40.5449 61.8375C40.5449 61.8359 40.5629 61.7866 40.5661 61.7636L41.0421 61.7784L40.5743 61.716L40.5775 61.6503L40.5743 60.9095C40.5808 59.1193 40.5009 57.2813 40.3363 55.445C39.9989 51.6394 39.2866 48.0703 38.219 44.8379C37.065 42.2904 35.5948 39.8957 34.237 37.887C33.8768 38.2089 33.5557 38.4996 33.2509 38.7838C30.2942 41.5185 28.0824 44.1809 26.4883 46.9239C25.6016 48.4481 24.8795 50.0511 24.3416 51.687C23.8086 53.318 23.4435 55.041 23.2545 56.8099C23.1681 57.6574 23.1175 58.5444 23.1061 59.4477V59.635C23.1078 60.0128 23.1094 60.3889 23.1273 60.7666C23.1338 60.9917 23.142 61.2085 23.1583 61.4269L23.1876 61.8786H23.1925ZM23.2056 62.0724V62.0921C23.2056 62.0921 23.2056 62.079 23.2056 62.0724ZM10.9663 7.70321C10.9451 7.72949 10.9223 7.75248 10.8962 7.77383C10.8929 7.77548 10.8913 7.77876 10.8881 7.7804C10.9239 7.75741 10.9549 7.7262 10.981 7.69171C10.9777 7.69335 10.9744 7.69499 10.9728 7.69664C10.9712 7.69992 10.9679 7.70157 10.9663 7.70485V7.70321ZM11.0413 7.57509C11.0543 7.5406 11.0641 7.50283 11.069 7.46341C11.0641 7.50118 11.0543 7.53896 11.0396 7.57509H11.0413Z" fill="white"/>
<path d="M11.3544 11.2575C11.7505 11.2575 12.0716 10.934 12.0716 10.5349C12.0716 10.1357 11.7505 9.81216 11.3544 9.81216C10.9583 9.81216 10.6372 10.1357 10.6372 10.5349C10.6372 10.934 10.9583 11.2575 11.3544 11.2575Z" fill="white"/>
<path d="M52.3993 25.5684C52.7954 25.5684 53.1165 25.2449 53.1165 24.8457C53.1165 24.4466 52.7954 24.123 52.3993 24.123C52.0032 24.123 51.6821 24.4466 51.6821 24.8457C51.6821 25.2449 52.0032 25.5684 52.3993 25.5684Z" fill="white"/>
</g>
<defs>
<clipPath id="clip0_6_658">
<rect width="58" height="70" fill="white"/>
</clipPath>
</defs>
</svg>
