<svg width="24" height="24" viewBox="0 0 24 24" fill="none" xmlns="http://www.w3.org/2000/svg">
<g clip-path="url(#clip0_65_990)">
<path d="M13.5 6.50004C13.5 6.89787 13.342 7.2794 13.0607 7.5607C12.7793 7.84201 12.3978 8.00004 12 8.00004C11.6022 8.00004 11.2206 7.84201 10.9393 7.5607C10.658 7.2794 10.5 6.89787 10.5 6.50004C10.5 6.10222 10.658 5.72069 10.9393 5.43938C11.2206 5.15808 11.6022 5.00004 12 5.00004C12.3978 5.00004 12.7793 5.15808 13.0607 5.43938C13.342 5.72069 13.5 6.10222 13.5 6.50004ZM24 19V12.34C24.0373 9.25749 22.9071 6.27494 20.8363 3.99121C18.7655 1.70749 15.9075 0.29168 12.836 0.0280426C11.1216 -0.0918997 9.40153 0.157782 7.79203 0.760195C6.18253 1.36261 4.7212 2.3037 3.50691 3.51979C2.29262 4.73588 1.35369 6.19861 0.753667 7.809C0.15364 9.41939 -0.0934914 11.1399 0.0289922 12.854C0.470992 19.208 6.08199 24 13.083 24H19C20.3256 23.9985 21.5964 23.4712 22.5338 22.5338C23.4711 21.5965 23.9984 20.3256 24 19ZM12.7 2.02404C15.2665 2.25108 17.6519 3.44095 19.3771 5.3546C21.1023 7.26824 22.0393 9.76386 22 12.34V19C22 19.7957 21.6839 20.5588 21.1213 21.1214C20.5587 21.684 19.7956 22 19 22H13.083C7.04899 22 2.39999 18.1 2.02499 12.716C1.92654 11.3446 2.11197 9.96764 2.56968 8.67111C3.02738 7.37458 3.74755 6.18637 4.68517 5.18071C5.62279 4.17506 6.75772 3.37356 8.01906 2.82629C9.2804 2.27902 10.641 1.99775 12.016 2.00004C12.243 2.00004 12.472 2.00904 12.7 2.02404ZM14 18V12C14 11.4696 13.7893 10.9609 13.4142 10.5858C13.0391 10.2108 12.5304 10 12 10H11C10.7348 10 10.4804 10.1054 10.2929 10.2929C10.1054 10.4805 9.99999 10.7348 9.99999 11C9.99999 11.2653 10.1054 11.5196 10.2929 11.7072C10.4804 11.8947 10.7348 12 11 12H12V18C12 18.2653 12.1054 18.5196 12.2929 18.7072C12.4804 18.8947 12.7348 19 13 19C13.2652 19 13.5196 18.8947 13.7071 18.7072C13.8946 18.5196 14 18.2653 14 18Z" fill="#DBDBDB"/>
</g>
<defs>
<clipPath id="clip0_65_990">
<rect width="24" height="24" fill="white"/>
</clipPath>
</defs>
</svg>
