<svg width="446" height="380" viewBox="0 0 446 380" fill="none" xmlns="http://www.w3.org/2000/svg">
<path d="M189.246 133.936L189.789 119.729L181.004 116.91C180.679 112.029 179.811 107.258 178.618 102.594L185.993 97.1717L181.004 83.8323L171.786 84.5915C169.617 80.2534 167.014 76.1323 164.194 72.2281L168.966 64.3112L159.205 53.8999L150.963 58.1295C147.276 54.9844 143.372 52.1647 139.251 49.6704L140.552 40.5605L127.538 34.7042L121.573 41.645C117.018 40.1267 112.355 39.0422 107.475 38.3915L105.306 29.4986L90.9901 28.9563L88.1703 37.7408C83.2901 38.1746 78.5182 38.9338 73.8549 40.1267L68.3239 32.7521L54.9845 37.7408L55.7436 46.9591C51.4056 49.1281 47.2845 51.7309 43.3802 54.6591L35.4634 49.8873L25.0521 59.6478L29.2817 67.8901C26.1366 71.5774 23.3169 75.4816 20.8225 79.6027L11.7127 78.1929L5.74789 91.2069L12.7972 97.1717C11.2789 101.727 10.1944 106.498 9.54366 111.27L0.542253 113.548L0 127.755L8.7845 130.575C9.10985 135.455 9.97746 140.227 11.1704 144.89L3.79577 150.313L8.7845 163.652L18.0028 162.893C20.1718 167.231 22.7746 171.352 25.5943 175.256L20.8225 183.173L30.5831 193.584L38.8253 189.355C42.5126 192.5 46.4169 195.32 50.538 197.814L49.1281 206.924L62.1422 212.78L68.107 205.839C72.6619 207.358 77.3253 208.442 82.2056 209.093L84.3746 217.986L98.6901 218.528L101.51 209.743C106.39 209.31 111.162 208.55 115.825 207.358L121.248 214.732L134.587 209.743L133.937 200.525C138.275 198.356 142.396 195.753 146.3 192.825L154.217 197.597L164.628 187.836L160.398 179.594C163.544 175.907 166.363 172.003 168.858 167.882L177.967 169.291L183.932 156.277L176.883 150.313C178.401 145.758 179.486 141.094 180.136 136.214L189.246 133.936ZM92.9422 180.028C61.7084 178.943 37.307 152.807 38.3915 121.573C39.476 90.3393 65.6126 65.938 96.8464 66.914C128.08 67.9985 152.482 94.1351 151.397 125.369C150.313 156.711 124.176 181.112 92.9422 180.028Z" fill="#EBEBEB"/>
<path d="M433.152 86.7606L436.731 83.3986L435.321 80.5789C436.405 79.2775 437.381 77.9761 438.249 76.5662L441.394 77L443.455 72.5535L441.069 70.493C441.611 68.8662 441.936 67.2394 442.262 65.6127L445.407 64.8535L445.515 59.9733L442.478 58.9972C442.37 57.3705 442.045 55.6352 441.719 54.0085L444.214 52.1648L442.478 47.5014L439.333 47.7183C438.574 46.2 437.707 44.7902 436.731 43.4888L438.357 40.7775L434.995 37.1986L432.176 38.6085C430.874 37.524 429.573 36.5479 428.163 35.6803L428.597 32.5353L424.15 30.4747L422.09 32.8606C420.463 32.3184 418.836 31.993 417.209 31.7761L416.45 28.7395L411.57 28.5226L410.594 31.5592C408.967 31.6677 407.232 31.993 405.714 32.3184L403.87 29.7155L399.207 31.4508L399.424 34.5958C397.905 35.355 396.495 36.2226 395.194 37.1986L392.483 35.5719L388.904 38.9338L390.314 41.7536C389.229 43.055 388.253 44.3564 387.386 45.7662L384.24 45.3324L382.18 49.7789L384.566 51.8395C384.024 53.4662 383.698 55.093 383.373 56.7197L380.228 57.4789L380.119 62.3592L383.156 63.3352C383.264 64.962 383.59 66.6972 383.915 68.324L381.312 70.1676L383.048 74.831L386.193 74.6141C386.952 76.1324 387.819 77.5423 388.795 78.8437L387.169 81.5549L390.531 85.1338L393.35 83.7239C394.652 84.8085 395.953 85.7845 397.363 86.6521L396.929 89.7972L401.376 91.8577L403.436 89.4718C405.063 90.0141 406.69 90.3394 408.317 90.5563L409.076 93.5929L413.956 93.8098L414.932 90.7732C416.559 90.6648 418.294 90.3394 419.812 90.0141L421.656 92.6169L426.319 90.8817L426.102 87.7366C427.621 86.9775 429.031 86.1099 430.332 85.1338L433.152 86.7606ZM407.449 66.0465C404.846 63.2268 404.955 58.7803 407.774 56.1775C410.594 53.5747 415.04 53.6831 417.643 56.5028C420.246 59.3226 420.138 63.769 417.318 66.3719C414.607 68.9747 410.16 68.8662 407.449 66.0465Z" fill="#EBEBEB"/>
<path d="M301.926 233.06L290.756 225.36C289.671 221.239 288.153 217.335 286.201 213.648L289.021 202.369L272.753 184.908L261.257 186.969C257.678 184.8 253.883 183.065 249.87 181.655L242.929 169.942L219.07 169.075L211.37 180.245C207.249 181.33 203.345 182.848 199.657 184.8L188.379 181.98L170.918 198.248L172.979 209.635C170.81 213.214 169.074 217.01 167.664 221.022L155.952 227.963L155.084 251.822L166.363 259.522C167.448 263.644 168.966 267.548 170.81 271.235L167.99 282.514L184.257 299.974L195.645 297.914C199.224 300.083 203.019 301.818 207.032 303.228L213.973 314.941L237.832 315.808L245.532 304.638C249.653 303.553 253.557 302.035 257.353 300.083L268.524 302.903L285.984 286.635L283.924 275.248C286.093 271.669 287.828 267.873 289.238 263.86L300.95 256.92L301.926 233.06ZM227.638 269.283C212.78 268.741 201.284 256.377 201.718 241.628C202.26 226.77 214.624 215.275 229.373 215.708C244.231 216.251 255.726 228.614 255.293 243.363C254.859 258.221 242.495 269.825 227.638 269.283Z" fill="#EBEBEB"/>
<path d="M327.412 165.496L308.542 164.845C307.783 164.845 307.023 164.411 306.698 163.76L301.601 155.193C298.89 154.217 296.287 153.024 293.684 151.505L285.55 153.024C284.791 153.132 284.032 152.915 283.49 152.373L270.692 138.6C270.15 138.058 269.933 137.19 270.15 136.431L272.211 128.406C271.018 125.911 269.933 123.091 269.066 120.272L260.932 114.632C260.281 114.198 259.956 113.439 259.956 112.68L260.607 93.9182C260.607 93.1591 261.04 92.3999 261.691 92.0746L270.259 86.9774C271.235 84.1577 272.536 81.5548 273.946 79.1689L272.428 71.0351C272.319 70.276 272.536 69.5168 273.078 68.9746L286.852 56.1774C287.394 55.6352 288.261 55.4183 289.021 55.6352L297.046 57.6957C299.649 56.3943 302.36 55.4183 305.071 54.5506L310.711 46.4169C311.145 45.7661 311.904 45.3324 312.663 45.4408L331.425 46.0915C332.184 46.0915 332.943 46.5253 333.268 47.176L338.366 55.7436C341.077 56.7197 343.68 57.9126 346.174 59.4309L354.416 57.9126C355.175 57.8042 355.935 58.0211 356.477 58.5633L369.274 72.3366C369.816 72.8788 370.033 73.7464 369.816 74.5056L367.756 82.5309C369.057 85.1337 370.033 87.845 370.901 90.5562L379.035 96.1957C379.685 96.6295 380.011 97.3886 380.011 98.1478L379.36 116.91C379.36 117.669 378.926 118.428 378.275 118.753L369.708 123.851C368.732 126.67 367.43 129.273 366.021 131.659L367.539 139.793C367.647 140.552 367.43 141.311 366.888 141.853L353.223 154.651C352.681 155.193 351.813 155.41 351.054 155.193L343.029 153.132C340.426 154.434 337.606 155.41 334.895 156.277L329.256 164.411C328.93 165.062 328.171 165.496 327.412 165.496ZM310.06 160.29L326.328 160.832L331.75 153.024C332.075 152.59 332.509 152.265 333.052 152.156C336.088 151.397 339.016 150.204 341.944 148.794C342.378 148.577 343.029 148.469 343.571 148.577L351.163 150.529L363.092 139.467L361.682 131.659C361.574 131.117 361.682 130.575 362.008 130.032C363.526 127.429 364.936 124.61 366.021 121.573C366.237 121.031 366.563 120.597 366.997 120.272L375.13 115.391L375.673 99.1239L367.864 93.7013C367.43 93.376 367.105 93.0506 366.997 92.5084C366.997 92.3999 366.997 92.3999 366.997 92.2915C366.129 89.2548 365.044 86.3267 363.635 83.507C363.418 82.9647 363.309 82.4225 363.418 81.8802L365.37 74.1802L354.199 62.2506L346.391 63.6605C345.849 63.769 345.306 63.6605 344.764 63.3352C342.053 61.7084 339.233 60.407 336.305 59.3225C336.088 59.214 335.98 59.214 335.871 59.1056C335.546 58.8887 335.329 58.6718 335.112 58.3464L330.232 50.2126L313.964 49.6704L308.542 57.4788C308.216 57.9126 307.783 58.238 307.24 58.4549C304.204 59.3225 301.275 60.407 298.456 61.8168C297.914 62.0337 297.371 62.1422 296.829 62.0337L289.129 60.0816L277.199 71.2521L278.609 79.0605C278.718 79.6027 278.609 80.0365 278.392 80.4704C278.392 80.5788 278.284 80.5788 278.284 80.6873C276.657 83.2901 275.356 86.2182 274.271 89.2548C274.054 89.7971 273.729 90.2309 273.295 90.4478L265.161 95.3281L264.619 111.596L272.428 117.018C272.861 117.344 273.187 117.777 273.295 118.32C274.163 121.465 275.247 124.393 276.657 127.104C276.766 127.213 276.766 127.429 276.874 127.646C276.983 127.972 276.983 128.406 276.874 128.731L274.922 136.431L286.092 148.36L293.792 146.951C294.335 146.842 294.877 146.951 295.419 147.276C298.13 148.903 301.059 150.204 303.987 151.289C304.529 151.505 304.963 151.831 305.288 152.265L310.06 160.29ZM320.037 139.684C319.604 139.684 319.278 139.684 318.845 139.684C299.974 139.034 285.008 123.091 285.659 104.221C286.309 85.3506 302.252 70.4929 321.122 71.0351C339.992 71.6858 354.959 87.6281 354.308 106.498C353.982 115.608 350.078 124.176 343.463 130.358C337.064 136.431 328.822 139.684 320.037 139.684ZM320.037 75.5901C304.095 75.5901 290.864 88.2788 290.322 104.329C289.78 120.706 302.685 134.479 319.061 135.129C326.978 135.346 334.57 132.527 340.426 127.104C346.283 121.682 349.536 114.307 349.861 106.39C350.404 90.014 337.498 76.2408 321.122 75.5901C320.688 75.5901 320.363 75.5901 320.037 75.5901Z" fill="#EBEBEB"/>
<path d="M370.684 30.2577L362.984 28.1971L360.815 20.3887L363.852 17.3521L367.105 24.076L373.721 27.2211L370.684 30.2577Z" fill="#E0E0E0"/>
<path d="M371.226 25.052C372.636 23.6422 372.636 21.3647 371.226 19.9548C369.816 18.545 367.539 18.545 366.129 19.9548L370.033 14.0985L375.239 16.7013L376.324 22.1239L371.226 25.052Z" fill="#E0E0E0"/>
<path d="M363.31 18.0028L369.057 12.2549L376.866 14.3154L378.926 22.1239L373.179 27.8718L365.37 25.8112L363.31 18.0028ZM373.612 22.6661C375.022 21.2563 375.022 18.9788 373.612 17.569C372.203 16.1591 369.925 16.1591 368.515 17.569C367.105 18.9788 367.105 21.2563 368.515 22.6661C369.925 24.076 372.203 24.076 373.612 22.6661Z" fill="#F0F0F0"/>
<path d="M52.7068 237.832L56.9364 236.748L58.0209 232.518L56.3942 230.891L54.659 234.47L51.0801 236.205L52.7068 237.832Z" fill="#E0E0E0"/>
<path d="M52.4901 235.012C51.731 234.253 51.731 233.06 52.4901 232.301C53.2493 231.542 54.4422 231.542 55.2014 232.301L53.1408 229.156L50.3211 230.566L49.6704 233.494L52.4901 235.012Z" fill="#E0E0E0"/>
<path d="M56.7195 231.217L53.6829 228.18L49.5618 229.265L48.4773 233.386L51.5139 236.422L55.635 235.338L56.7195 231.217ZM51.1886 233.711C50.4294 232.952 50.4294 231.759 51.1886 231C51.9477 230.241 53.1407 230.241 53.8998 231C54.659 231.759 54.659 232.952 53.8998 233.711C53.1407 234.47 51.9477 234.47 51.1886 233.711Z" fill="#F0F0F0"/>
<path d="M37.7406 9.00139L41.211 12.4718C42.0786 13.3394 43.5969 13.3394 44.4645 12.4718C45.3321 11.6042 45.3321 10.0859 44.4645 9.2183L40.9941 5.74787C40.1265 4.88027 38.6082 4.88027 37.7406 5.74787C36.7645 6.61548 36.7645 8.02533 37.7406 9.00139Z" fill="#F0F0F0"/>
<path d="M35.2461 0.325314C37.9574 -0.650742 40.7771 0.650672 41.7532 3.14504C42.6208 5.6394 41.2109 8.45911 38.4997 9.43517C35.7884 10.4112 32.9687 9.10982 31.9926 6.61545C31.125 4.12109 32.5349 1.30137 35.2461 0.325314Z" fill="#E0E0E0"/>
<path d="M31.4436 6.0417L31.9568 7.47058L42.2651 3.76829L41.7519 2.33941L31.4436 6.0417Z" fill="#F0F0F0"/>
<path d="M226.011 379.686C342.149 379.686 436.297 374.199 436.297 367.431C436.297 360.663 342.149 355.176 226.011 355.176C109.874 355.176 15.7256 360.663 15.7256 367.431C15.7256 374.199 109.874 379.686 226.011 379.686Z" fill="#F5F5F5"/>
<path d="M48.9113 46.8508C47.8268 42.079 48.2606 38.0663 50.3212 34.8128C52.3818 31.5593 55.7437 29.3903 60.5156 28.3058C65.3958 27.2212 69.4085 27.6551 72.662 29.7156C75.9155 31.7762 78.0846 35.1381 79.0606 39.8015C79.8198 43.2719 79.9282 46.2001 79.2775 48.586C78.6268 51.0804 77.3254 53.1409 75.4817 54.8761C73.5296 56.6114 71.0353 57.8043 67.7817 58.5635C64.5282 59.3226 61.6001 59.4311 59.2141 58.8888C56.8282 58.3466 54.6592 57.0452 52.8156 55.093C50.9719 53.0325 49.6705 50.3212 48.9113 46.8508ZM58.0212 44.8987C58.6719 47.8269 59.7564 49.8874 61.1663 50.8635C62.5761 51.948 64.2029 52.1649 66.0465 51.7311C67.9986 51.2973 69.3001 50.3212 70.1677 48.8029C71.0353 47.2846 70.9268 44.8987 70.1677 41.6452C69.517 38.9339 68.5409 36.9818 67.131 36.0057C65.7212 35.0297 64.0944 34.7043 62.1423 35.1381C60.2987 35.5719 58.9973 36.548 58.2381 38.0663C57.3705 39.6931 57.262 41.8621 58.0212 44.8987Z" fill="#263238"/>
<path d="M83.5072 43.272C82.748 40.0185 83.2903 37.0903 84.917 34.4875C86.6522 31.8847 89.3635 30.1495 93.0508 29.2819C97.2804 28.3058 100.751 28.8481 103.462 30.8002C105.631 32.4269 107.041 34.596 107.692 37.5241C108.451 40.7776 107.909 43.7058 106.282 46.3086C104.547 48.9114 101.835 50.6466 98.0395 51.5143C94.6776 52.2734 91.641 52.0565 89.1466 50.7551C86.2184 49.3452 84.2663 46.7424 83.5072 43.272ZM91.6409 41.4283C92.0747 43.272 92.7255 44.5734 93.7015 45.3326C94.6776 46.0917 95.7621 46.3086 96.8466 45.9833C98.0395 45.7664 98.9071 45.0072 99.4494 44.0312C99.9916 42.9467 100.1 41.4283 99.5578 39.4762C99.124 37.6326 98.4733 36.3312 97.4973 35.6805C96.5212 34.9213 95.5452 34.7044 94.3522 34.9213C93.1593 35.1382 92.2916 35.8974 91.7494 36.9819C91.3156 38.0664 91.2071 39.5847 91.6409 41.4283Z" fill="#263238"/>
<path d="M116.042 55.5268L109.427 26.2451L117.018 24.5099L117.777 27.655C118.537 26.1367 119.296 24.9437 120.055 24.293C121.139 23.4254 122.332 22.7747 123.742 22.4493C126.562 21.7986 129.056 22.3409 131.008 24.1845C133.069 26.0282 134.479 28.5226 135.13 31.6676C135.889 35.2465 135.672 38.0662 134.479 40.3437C133.177 42.6212 131.334 44.031 128.731 44.5733C127.43 44.8986 126.345 44.8986 125.152 44.6817C124.068 44.4648 122.983 44.031 122.007 43.3803L124.284 53.4662L116.042 55.5268ZM119.946 35.0296C120.38 36.6564 120.923 37.8493 121.899 38.5C122.766 39.1507 123.742 39.3676 124.827 39.1507C125.803 38.9338 126.454 38.3916 126.887 37.4155C127.321 36.4395 127.321 35.1381 126.996 33.186C126.562 31.4507 126.02 30.2578 125.152 29.6071C124.284 28.9564 123.417 28.7395 122.441 28.9564C121.356 29.1733 120.597 29.824 120.163 30.8C119.621 31.7761 119.513 33.1859 119.946 35.0296Z" fill="#263238"/>
<path d="M138.6 35.6804L146.517 33.0776C147.059 33.9452 147.71 34.4874 148.361 34.8128C149.011 35.1381 149.879 35.1381 150.855 34.9212C151.94 34.7043 152.699 34.2705 153.241 33.6198C153.675 33.186 153.783 32.6438 153.675 32.21C153.566 31.6677 153.132 31.2339 152.482 31.017C151.94 30.9086 150.747 30.9086 148.794 31.017C145.866 31.1255 143.806 31.1255 142.613 31.017C141.42 30.8001 140.335 30.3663 139.359 29.4987C138.383 28.6311 137.733 27.6551 137.407 26.3536C137.082 24.9438 137.19 23.6424 137.841 22.4494C138.383 21.2565 139.359 20.2804 140.661 19.4128C141.962 18.5452 143.806 17.8945 146.192 17.3523C148.686 16.81 150.638 16.5931 151.94 16.7016C153.241 16.81 154.325 17.1354 155.41 17.7861C156.386 18.4368 157.362 19.4128 158.121 20.6058L150.638 23.1001C150.313 22.4494 149.879 22.0156 149.337 21.7987C148.578 21.4734 147.818 21.4734 146.842 21.6903C145.975 21.9072 145.324 22.2325 144.999 22.6663C144.673 23.1001 144.565 23.5339 144.673 23.9677C144.782 24.51 145.107 24.8353 145.758 24.9438C146.3 25.0522 147.601 25.0522 149.445 24.8353C152.265 24.51 154.325 24.51 155.735 24.7269C157.145 24.9438 158.338 25.486 159.314 26.3536C160.29 27.2213 160.832 28.1973 161.158 29.4987C161.483 30.6917 161.375 31.9931 160.832 33.2945C160.399 34.5959 159.423 35.7889 158.013 36.8734C156.603 37.9579 154.542 38.717 151.723 39.3677C147.818 40.2353 144.999 40.3438 143.047 39.5846C140.986 38.9339 139.576 37.6325 138.6 35.6804Z" fill="#263238"/>
<path d="M165.062 8.89307H173.955V15.7255L172.328 29.4987H166.797L165.062 15.7255V8.89307ZM165.496 31.5592H173.847V38.9339H165.496V31.5592Z" fill="#263238"/>
<path d="M94.4605 102.16C94.352 102.16 94.352 102.16 94.2436 102.16C89.3633 100.317 86.4352 98.473 84.9168 96.1955C83.8323 96.4124 82.5309 96.3039 81.4464 95.7617C80.3619 95.2194 79.169 94.2434 78.4098 92.942C77.6507 93.4842 76.783 93.7011 75.807 93.3758C74.7225 93.0504 73.5295 92.0744 72.5535 90.773C71.9028 91.2068 71.3605 91.3152 70.8183 91.2068C67.5647 90.9899 63.2267 84.4828 62.9014 77.6504C62.9014 77.3251 63.1183 77.1082 63.4436 77.1082C63.769 77.1082 63.9859 77.3251 63.9859 77.6504C64.3112 84.1575 68.4324 89.9054 70.9267 90.1223C71.3605 90.1223 71.6859 90.0138 71.9028 89.7969C70.3845 87.1941 69.6253 83.5068 70.8183 79.6026C71.7943 76.349 72.5535 75.0476 73.5295 75.2645C75.3732 75.6983 75.1563 82.8561 74.1802 87.5195C73.9633 88.604 73.638 89.3631 73.3126 89.9054C74.1802 91.2068 75.1563 91.9659 76.0239 92.2913C76.783 92.5082 77.4338 92.2913 77.8676 91.9659C77 89.9054 76.8915 86.9772 77.976 83.3983C79.4943 78.6265 80.145 78.5181 80.4704 78.4096C80.6873 78.3011 81.0126 78.4096 81.1211 78.6265C82.0971 79.711 80.9042 87.1941 79.7112 90.8814C79.4943 91.3152 79.3859 91.749 79.0605 92.1828C79.7112 93.4842 80.6873 94.3518 81.7718 94.8941C82.6394 95.3279 83.507 95.4363 84.2661 95.3279C84.1577 95.111 84.0492 94.8941 84.0492 94.6772C83.1816 92.3997 83.6154 89.6885 85.3506 86.435C86.5436 84.2659 87.4112 83.2899 88.2788 83.2899C88.4957 83.2899 89.038 83.3983 89.3633 84.049C90.3394 85.7842 89.5802 91.5321 87.7366 94.4603C87.3028 95.111 86.6521 95.6532 86.0014 95.9786C87.4112 97.9307 90.2309 99.5575 94.569 101.293C94.8943 101.401 95.0028 101.726 94.8943 101.943C94.8943 102.052 94.6774 102.16 94.4605 102.16ZM88.2788 84.2659C88.2788 84.2659 87.6281 84.2659 86.3267 86.7603C84.8084 89.6885 84.3746 92.0744 85.1337 94.1349C85.2422 94.3518 85.3506 94.6772 85.4591 94.8941C86.0014 94.6772 86.5436 94.2434 86.869 93.7011C88.3873 91.4237 89.1464 86.6518 88.4957 84.6997C88.3873 84.3744 88.2788 84.2659 88.2788 84.2659ZM80.5788 79.711C80.2535 80.2533 79.8197 81.3378 79.169 83.5068C78.1929 86.4349 78.1929 88.8209 78.7352 90.5561C78.7352 90.4476 78.8436 90.3392 78.8436 90.2307C80.0366 86.6519 80.6873 81.4462 80.5788 79.711ZM73.4211 76.2406C73.2042 76.4575 72.6619 77.1082 71.9028 79.711C70.9267 83.1814 71.469 86.3265 72.6619 88.604C72.8788 88.1702 73.0957 87.6279 73.2042 87.0856C74.2887 81.88 73.9633 77.1082 73.4211 76.2406Z" fill="#263238"/>
<path d="M135.672 158.988C134.045 158.988 132.31 158.663 130.683 157.687C130.466 157.579 130.358 157.253 130.466 156.928C130.575 156.711 130.9 156.603 131.225 156.711C135.13 158.988 140.118 157.362 141.094 155.735C141.203 155.518 141.311 155.301 141.203 154.976C139.684 155.084 137.841 154.759 135.672 153.349C132.96 151.614 132.744 151.072 132.744 150.746C132.744 150.529 132.852 150.312 133.069 150.204C134.153 149.662 139.034 151.939 141.094 153.241C141.311 153.457 141.637 153.566 141.745 153.783C142.613 153.566 143.372 153.132 143.806 152.59C144.131 152.156 144.348 151.831 144.456 151.397C144.348 151.397 144.348 151.397 144.239 151.397C142.504 151.614 140.769 150.855 138.925 149.119C137.624 147.926 137.19 147.167 137.299 146.517C137.299 146.3 137.515 145.974 138.058 145.757C139.576 145.432 143.263 146.95 144.782 148.577C145.107 148.903 145.324 149.336 145.432 149.879C146.842 149.228 148.36 147.71 150.096 145.215C150.313 144.998 150.638 144.89 150.855 145.107C151.072 145.324 151.18 145.649 150.963 145.866C148.903 148.686 147.168 150.312 145.541 150.963C145.432 151.722 145.107 152.481 144.565 153.132C144.022 153.783 143.263 154.325 142.179 154.65C142.287 155.193 142.179 155.626 141.853 156.169C141.203 157.795 138.6 158.988 135.672 158.988ZM134.696 151.505C135.021 151.722 135.563 152.156 136.322 152.59C137.841 153.457 139.142 153.891 140.227 154C138.491 152.915 136.106 151.939 134.696 151.505ZM138.491 146.842C138.6 147.059 138.817 147.493 139.793 148.36C141.42 149.879 142.83 150.529 144.239 150.312C144.348 150.312 144.456 150.312 144.565 150.312C144.456 149.987 144.348 149.662 144.131 149.445C142.613 147.71 139.251 146.734 138.491 146.842Z" fill="#263238"/>
<path d="M149.987 157.47L133.069 160.507L117.777 76.783L85.1337 82.7477L31.9929 177.1L37.7408 208.225L105.848 195.862L110.511 221.348L143.155 215.383L138.491 189.897L155.41 186.86L149.987 157.47ZM64.5281 172.979L92.7253 123.525L100.534 166.363L64.5281 172.979Z" fill="#4E4E4E"/>
<path d="M286.093 71.1435C285.442 65.3956 284.357 60.19 282.622 55.7435C280.996 51.297 278.393 46.8505 275.031 42.5125C271.669 38.1745 267.114 34.4872 261.257 31.2337C255.401 28.0886 247.81 25.8111 238.266 24.6182C218.419 22.0154 202.911 25.5942 191.849 35.1379C180.787 44.79 173.413 63.2266 169.942 90.4477C168.532 101.51 168.207 111.812 168.858 121.139C169.617 130.574 171.352 138.166 174.063 143.805C177.859 151.831 183.065 158.229 189.897 163.11C196.729 167.881 206.165 171.135 217.986 172.653C239.242 175.473 254.967 171.352 265.27 160.398C275.465 149.445 282.297 131.008 285.659 104.98C287.286 93.4843 287.394 82.2054 286.093 71.1435Z" fill="#4E4E4E"/>
<path d="M227.963 161.591C225.36 161.483 222.541 161.266 219.721 160.941C209.744 159.639 202.152 157.145 196.838 153.458C191.632 149.879 187.837 145.107 184.908 138.925V138.817C182.848 134.479 181.438 128.189 180.896 120.38C180.245 111.813 180.57 102.269 181.872 92.0746C185.776 62.0338 193.693 49.4535 199.766 44.2479C206.815 38.1746 216.251 35.3549 228.722 35.7887C231.325 35.8972 234.036 36.1141 236.748 36.4394C244.773 37.5239 251.063 39.2592 255.618 41.7535C259.956 44.1394 263.318 46.8507 265.704 49.8873C268.307 53.2493 270.259 56.6113 271.56 59.9732C272.862 63.5521 273.838 67.7817 274.38 72.5535C275.573 82.6394 275.465 93.1591 274.055 103.679C271.018 126.996 265.27 143.48 256.811 152.482C250.413 159.097 240.977 162.025 227.963 161.591Z" fill="#263238"/>
<path d="M249.111 71.4688L249.22 67.3477L246.725 66.4801C246.617 65.0702 246.4 63.6604 246.075 62.359L248.244 60.7322L246.834 56.828L244.231 57.0449C243.58 55.7435 242.821 54.659 242.062 53.466L243.472 51.1886L240.652 48.1519L238.266 49.3449C237.182 48.4773 236.097 47.6097 234.904 46.8505L235.338 44.2477L231.542 42.5125L229.807 44.5731C228.506 44.1393 227.096 43.8139 225.686 43.597L225.035 40.9942L220.914 40.8857L220.046 43.3801C218.637 43.4886 217.227 43.7055 215.925 44.0308L214.299 41.8618L210.394 43.2717L210.611 45.8745C209.31 46.5252 208.225 47.2843 207.032 48.0435L204.755 46.6336L201.718 49.4533L202.911 51.8393C202.044 52.9238 201.176 54.0083 200.525 55.2012L197.923 54.7674L196.187 58.5632L198.248 60.2984C197.814 61.5998 197.489 63.0097 197.272 64.4195L194.669 65.0702L194.561 69.1914L197.055 70.059C197.163 71.4688 197.38 72.8787 197.706 74.1801L195.537 75.8068L196.946 79.7111L199.549 79.4942C200.2 80.7956 200.959 81.8801 201.718 83.073L200.308 85.3505L203.128 88.3871L205.514 87.1942C206.599 88.0618 207.683 88.9294 208.876 89.6885L208.442 92.2913L212.238 94.0266L213.973 91.966C215.275 92.3998 216.684 92.7251 218.094 92.942L218.745 95.5449L222.866 95.6533L223.734 93.1589C225.144 93.0505 226.553 92.8336 227.855 92.5082L229.482 94.6772L233.386 93.2674L233.169 90.6646C234.47 90.0139 235.555 89.2547 236.748 88.4956L239.025 89.9054L242.062 87.0857L240.869 84.6998C241.737 83.6153 242.604 82.5308 243.255 81.3378L245.858 81.7716L247.593 77.9759L245.532 76.2406C245.966 74.9392 246.291 73.5294 246.508 72.1195L249.111 71.4688ZM221.348 84.8083C212.346 84.4829 205.297 76.9998 205.623 67.9984C205.948 58.997 213.431 51.9477 222.432 52.2731C231.434 52.5984 238.483 60.0815 238.158 69.0829C237.941 77.9759 230.349 85.0252 221.348 84.8083Z" fill="#848484"/>
<path opacity="0.3" d="M266.246 146.95L266.572 144.131L264.945 143.48C264.945 142.504 264.836 141.636 264.728 140.66L266.246 139.684L265.487 136.973H263.643C263.318 136.105 262.884 135.238 262.342 134.479L263.318 132.96L261.583 130.791L259.956 131.442C259.305 130.791 258.546 130.141 257.787 129.598L258.221 127.863L255.727 126.562L254.425 127.863C253.558 127.538 252.69 127.212 251.714 126.995L251.389 125.26L248.569 124.935L247.918 126.562C246.942 126.562 246.074 126.67 245.098 126.779L244.122 125.26L241.411 126.019V127.863C240.543 128.188 239.676 128.622 238.917 129.165L237.398 128.08L235.229 129.815L235.88 131.442C235.229 132.093 234.579 132.852 234.036 133.611L232.301 133.177L231 135.672L232.301 136.973C231.976 137.841 231.651 138.708 231.434 139.684L229.698 140.01L229.373 142.829L231 143.48C231 144.456 231.108 145.324 231.217 146.3L229.698 147.276L230.458 149.987H232.301C232.627 150.855 233.06 151.722 233.603 152.481L232.518 154L234.253 156.169L235.88 155.518C236.531 156.169 237.29 156.819 238.049 157.362L237.941 158.988L240.435 160.29L241.736 158.988C242.604 159.314 243.472 159.639 244.448 159.856L244.773 161.591L247.593 161.917L248.243 160.29C249.22 160.29 250.087 160.181 251.063 160.073L252.039 161.591L254.75 160.832V158.988C255.618 158.663 256.486 158.229 257.245 157.687L258.655 158.772L260.824 157.036L260.173 155.41C260.824 154.759 261.474 154 262.017 153.241L263.752 153.674L265.053 151.18L263.752 149.879C264.077 149.011 264.403 148.143 264.619 147.167L266.246 146.95ZM252.256 145.866C250.955 148.252 248.027 149.119 245.641 147.818C243.255 146.517 242.496 143.588 243.689 141.203C244.99 138.817 247.918 138.057 250.304 139.25C252.69 140.552 253.558 143.48 252.256 145.866Z" fill="#8100FF"/>
<path d="M281.646 99.9915L278.393 97.714C278.067 96.5211 277.634 95.4366 277.091 94.352L277.959 91.0985L273.296 86.1098L270.042 86.7605C269.066 86.1098 267.873 85.676 266.788 85.2422L264.728 81.8802L257.896 81.6633L255.618 84.9168C254.425 85.2422 253.341 85.676 252.256 86.2183L249.003 85.3507L244.014 90.014L244.665 93.2675C244.014 94.352 243.58 95.4366 243.146 96.5211L239.784 98.4732L239.567 105.306L242.821 107.583C243.146 108.776 243.58 109.86 244.122 110.945L243.255 114.199L247.918 119.187L251.172 118.537C252.256 119.187 253.341 119.621 254.425 120.055L256.377 123.417L263.21 123.634L265.487 120.38C266.68 120.055 267.765 119.621 268.849 119.079L272.103 119.946L277.091 115.283L276.441 112.03C277.091 110.945 277.525 109.86 277.959 108.776L281.321 106.715L281.646 99.9915ZM260.281 110.511C256.052 110.403 252.69 106.824 252.798 102.486C252.907 98.2563 256.486 94.8943 260.824 95.0028C265.053 95.1112 268.415 98.6901 268.307 103.028C268.09 107.258 264.511 110.62 260.281 110.511Z" fill="white"/>
<path d="M305.18 45.2238L305.722 43.8139C306.156 43.597 306.481 43.3801 306.807 43.0547H308.108L309.627 40.8857L309.193 39.6928C309.301 39.259 309.41 38.8252 309.518 38.3914L310.603 37.4153L310.169 34.9209L308.759 34.3787C308.542 33.9449 308.325 33.6195 308 33.2942V31.9928L305.831 30.4745L304.638 30.9083C304.204 30.7998 303.77 30.6914 303.336 30.5829L302.36 29.4984L299.866 29.9322L299.324 31.3421C298.89 31.559 298.565 31.7759 298.131 32.1012H296.829L295.311 34.2702L295.745 35.4632C295.636 35.897 295.528 36.3308 295.419 36.7646L294.335 37.7407L294.769 40.235L296.179 40.7773C296.396 41.2111 296.612 41.5364 296.938 41.9702V43.2716L299.107 44.7899L300.3 44.3562C300.734 44.4646 301.167 44.573 301.601 44.6815L302.577 45.766L305.18 45.2238ZM299.757 38.1745C299.432 36.5477 300.517 35.1378 302.143 34.8125C303.77 34.4871 305.18 35.5716 305.505 37.1984C305.831 38.8252 304.746 40.235 303.119 40.5604C301.493 40.8857 299.974 39.8012 299.757 38.1745Z" fill="#848484"/>
<path d="M275.465 38.0662L274.597 37.4155C276.007 35.6802 278.067 33.5112 281.104 31.9929L281.646 32.969C278.393 34.5957 276.332 36.9816 275.465 38.0662Z" fill="#407BFF"/>
<path d="M284.141 31.8843L283.707 30.9082C287.828 29.173 292.057 28.4139 296.395 28.8477L296.287 29.9322C292.166 29.4984 288.045 30.1491 284.141 31.8843Z" fill="#407BFF"/>
<path d="M282.08 39.3674L281.212 38.7167C283.49 35.4632 287.828 32.6435 291.949 31.7759L292.166 32.8604C288.262 33.6195 284.141 36.3308 282.08 39.3674Z" fill="#407BFF"/>
<path d="M210.069 143.806C209.96 143.806 209.744 143.697 209.635 143.589L207.358 141.203C206.165 141.094 205.08 140.877 203.996 140.552L200.417 142.07C200.2 142.179 200.091 142.179 199.875 142.07L193.91 138.166C193.801 138.058 193.693 137.841 193.693 137.732L193.801 133.828C193.042 132.96 192.391 131.984 191.849 130.9L188.813 129.707C188.596 129.598 188.487 129.49 188.487 129.273L187.077 122.332C187.077 122.115 187.077 122.007 187.186 121.79L189.572 119.513C189.68 118.32 189.897 117.235 190.222 116.151L188.704 112.572C188.596 112.355 188.596 112.246 188.704 112.029L192.608 106.065C192.717 105.956 192.825 105.848 193.042 105.848L196.946 105.956C197.814 105.197 198.79 104.546 199.875 104.004L201.068 100.968C201.176 100.751 201.284 100.642 201.501 100.642L208.442 99.2323C208.659 99.2323 208.768 99.2323 208.984 99.3408L211.262 101.727C212.455 101.835 213.539 102.052 214.732 102.377L218.311 100.859C218.528 100.751 218.637 100.751 218.853 100.859L224.818 104.763C224.927 104.872 225.035 105.089 225.035 105.197L224.927 109.101C225.686 109.969 226.337 110.945 226.879 112.029L229.915 113.222C230.132 113.331 230.241 113.439 230.241 113.656L231.651 120.597C231.651 120.814 231.651 120.922 231.542 121.139L229.156 123.417C229.048 124.61 228.831 125.694 228.506 126.779L230.024 130.358C230.132 130.575 230.132 130.683 230.024 130.9L226.12 136.865C226.011 136.973 225.903 137.082 225.686 137.082L221.782 136.973C220.914 137.732 219.938 138.383 218.853 138.925L217.66 141.962C217.552 142.179 217.444 142.287 217.227 142.287L210.069 143.806C210.177 143.806 210.177 143.806 210.069 143.806ZM203.996 139.467H204.104C205.297 139.793 206.49 140.01 207.683 140.118C207.791 140.118 207.9 140.227 208.008 140.335L210.177 142.613L216.576 141.311L217.769 138.383C217.769 138.275 217.877 138.166 217.986 138.058C219.07 137.515 220.155 136.865 221.022 135.997C221.131 135.889 221.239 135.889 221.348 135.889L225.144 135.997L228.722 130.575L227.204 127.104C227.204 126.996 227.096 126.887 227.204 126.779C227.529 125.586 227.746 124.393 227.855 123.2C227.855 123.091 227.963 122.983 227.963 122.875L230.241 120.706L228.939 114.307L226.011 113.114C225.903 113.114 225.794 113.006 225.686 112.897C225.144 111.813 224.493 110.837 223.625 109.86C223.517 109.752 223.517 109.644 223.517 109.535L223.625 105.739L218.203 102.16L214.732 103.679C214.624 103.679 214.515 103.787 214.407 103.679C213.214 103.353 212.021 103.137 210.828 103.028C210.72 103.028 210.611 102.92 210.503 102.92L208.334 100.642L201.935 101.944L200.742 104.872C200.742 104.98 200.634 105.089 200.525 105.197C199.441 105.739 198.465 106.39 197.489 107.258C197.38 107.366 197.272 107.366 197.163 107.366L193.368 107.258L189.789 112.68L191.307 116.151C191.415 116.259 191.415 116.476 191.307 116.584C190.982 117.669 190.765 118.862 190.656 120.055C190.656 120.163 190.548 120.272 190.548 120.38L188.27 122.549L189.572 128.948L192.5 130.141C192.608 130.141 192.717 130.249 192.825 130.466C193.368 131.551 194.018 132.527 194.777 133.503C194.886 133.611 194.886 133.72 194.886 133.828L194.777 137.624L200.2 141.203L203.67 139.684C203.887 139.467 203.887 139.467 203.996 139.467ZM209.31 135.997C206.599 135.997 203.779 135.238 201.393 133.611C198.139 131.442 195.97 128.189 195.211 124.393C194.452 120.597 195.211 116.801 197.272 113.548C201.718 106.932 210.72 105.089 217.335 109.427C223.951 113.873 225.794 122.766 221.348 129.49C218.637 133.72 213.973 135.997 209.31 135.997ZM198.248 114.198C196.296 117.127 195.537 120.706 196.296 124.284C197.055 127.755 199.007 130.791 202.044 132.744C208.225 136.865 216.467 135.129 220.589 128.948C224.71 122.766 222.975 114.524 216.793 110.403C210.611 106.282 202.26 108.017 198.248 114.198Z" fill="white"/>
<path d="M416.667 167.231L399.641 164.953L410.919 80.5788L378.059 76.1323L298.348 149.445L294.118 180.787L362.767 190.005L359.297 215.708L392.158 220.155L395.628 194.452L412.655 196.729L416.667 167.231ZM330.558 155.627L372.636 117.344L366.889 160.507L330.558 155.627Z" fill="#4E4E4E"/>
<path d="M382.289 219.396C381.855 219.287 381.746 219.07 381.746 218.745L407.124 80.0366C407.124 79.7112 407.449 79.6028 407.774 79.6028C408.1 79.6028 408.317 79.9281 408.208 80.2535L382.939 218.962C382.831 219.287 382.614 219.396 382.289 219.396Z" fill="#263238"/>
<path d="M404.738 82.4225C404.738 82.9648 404.304 83.2901 403.87 83.2901C403.328 83.2901 403.003 82.8563 403.003 82.4225C403.003 81.9887 403.436 81.5549 403.87 81.5549C404.413 81.4465 404.738 81.8803 404.738 82.4225Z" fill="#263238"/>
<path d="M401.159 101.185C401.159 101.727 400.725 102.052 400.291 102.052C399.858 102.052 399.424 101.618 399.424 101.185C399.424 100.751 399.858 100.317 400.291 100.317C400.834 100.208 401.159 100.642 401.159 101.185Z" fill="#263238"/>
<path d="M397.58 119.946C397.58 120.489 397.146 120.814 396.712 120.814C396.279 120.814 395.845 120.38 395.845 119.946C395.845 119.513 396.279 119.079 396.712 119.079C397.146 118.97 397.58 119.404 397.58 119.946Z" fill="#263238"/>
<path d="M390.422 139.468C390.422 140.01 389.988 140.335 389.555 140.335C389.012 140.335 388.687 139.901 388.687 139.468C388.687 139.034 389.121 138.6 389.555 138.6C389.988 138.6 390.422 138.925 390.422 139.468Z" fill="#263238"/>
<path d="M390.314 157.47C390.314 158.013 389.88 158.338 389.446 158.338C388.904 158.338 388.579 157.904 388.579 157.47C388.579 157.037 389.012 156.603 389.446 156.603C389.988 156.494 390.314 156.928 390.314 157.47Z" fill="#263238"/>
<path d="M386.735 176.232C386.735 176.775 386.301 177.1 385.867 177.1C385.434 177.1 385 176.666 385 176.232C385 175.69 385.434 175.365 385.867 175.365C386.301 175.365 386.735 175.69 386.735 176.232Z" fill="#263238"/>
<path d="M383.047 194.994C383.047 195.536 382.614 195.862 382.18 195.862C381.638 195.862 381.312 195.428 381.312 194.994C381.312 194.452 381.746 194.127 382.18 194.127C382.722 194.018 383.156 194.452 383.047 194.994Z" fill="#263238"/>
<path d="M379.469 213.756C379.469 214.298 379.035 214.624 378.601 214.624C378.167 214.624 377.734 214.19 377.734 213.756C377.734 213.322 378.167 212.889 378.601 212.889C379.035 212.889 379.469 213.214 379.469 213.756Z" fill="#263238"/>
<path d="M389.555 140.01C389.338 140.01 389.121 139.793 389.012 139.576C388.904 139.251 389.121 139.034 389.446 138.925L392.157 138.383C392.483 138.275 392.7 138.492 392.808 138.817C392.917 139.142 392.7 139.359 392.374 139.468L389.663 140.01H389.555Z" fill="#263238"/>
<path d="M398.556 129.924C398.556 129.924 396.17 136.214 395.303 140.118C394.435 143.914 394.435 152.482 394.435 152.482" fill="#263238"/>
<path d="M394.435 153.024C394.11 153.024 393.893 152.807 393.893 152.482C393.893 152.156 394.001 143.805 394.76 140.01C395.628 136.214 397.906 130.032 398.014 129.815C398.122 129.49 398.448 129.382 398.665 129.49C398.99 129.598 399.098 129.924 398.99 130.141C398.99 130.249 396.604 136.431 395.736 140.227C394.977 143.914 394.869 152.373 394.869 152.482C394.977 152.807 394.76 153.024 394.435 153.024Z" fill="#263238"/>
<path d="M196.187 246.617C197.706 222.324 194.886 178.184 240.544 184.041C289.455 190.331 275.465 247.593 275.465 247.593L196.187 246.617Z" fill="#263238"/>
<path d="M227.638 232.084C238.659 232.084 247.593 223.15 247.593 212.129C247.593 201.108 238.659 192.174 227.638 192.174C216.617 192.174 207.683 201.108 207.683 212.129C207.683 223.15 216.617 232.084 227.638 232.084Z" fill="white"/>
<path d="M230.241 192.283C220.805 190.656 210.719 197.597 209.743 204.646L247.159 208.117C245.857 199.983 237.724 193.476 230.241 192.283Z" fill="#263238"/>
<path d="M242.929 211.587C242.713 216.793 239.784 220.914 236.639 220.697C233.494 220.48 231 216.142 231.217 210.936C231.434 205.731 234.362 201.61 237.507 201.826C240.76 202.043 243.146 206.381 242.929 211.587Z" fill="#263238"/>
<path d="M227.638 233.169C216.034 233.169 206.598 223.733 206.598 212.129C206.598 200.525 216.034 191.09 227.638 191.09C239.242 191.09 248.677 200.525 248.677 212.129C248.677 223.733 239.242 233.169 227.638 233.169ZM227.638 193.259C217.227 193.259 208.767 201.718 208.767 212.129C208.767 222.541 217.227 231 227.638 231C238.049 231 246.508 222.541 246.508 212.129C246.508 201.718 238.049 193.259 227.638 193.259Z" fill="#8100FF"/>
<path opacity="0.3" d="M269.934 246.074H269.825C269.5 245.966 269.391 245.749 269.391 245.424C269.391 245.315 272.862 230.566 269.283 215.708C269.174 215.383 269.391 215.166 269.717 215.057C270.042 214.949 270.259 215.166 270.367 215.491C274.055 230.674 270.476 245.532 270.476 245.749C270.367 245.857 270.15 246.074 269.934 246.074Z" fill="white"/>
<path opacity="0.3" d="M266.897 207.574C266.68 207.574 266.463 207.466 266.355 207.249C264.945 204.212 263.209 201.393 261.257 198.898C261.04 198.681 261.149 198.356 261.366 198.139C261.583 197.922 261.908 198.031 262.125 198.248C264.186 200.742 266.029 203.67 267.439 206.815C267.548 207.141 267.439 207.358 267.222 207.574C267.005 207.466 267.005 207.574 266.897 207.574Z" fill="white"/>
<path d="M94.4605 360.598C94.3521 360.598 94.2436 360.598 94.0267 360.598C90.9901 360.49 88.7126 357.995 88.7126 355.067C88.8211 352.031 91.207 349.753 94.2436 349.753H94.3521C97.4972 349.753 104.98 345.957 120.814 321.122C121.682 319.821 123.091 318.845 124.61 318.628C126.128 318.411 127.755 318.845 128.948 319.929C148.36 336.848 169.075 347.476 169.183 347.584C171.894 348.994 172.87 352.248 171.569 354.85C170.159 357.562 166.906 358.538 164.303 357.236C163.435 356.802 145.432 347.584 126.562 332.184C113.548 352.031 103.679 360.598 94.4605 360.598Z" fill="#263238"/>
<path d="M128.08 318.953C127.971 318.953 127.755 318.953 127.646 318.953C125.911 318.736 124.61 317.001 124.935 315.266C125.694 309.843 124.718 289.671 117.886 273.946C117.235 272.536 117.777 270.801 119.079 269.933C133.936 259.848 165.604 258.546 166.905 258.546C168.64 258.546 170.159 259.848 170.267 261.691C170.376 263.535 168.966 264.945 167.122 265.053C166.797 265.053 139.142 266.138 124.935 273.946C131.008 289.563 132.31 309.084 131.333 316.133C131.008 317.76 129.598 318.953 128.08 318.953Z" fill="#263238"/>
<path d="M133.503 314.723C131.334 309.626 121.573 310.169 115.825 314.615C112.789 317.001 108.668 323.942 108.234 326.545C107.8 329.147 109.535 331.425 112.572 331.099C116.259 330.774 121.465 325.352 121.465 325.352C118.103 328.714 122.441 331.099 129.056 326.219C132.635 323.508 135.889 320.471 133.503 314.723Z" fill="#848484"/>
<path d="M320.038 248.135H319.929C319.604 248.026 319.495 247.701 319.604 247.484C321.014 242.495 322.641 239.35 324.701 237.615C324.376 236.531 324.376 235.338 324.918 234.036C325.352 232.843 326.219 231.65 327.521 230.783C326.87 230.132 326.653 229.264 326.87 228.18C327.087 227.095 327.955 225.794 329.148 224.71C328.605 224.167 328.497 223.517 328.497 223.083C328.497 219.829 334.462 214.949 341.294 213.973C341.619 213.865 341.836 214.19 341.945 214.407C341.945 214.732 341.728 214.949 341.511 215.057C335.112 215.925 329.69 220.588 329.69 223.083C329.69 223.517 329.798 223.842 330.124 224.059C332.618 222.324 336.197 221.239 340.21 221.998C343.571 222.649 344.873 223.3 344.764 224.384C344.439 226.336 337.39 226.662 332.618 226.119C331.533 226.011 330.774 225.686 330.124 225.469C328.931 226.445 328.172 227.529 327.955 228.397C327.738 229.156 328.063 229.807 328.497 230.132C330.557 229.048 333.377 228.614 337.064 229.481C341.945 230.566 342.162 231.217 342.27 231.542C342.379 231.759 342.27 232.084 342.053 232.301C340.969 233.386 333.486 232.843 329.69 231.976C329.148 231.867 328.714 231.65 328.388 231.433C327.087 232.193 326.328 233.277 325.894 234.362C325.569 235.229 325.46 236.097 325.677 236.856C325.894 236.748 326.111 236.639 326.328 236.531C328.605 235.446 331.317 235.663 334.679 237.073C336.848 238.049 337.932 238.917 338.041 239.676C338.041 239.893 338.041 240.435 337.39 240.76C335.763 241.845 329.907 241.736 326.979 240.11C326.219 239.784 325.677 239.133 325.352 238.483C323.617 240.11 322.098 243.038 320.797 247.593C320.472 247.918 320.255 248.135 320.038 248.135ZM325.894 237.941C326.219 238.483 326.653 238.917 327.195 239.242C329.69 240.543 334.462 240.869 336.305 240.11C336.631 240.001 336.739 239.784 336.739 239.784C336.739 239.784 336.631 239.133 334.028 238.049C330.991 236.748 328.605 236.531 326.653 237.507C326.436 237.724 326.111 237.832 325.894 237.941ZM329.581 230.891C329.69 230.891 329.798 230.891 329.907 231C333.702 231.976 338.908 232.084 340.643 231.759C340.101 231.542 339.017 231.108 336.739 230.674C333.594 229.915 331.317 230.132 329.581 230.891ZM330.883 224.71C331.425 224.926 331.967 225.035 332.401 225.035C337.824 225.686 342.595 224.926 343.246 224.276C343.029 224.059 342.379 223.625 339.667 223.083C336.197 222.541 333.052 223.408 330.883 224.71Z" fill="#263238"/>
<path d="M178.835 358.755C179.594 358.538 179.269 357.887 178.51 357.887H163.869C135.889 354.959 116.368 358.863 128.731 359.839C141.094 360.815 127.863 360.598 118.862 363.96C109.861 367.322 185.776 368.19 192.608 363.96C198.899 360.056 168.966 362.008 178.835 358.755Z" fill="#263238"/>
<path d="M284.032 363.092L156.277 358.863L150.963 235.012L301.818 238.374L284.032 363.092Z" fill="#4E4E4E"/>
<path d="M196.187 360.815C195.862 360.815 195.645 360.598 195.645 360.273L185.451 235.88C185.451 235.555 185.668 235.338 185.993 235.338C186.318 235.338 186.535 235.555 186.535 235.88L196.73 360.273C196.73 360.49 196.513 360.707 196.187 360.815Z" fill="#263238"/>
<path d="M284.032 363.092L318.303 357.887L329.148 242.712L301.818 238.374L284.032 363.092Z" fill="#8100FF"/>
<path opacity="0.2" d="M284.291 362.904L318.561 357.698L329.406 242.524L302.077 238.186L284.291 362.904Z" fill="#8100FF"/>
<path d="M167.122 335.004L163.977 261.366C163.652 253.666 169.834 247.376 177.534 247.484L273.079 249.653C281.104 249.87 287.069 256.919 285.984 264.836L275.356 339.016C274.38 345.74 268.524 350.621 261.691 350.404L179.92 347.693C173.087 347.476 167.448 341.945 167.122 335.004Z" fill="#263238"/>
<path d="M177.425 270.15L192.175 270.584L192.066 274.38L182.848 274.055L182.739 276.874L191.307 277.2L191.199 280.887L182.631 280.562L182.522 284.032L192.066 284.357L191.958 288.37L176.883 287.936L177.425 270.15Z" fill="white"/>
<path d="M194.994 288.587L195.536 270.693L204.755 271.018C206.49 271.018 207.791 271.235 208.659 271.56C209.527 271.886 210.286 272.428 210.828 273.295C211.37 274.055 211.587 275.031 211.587 276.224C211.587 277.2 211.37 278.067 210.828 278.718C210.394 279.369 209.743 280.019 208.984 280.453C208.55 280.67 207.9 280.887 207.032 281.104C207.683 281.321 208.117 281.538 208.442 281.755C208.659 281.863 208.876 282.188 209.31 282.731C209.635 283.273 209.96 283.598 210.069 283.815L212.563 289.021L206.381 288.804L203.562 283.273C203.236 282.514 202.911 282.08 202.586 281.863C202.152 281.538 201.718 281.429 201.284 281.429H200.85L200.634 288.695L194.994 288.587ZM200.85 278.067L203.128 278.176C203.345 278.176 203.887 278.067 204.646 277.959C204.972 277.85 205.297 277.742 205.514 277.417C205.731 277.091 205.839 276.766 205.948 276.44C205.948 275.898 205.839 275.464 205.405 275.139C205.08 274.814 204.321 274.597 203.345 274.597L200.959 274.488L200.85 278.067Z" fill="white"/>
<path d="M214.407 289.129L214.949 271.235L224.168 271.56C225.903 271.56 227.204 271.777 228.072 272.102C228.939 272.428 229.699 272.97 230.241 273.838C230.783 274.597 231 275.573 231 276.766C231 277.742 230.783 278.609 230.241 279.26C229.807 279.911 229.156 280.562 228.397 280.995C227.963 281.212 227.313 281.429 226.445 281.646C227.096 281.863 227.53 282.08 227.855 282.297C228.072 282.405 228.289 282.731 228.722 283.273C229.048 283.815 229.373 284.14 229.482 284.357L231.976 289.563L225.794 289.346L222.975 283.815C222.649 283.056 222.324 282.622 221.999 282.405C221.565 282.08 221.131 281.971 220.697 281.971H220.263L220.046 289.238L214.407 289.129ZM220.263 278.718L222.541 278.826C222.758 278.826 223.3 278.718 224.059 278.609C224.384 278.501 224.71 278.393 224.927 278.067C225.144 277.742 225.252 277.417 225.36 277.091C225.36 276.549 225.252 276.115 224.818 275.79C224.493 275.464 223.734 275.248 222.758 275.248L220.372 275.139L220.263 278.718Z" fill="white"/>
<path d="M232.844 280.887C232.952 277.959 233.82 275.681 235.446 274.163C237.073 272.645 239.459 271.886 242.279 271.994C245.207 272.102 247.484 272.97 249.111 274.597C250.629 276.224 251.389 278.501 251.28 281.321C251.172 283.381 250.846 285.117 250.087 286.418C249.328 287.719 248.243 288.695 246.942 289.455C245.641 290.105 243.905 290.431 241.953 290.431C239.893 290.322 238.266 289.997 236.965 289.346C235.663 288.695 234.579 287.611 233.82 286.201C233.169 284.683 232.844 282.948 232.844 280.887ZM238.374 280.995C238.266 282.839 238.591 284.14 239.242 284.9C239.893 285.659 240.76 286.093 241.953 286.201C243.146 286.201 244.014 285.876 244.773 285.117C245.424 284.357 245.858 282.948 245.858 280.995C245.858 279.369 245.641 278.067 244.99 277.308C244.339 276.549 243.472 276.115 242.279 276.007C241.194 276.007 240.218 276.332 239.567 277.091C238.808 277.959 238.483 279.26 238.374 280.995Z" fill="white"/>
<path d="M254.1 290.431L254.642 272.536L263.86 272.862C265.596 272.97 266.897 273.078 267.765 273.404C268.632 273.729 269.391 274.271 269.934 275.139C270.476 275.898 270.693 276.874 270.693 278.067C270.693 279.043 270.476 279.911 269.934 280.562C269.5 281.212 268.849 281.863 268.09 282.297C267.656 282.514 267.005 282.731 266.138 282.947C266.789 283.164 267.222 283.381 267.548 283.598C267.765 283.707 267.982 284.032 268.415 284.574C268.741 285.116 269.066 285.442 269.174 285.659L271.669 290.864L265.487 290.647L262.667 285.116C262.342 284.357 262.017 283.924 261.691 283.707C261.258 283.381 260.824 283.273 260.39 283.273H259.956L259.739 290.539L254.1 290.431ZM259.956 280.019L262.234 280.128C262.451 280.128 262.993 280.019 263.752 279.911C264.077 279.802 264.403 279.694 264.62 279.369C264.836 279.043 264.945 278.718 265.053 278.393C265.053 277.85 264.945 277.417 264.511 277.091C264.186 276.766 263.427 276.549 262.451 276.549L260.065 276.44L259.956 280.019Z" fill="white"/>
<path d="M262.884 320.797C262.45 320.797 262.125 320.688 261.8 320.363L252.473 310.169L242.495 319.278C241.953 319.821 240.977 319.821 240.435 319.17L231.108 308.976L221.131 318.085C220.588 318.628 219.612 318.628 219.07 317.977L209.743 307.783L199.766 316.892C199.441 317.109 199.115 317.326 198.79 317.218C198.464 317.218 198.031 317.001 197.814 316.784L188.487 306.59L178.51 315.7C177.967 316.242 176.991 316.242 176.449 315.591C175.907 315.049 175.907 314.073 176.557 313.531L187.619 303.445C188.162 302.902 189.138 302.902 189.68 303.553L199.007 313.747L208.984 304.638C209.31 304.421 209.635 304.204 209.96 304.312C210.286 304.312 210.719 304.529 210.936 304.746L220.263 314.94L230.24 305.831C230.783 305.288 231.759 305.288 232.301 305.939L241.628 316.133L251.605 307.023C252.148 306.481 253.124 306.481 253.666 307.132L263.969 318.411C264.511 318.953 264.511 319.929 263.86 320.471C263.535 320.58 263.209 320.797 262.884 320.797Z" fill="white"/>
<path d="M91.3153 365.804L84.4829 362.55L78.4097 333.052L81.6632 329.473L91.3153 365.804Z" fill="#848484"/>
<path d="M91.3154 365.804L100.317 360.49L92.5084 336.197L81.6633 329.473L91.3154 365.804Z" fill="#8100FF"/>
<path opacity="0.2" d="M91.3154 365.804L100.317 360.49L92.5084 336.197L81.6633 329.473L91.3154 365.804Z" fill="black"/>
<path d="M238.917 371.118C238.7 371.118 238.374 371.118 238.157 371.118C235.121 371.009 232.843 368.515 232.843 365.587C232.952 362.55 235.446 360.273 238.374 360.273C246.725 360.598 264.402 355.393 274.488 345.632C275.139 344.981 275.898 344.547 276.657 344.331C293.793 339.233 300.191 349.536 300.408 349.97L291.081 355.501C291.081 355.501 291.081 355.609 291.19 355.718C291.081 355.609 288.695 352.464 280.887 354.416C268.524 365.912 249.002 371.118 238.917 371.118Z" fill="#263238"/>
<path d="M238.374 378.384L218.636 377.083L217.01 340.643L243.58 341.619L238.374 378.384Z" fill="#4E4E4E"/>
<path d="M238.375 378.384L243.038 373.721L245.858 351.055L243.58 341.619L238.375 378.384Z" fill="#8100FF"/>
<path opacity="0.2" d="M238.375 378.384L243.038 373.721L245.858 351.055L243.58 341.619L238.375 378.384Z" fill="black"/>
<path d="M352.79 364.502C352.139 364.502 351.38 364.286 350.838 363.852C339.559 355.284 324.376 340.101 318.52 325.352C318.411 325.135 318.411 324.918 318.303 324.701C315.483 307.783 312.772 272.102 312.663 270.584C312.555 268.741 313.856 267.222 315.7 267.114C317.435 267.005 319.062 268.307 319.17 270.15C319.17 270.476 321.99 306.59 324.701 323.4C330.558 337.715 346.391 352.356 354.851 358.755C356.26 359.839 356.586 361.9 355.501 363.309C354.742 364.069 353.766 364.502 352.79 364.502Z" fill="#263238"/>
<path d="M367.864 366.238C365.37 366.238 362.55 365.045 359.405 362.876C357.995 361.791 357.67 359.839 358.646 358.321C359.731 356.911 361.683 356.585 363.201 357.562C365.912 359.514 367.322 359.731 367.864 359.731C369.708 359.731 371.118 361.14 371.118 362.984C371.118 364.719 369.6 366.238 367.864 366.238Z" fill="#263238"/>
<path d="M360.273 362.659C363.743 352.356 378.059 354.308 382.939 355.935C387.819 357.453 392.266 359.405 394.977 361.14C397.688 362.876 397.688 365.804 394.109 367.431C389.771 369.491 378.709 367.648 378.709 367.648C384.349 370.142 378.709 374.155 368.732 370.25C365.478 368.949 359.08 366.455 360.273 362.659Z" fill="#848484"/>
<path d="M325.677 275.031C324.376 283.815 317.109 290.322 311.145 289.455C305.18 288.587 304.963 280.779 306.264 271.994C307.566 263.21 309.843 256.811 315.808 257.679C321.773 258.546 326.978 266.246 325.677 275.031Z" fill="#263238"/>
<path d="M182.522 240.001C183.002 240.001 183.39 239.613 183.39 239.133C183.39 238.654 183.002 238.266 182.522 238.266C182.043 238.266 181.655 238.654 181.655 239.133C181.655 239.613 182.043 240.001 182.522 240.001Z" fill="#263238"/>
<path d="M191.524 245.532C191.524 246.074 191.09 246.4 190.656 246.4C190.222 246.4 189.789 245.966 189.789 245.532C189.789 244.99 190.222 244.664 190.656 244.664C191.09 244.664 191.524 244.99 191.524 245.532Z" fill="#263238"/>
<path d="M192.5 350.621C192.5 351.163 192.066 351.488 191.632 351.488C191.09 351.488 190.765 351.055 190.765 350.621C190.765 350.078 191.198 349.753 191.632 349.753C192.175 349.753 192.5 350.078 192.5 350.621Z" fill="#263238"/>
<path d="M200.634 357.019C200.634 357.562 200.2 357.887 199.766 357.887C199.224 357.887 198.898 357.453 198.898 357.019C198.898 356.477 199.332 356.152 199.766 356.152C200.308 356.152 200.634 356.477 200.634 357.019Z" fill="#263238"/>
<path d="M44.3562 367.647C41.7534 367.647 38.2829 366.129 36.4393 363.418C36.2224 363.201 36.3308 362.876 36.5477 362.659C36.7646 362.442 37.09 362.55 37.3069 362.767C39.3674 365.695 43.8139 367.214 45.766 366.346C45.9829 366.238 46.0914 366.129 46.3083 366.021C44.5731 365.153 42.9463 363.635 42.5125 361.14C42.2956 359.731 42.0787 357.887 43.1632 357.67C44.6815 357.345 46.7421 361.032 47.5012 363.96C47.6097 364.502 47.7181 364.936 47.6097 365.37C48.2604 365.587 49.0195 365.587 49.5618 365.478C49.9956 365.37 50.6463 365.262 51.0801 364.719C49.7787 363.852 48.9111 362.225 48.5857 360.164C48.1519 357.236 48.4773 356.694 48.8026 356.477C49.0195 356.26 49.2365 356.26 49.5618 356.369C50.7548 356.911 52.1646 361.032 52.3815 363.418C52.3815 363.635 52.3815 363.96 52.3815 364.177C52.8153 364.394 53.3576 364.502 53.7914 364.502C54.7674 364.502 55.635 364.285 56.3942 363.852C56.2857 363.743 56.0688 363.635 55.9604 363.526C54.8759 362.55 54.3336 361.032 54.5505 358.863C54.659 357.128 55.0928 356.26 55.7435 355.935C55.9604 355.826 56.5026 355.718 57.0449 356.152C58.2378 357.128 59.3224 360.056 58.8886 362.225C58.7801 362.659 58.5632 363.093 58.3463 363.526C60.2984 363.852 63.1181 363.309 65.504 362.767C65.8294 362.659 66.0463 362.876 66.1547 363.201C66.2632 363.526 66.0463 363.743 65.7209 363.852C62.7928 364.611 59.6477 365.153 57.3702 364.502C56.3942 365.262 54.9843 365.804 53.5745 365.804C52.9238 365.804 52.3815 365.695 51.8393 365.478C51.4055 366.238 50.6463 366.671 49.5618 366.888C48.8026 366.997 48.0435 366.888 47.1759 366.671C46.959 367.105 46.5252 367.431 46.0914 367.647C45.6576 367.539 45.1153 367.647 44.3562 367.647ZM43.3801 358.646C43.2717 358.863 43.1632 359.405 43.4886 360.815C43.8139 362.767 45.1153 364.177 46.5252 364.828C46.5252 364.611 46.5252 364.394 46.4167 364.069C45.6576 361.032 44.0308 358.971 43.3801 358.646ZM49.4533 357.778C49.4533 358.212 49.4534 358.863 49.6703 360.056C49.8872 361.574 50.4294 362.767 51.297 363.526C51.0801 361.249 50.104 358.754 49.4533 357.778ZM56.2857 356.802C56.2857 356.802 55.8519 357.019 55.7435 358.863C55.635 360.707 55.9604 361.9 56.7195 362.659C56.9364 362.876 57.1533 362.984 57.3702 363.093C57.6956 362.767 57.9125 362.333 57.9125 362.008C58.2378 360.49 57.4787 358.104 56.6111 357.236C56.5026 356.802 56.2857 356.802 56.2857 356.802Z" fill="#263238"/>
<path d="M203.128 375.89L206.056 370.792L203.128 365.695H199.983L201.718 370.792L199.983 375.89H203.128Z" fill="#263238"/>
<path d="M200.2 373.395C198.79 373.395 197.597 372.202 197.597 370.684C197.597 369.274 198.79 368.081 200.2 368.081L195.211 367.105L193.909 371.118L196.187 374.48L200.2 373.395Z" fill="#263238"/>
<path d="M200.633 365.695H194.777L191.849 370.792L194.777 375.89H200.633L203.562 370.792L200.633 365.695ZM197.597 373.395C196.187 373.395 194.994 372.202 194.994 370.684C194.994 369.274 196.187 368.081 197.597 368.081C199.115 368.081 200.2 369.274 200.2 370.684C200.308 372.202 199.115 373.395 197.597 373.395Z" fill="#848484"/>
<path d="M408.099 365.37L405.93 361.574L408.099 357.778H410.377L409.075 361.574L410.377 365.37H408.099Z" fill="#407BFF"/>
<path d="M410.269 363.526C411.353 363.526 412.221 362.659 412.221 361.574C412.221 360.49 411.353 359.622 410.269 359.622L413.956 358.863L414.932 361.899L413.305 364.394L410.269 363.526Z" fill="#407BFF"/>
<path d="M409.943 357.778H414.281L416.45 361.574L414.281 365.37H409.943L407.774 361.574L409.943 357.778ZM412.112 363.526C413.197 363.526 414.064 362.659 414.064 361.574C414.064 360.49 413.197 359.622 412.112 359.622C411.028 359.622 410.16 360.49 410.16 361.574C410.16 362.659 411.028 363.526 412.112 363.526Z" fill="#263238"/>
<path d="M326.762 370.359H331.642C332.943 370.359 333.919 369.274 333.919 368.081C333.919 366.78 332.835 365.804 331.642 365.804H326.762C325.46 365.804 324.484 366.888 324.484 368.081C324.484 369.274 325.569 370.359 326.762 370.359Z" fill="#263238"/>
<path d="M318.953 366.021C320.146 363.418 323.074 362.333 325.46 363.418C327.846 364.502 328.822 367.539 327.629 370.142C326.436 372.745 323.508 373.829 321.122 372.745C318.736 371.552 317.76 368.515 318.953 366.021Z" fill="#848484"/>
<path d="M320.299 372.64L321.672 373.288L326.344 363.38L324.97 362.733L320.299 372.64Z" fill="#263238"/>
</svg>
