<svg width="143" height="60" viewBox="0 0 143 60" fill="none" xmlns="http://www.w3.org/2000/svg">
<g clip-path="url(#clip0_1_189)">
<path d="M44.1376 2.72278H5.86054C2.55077 2.72278 -0.132324 5.41105 -0.132324 8.7272V50.7905C-0.132324 54.1067 2.55077 56.7949 5.86054 56.7949H44.1376C47.4473 56.7949 50.1304 54.1067 50.1304 50.7905V8.7272C50.1304 5.41105 47.4473 2.72278 44.1376 2.72278Z" fill="#8100FF"/>
<path d="M33.7878 54.0567H32.592C31.4075 54.0454 30.2075 54.0046 29.0469 53.9666L27.8118 53.9257C26.5879 53.8863 25.3415 53.8807 24.1373 53.8751L19.8517 53.8525C19.8264 53.8525 19.8039 53.8525 19.7829 53.8511C19.7084 53.8483 19.6522 53.83 19.6227 53.8201C19.3613 53.7244 19.1983 53.5006 19.1927 53.2556L19.1562 52.708C19.1407 52.5137 19.1351 52.3152 19.1281 52.1167C19.1126 51.7872 19.1112 51.4522 19.1098 51.1171V50.9496C19.1196 50.1443 19.1632 49.3587 19.2405 48.6055C19.4105 47.0302 19.7379 45.497 20.2142 44.0441C20.6962 42.587 21.3426 41.1609 22.135 39.8051C23.55 37.3837 25.5059 35.0396 28.1153 32.6407C28.4019 32.3746 28.7054 32.1015 29.0511 31.7946C28.4286 30.9034 27.8497 30.1206 27.3734 29.4773C27.1246 29.1408 26.9083 28.848 26.7312 28.6002C26.5795 28.3974 26.3996 28.1525 26.2029 27.8822C25.1448 26.4307 23.55 24.2415 22.2376 23.5306L21.632 23.3574C21.514 23.3292 21.3805 23.3335 21.24 23.3363C21.1065 23.3546 20.9618 23.3757 20.8634 23.4137C20.6006 23.4982 20.4138 23.6164 20.1875 23.7812C20.0189 23.9149 19.8531 24.0726 19.7056 24.2387C19.1098 24.9159 18.7332 25.6311 18.3679 26.3645C17.6204 27.9216 17.0864 29.5279 16.6621 30.8921C15.6265 34.2639 14.8818 37.6399 14.3492 40.205C14.0598 41.6213 13.7282 43.2712 13.4486 44.9043C13.1591 46.5867 12.954 48.2395 12.7896 49.6332L12.3764 53.0543C12.3736 53.0712 12.3708 53.0867 12.3666 53.1036C12.3666 53.1078 12.3638 53.1402 12.3512 53.181C12.2739 53.4865 12.0687 53.7498 11.7989 53.8863C11.6626 53.9581 11.5137 54.0004 11.3633 54.0102L11.2608 54.013L9.60413 53.9933C8.80602 53.9778 8.00932 53.9553 7.21401 53.93L5.12599 53.8694C5.00796 53.8652 4.89696 53.8117 4.82249 53.7188C4.74802 53.6273 4.7171 53.5076 4.73678 53.3908L4.79579 53.0515C4.7986 53.0346 4.80282 53.0191 4.80703 53.0022C4.84076 52.891 4.87026 52.7798 4.89977 52.6685L4.9363 52.532C5.15269 51.8703 5.51521 51.2579 6.02106 50.6919C6.31051 50.3822 6.56484 50.1527 6.82901 49.9627C6.9653 49.8599 7.11565 49.7585 7.26741 49.6614C7.31518 49.6304 7.36998 49.5981 7.42619 49.5671L7.57513 49.4854C7.61447 49.4643 7.65522 49.4446 7.6777 49.4319L7.99105 49.2292L7.99807 49.194C8.00791 49.1447 8.01353 49.1053 8.01915 49.0659L8.03601 48.9406C8.04725 48.8463 8.05568 48.7604 8.06271 48.6745L8.07817 48.4127C8.08098 48.3662 8.08098 48.324 8.08238 48.2803C8.08238 48.2367 8.08238 48.193 8.08519 48.1494C8.08519 48.1311 8.088 48.1142 8.09081 48.0959C8.26364 47.1386 8.35216 46.1221 8.362 44.9888V44.7326C8.362 44.5608 8.362 44.3891 8.35216 44.2173L8.31282 43.4219L8.24116 42.6462C8.22851 42.4772 8.20462 42.3153 8.18074 42.1534C8.16669 42.0591 8.15404 41.9648 8.14139 41.8704L8.088 41.4819C8.07676 41.4101 8.0613 41.3312 8.04585 41.251L7.96857 40.8413C7.93765 40.6724 7.90533 40.5034 7.87161 40.3345C7.83648 40.1937 7.79855 40.0346 7.76201 39.8769C7.6763 39.5137 7.59621 39.1702 7.48801 38.8337L7.05664 37.3583C7.00886 37.2035 6.97233 37.0402 6.9372 36.8754C6.91894 36.7924 6.90067 36.7093 6.881 36.6277L6.72924 35.8801C6.64634 35.4662 6.59154 35.0368 6.53814 34.6229L6.49318 34.2273C6.45244 33.7866 6.41028 33.3319 6.39342 32.8758C6.34705 31.8973 6.35127 30.8781 6.40466 29.8475C6.45665 28.8536 6.55641 27.8371 6.69833 26.8235C6.76437 26.3519 6.84306 25.8648 6.94001 25.3312C7.02573 24.868 7.15219 24.3978 7.31799 23.929L7.66506 22.9477C7.71986 22.7872 7.77606 22.6267 7.82805 22.4648C7.9784 22.0143 8.12875 21.5258 8.29034 20.9655C8.44631 20.4178 8.57277 19.9195 8.67394 19.4394C8.73014 19.1803 8.77932 18.9185 8.82429 18.6524C8.84536 18.5229 8.86503 18.3891 8.8833 18.2526L8.92264 17.8795C8.92264 17.8584 8.92265 17.8302 8.92124 17.8007C8.91703 17.7359 8.90578 17.6768 8.88752 17.6177C8.81585 17.3783 8.63741 17.1826 8.40837 17.0911C8.34936 17.0672 8.29034 17.0503 8.23132 17.0418C8.1976 17.0362 8.1695 17.0334 8.13999 17.032L7.99948 17.0264C7.90534 17.0264 7.79152 17.0137 7.6763 17.001C7.44305 16.9715 7.21401 16.9278 6.992 16.8701C6.56344 16.7603 6.10958 16.6012 5.64729 16.3956C4.77331 16.0085 3.91618 15.4848 3.16725 14.8836C2.74852 14.5458 2.40708 14.2248 2.12043 13.8981C1.76634 13.4955 1.5078 13.1182 1.35042 12.7761C1.24504 12.5691 1.19164 12.3636 1.15651 12.2102L1.13403 12.082C1.12982 12.0609 1.12841 12.0398 1.12841 12.0187C1.12841 12.0004 1.12841 11.9807 1.1256 11.9624C1.11998 11.9215 1.11998 11.8807 1.12139 11.8328V10.1984V10.1505C1.12139 10.1364 1.1242 10.1068 1.1256 10.0942C1.14106 9.91538 1.19024 9.77459 1.27174 9.64226C1.37571 9.49303 1.49234 9.39026 1.62161 9.31987C1.7832 9.24244 1.91669 9.21005 2.07125 9.20724L6.0323 9.19034C6.13066 9.16782 6.17984 9.15374 6.23464 9.13544L6.32597 9.10447C6.37375 9.08757 6.42011 9.07208 6.46367 9.05237C6.60559 8.99465 6.72784 8.93553 6.84727 8.86936C7.08896 8.73843 7.31377 8.57793 7.52173 8.3921C7.93203 8.02606 8.26083 7.56992 8.47301 7.06873L8.62335 6.67173C8.65146 6.57036 8.68658 6.43662 8.72171 6.30428L8.73717 6.24374C8.75122 6.18743 8.77792 6.13675 8.81164 6.0917C8.81445 6.08888 8.81726 6.08466 8.81867 6.08184C8.83834 6.05369 8.86082 6.02694 8.88611 6.00441C8.94372 5.9481 9.0463 5.87067 9.27533 5.76226C9.46643 5.68765 9.64629 5.6243 9.85565 5.58347C10.5456 5.43424 11.4308 5.41312 12.4045 5.52434C13.2743 5.62289 14.1314 5.82562 14.9534 6.12549C15.5956 6.362 16.485 6.77731 17.0724 7.41225L17.3253 7.73605C17.3632 7.78955 17.3998 7.84304 17.4377 7.90077L17.5023 8.00354C17.5375 8.05844 17.5726 8.11476 17.6063 8.17248L17.7651 8.45123C17.9604 8.81164 18.1501 9.20442 18.3496 9.65775C18.7192 10.5208 19.0199 11.3767 19.2447 12.2031C19.5117 13.183 19.6789 14.0432 19.7562 14.8329C19.811 15.2989 19.8152 15.7579 19.8124 16.1422C19.7913 16.5533 19.7618 17.0081 19.6578 17.436C19.5819 17.7472 19.4527 18.2047 19.218 18.5933C19.0129 18.9368 18.7515 19.231 18.4424 19.4661C18.1248 19.6872 17.7609 19.8519 17.3436 19.9673C17.2705 19.9856 17.2031 19.9983 17.1356 20.0096L16.96 20.0419C16.87 20.0602 16.7801 20.0771 16.6817 20.08L16.6087 20.087C16.4316 20.1039 16.2476 20.1194 16.0579 20.1109C15.9244 20.1194 15.767 20.1011 15.6279 20.0842L15.4804 20.0687C15.4607 20.0673 15.441 20.0645 15.4214 20.0588L15.3047 20.0321C15.1614 20.0011 14.9984 19.9645 14.841 19.8969C14.4743 19.7604 14.1413 19.5422 13.8715 19.2536C13.2462 18.606 13.0509 17.643 12.9989 16.9489C12.9722 16.5561 12.9877 16.1268 13.0453 15.6368C13.0945 15.2454 13.1816 14.8329 13.3193 14.336C13.8701 12.5114 14.8916 10.9431 16.1984 9.91116L16.7084 10.5475C15.5253 11.4823 14.6008 12.907 14.1005 14.5626C13.9769 15.0117 13.8968 15.3876 13.8532 15.7368C13.8012 16.1732 13.7872 16.5533 13.8111 16.8912C13.8701 17.6782 14.1005 18.3188 14.4602 18.6904C14.6471 18.8903 14.8762 19.0396 15.1459 19.1395C15.2499 19.1846 15.3609 19.2085 15.479 19.2353L15.5787 19.2578C15.6265 19.262 15.6729 19.2676 15.7206 19.2733C15.8387 19.2873 15.9511 19.3 16.0593 19.2944C16.2307 19.3014 16.3768 19.2873 16.5342 19.2733L16.6312 19.2648C16.7028 19.262 16.7506 19.2507 16.7984 19.2409L16.9937 19.2043C17.0415 19.1958 17.0878 19.1874 17.1328 19.1761C17.4518 19.0874 17.7342 18.9621 17.9604 18.8045C18.1726 18.6426 18.3637 18.4257 18.5168 18.1695C18.6531 17.9457 18.7613 17.6514 18.8625 17.2403C18.9496 16.8814 18.9763 16.4717 18.9946 16.1155C18.9974 15.7734 18.9932 15.3468 18.9426 14.916C18.8695 14.1656 18.7108 13.3505 18.4564 12.4143C18.24 11.6231 17.952 10.8037 17.5993 9.97732C17.411 9.54793 17.2312 9.17627 17.0499 8.84261L16.8981 8.57653C16.8714 8.53007 16.8405 8.4822 16.8096 8.43293L16.7436 8.32593C16.7169 8.28511 16.6874 8.24146 16.6579 8.19923L16.4583 7.94159C16.1014 7.55725 15.4621 7.17573 14.6724 6.88431C13.9108 6.60696 13.1169 6.41972 12.3118 6.32681C11.4252 6.22685 10.6313 6.24234 10.0186 6.37608C9.85424 6.40846 9.71233 6.45914 9.59289 6.5056C9.55214 6.52531 9.51842 6.54361 9.49313 6.5591C9.4594 6.6858 9.42849 6.80406 9.39336 6.92232L9.22756 7.36438C8.96199 7.99087 8.56153 8.54978 8.06271 8.99325C7.80978 9.22132 7.53157 9.41841 7.2379 9.5775C7.09317 9.65775 6.94282 9.73095 6.77842 9.79712C6.72643 9.81965 6.66039 9.84358 6.59435 9.86751L6.47773 9.90693C6.40466 9.92946 6.34002 9.95058 6.20794 9.98014L6.11942 9.99985C6.08991 10.0069 6.06181 10.0097 6.0309 10.0097L2.07547 10.0167C2.04877 10.0167 2.0305 10.021 1.99116 10.0393C1.98835 10.0407 1.96727 10.0618 1.95041 10.0857C1.9476 10.09 1.94057 10.1083 1.93776 10.1266C1.93776 10.1392 1.93776 10.1519 1.93776 10.1575V10.1941V11.8666C1.94057 11.9004 1.94339 11.9328 1.94479 11.9666L1.95744 12.0454C1.97851 12.1384 2.01364 12.2721 2.0839 12.4115C2.21598 12.6959 2.43096 13.007 2.73307 13.3505C2.98739 13.6405 3.29793 13.9305 3.67872 14.2388C4.37285 14.7949 5.16956 15.2806 5.98031 15.641C6.40185 15.8283 6.81074 15.9733 7.19715 16.0718C7.38684 16.1211 7.57934 16.1577 7.77325 16.1817C7.85615 16.1901 7.94327 16.2 8.02477 16.2014L8.17512 16.207C8.23976 16.2098 8.30158 16.2169 8.36341 16.2267C8.47863 16.245 8.59947 16.2774 8.71469 16.3253C9.17135 16.5083 9.52966 16.8997 9.67017 17.3741C9.7053 17.4909 9.72778 17.6134 9.73621 17.7331C9.74043 17.7908 9.74184 17.8514 9.73903 17.9119L9.69546 18.3455C9.67579 18.4947 9.65471 18.6369 9.63083 18.7777C9.58305 19.0593 9.53106 19.3324 9.47345 19.6027C9.36807 20.0997 9.2388 20.6163 9.07581 21.1837C8.91141 21.7567 8.75684 22.2565 8.60368 22.7126C8.55169 22.8759 8.49408 23.0406 8.43788 23.2068L8.088 24.1951C7.93765 24.6216 7.82103 25.051 7.74374 25.4706C7.6496 25.9915 7.57232 26.4701 7.50768 26.9305C7.36858 27.9202 7.27162 28.9127 7.21963 29.8827C7.16764 30.8851 7.16343 31.879 7.2098 32.8335C7.22666 33.2728 7.26741 33.7163 7.30675 34.1456L7.3489 34.5117C7.40089 34.9129 7.45429 35.3282 7.53298 35.721L7.6763 36.4334C7.69597 36.515 7.71564 36.6051 7.73531 36.6938C7.76623 36.836 7.79714 36.9796 7.83929 37.1176L8.26926 38.5888C8.38448 38.9478 8.4716 39.3223 8.55731 39.6855C8.59385 39.8403 8.63038 39.9938 8.66832 40.1472C8.70766 40.3373 8.74138 40.5119 8.7737 40.6865L8.84958 41.0933C8.86644 41.1806 8.8819 41.2679 8.89735 41.3552L8.95356 41.7592C8.9648 41.8535 8.97885 41.9436 8.9915 42.0323C9.01819 42.2125 9.04349 42.3913 9.05754 42.573L9.1292 43.3599L9.16854 44.1723C9.17838 44.3567 9.17838 44.5425 9.17838 44.7283V44.9832C9.16854 46.1587 9.07862 47.2104 8.90017 48.2057V48.2859C8.89735 48.3437 8.89595 48.4014 8.89314 48.4605L8.87768 48.728C8.86925 48.8322 8.85941 48.9293 8.84817 49.0251C8.84536 49.0532 8.83974 49.094 8.83412 49.1335C8.82148 49.2236 8.81304 49.2799 8.8004 49.3475L8.75965 49.553C8.73858 49.6614 8.67394 49.7557 8.5812 49.8163L8.11891 50.1161C8.08519 50.1372 8.01915 50.1724 7.95311 50.2076L7.82805 50.2766C7.79011 50.2977 7.75077 50.3203 7.71283 50.3442C7.57232 50.4329 7.44024 50.5216 7.31518 50.6173C7.08896 50.7806 6.87257 50.9763 6.62527 51.241C6.20092 51.7154 5.8946 52.2293 5.72036 52.7629L5.69085 52.8741C5.67399 52.9374 5.65713 53.0008 5.64027 53.0627L7.24211 53.1092C8.03601 53.1345 8.8285 53.1571 9.6224 53.1725L11.2538 53.1923L11.3282 53.1894C11.3493 53.188 11.3886 53.1754 11.4294 53.1542C11.4954 53.1205 11.546 53.0501 11.5657 52.9698V52.9656C11.5685 52.9515 11.5713 52.9374 11.5741 52.9248L11.6992 51.9125L11.983 49.5319C12.1474 48.1269 12.3554 46.4614 12.6476 44.7607C12.9287 43.1164 13.2631 41.4594 13.5539 40.0346C14.0907 37.4512 14.8396 34.0499 15.8865 30.6458C16.3192 29.2506 16.8672 27.6105 17.6386 25.9999C18.0166 25.2411 18.4368 24.4442 19.0972 23.6925C19.277 23.4897 19.478 23.3011 19.6957 23.1265C19.9543 22.9379 20.2311 22.7563 20.5908 22.6394C20.751 22.5746 20.9533 22.5451 21.1304 22.5197C21.1458 22.5169 21.1725 22.5141 21.1894 22.5141C21.3988 22.5085 21.5983 22.5042 21.8048 22.5521L22.2151 22.6591L22.5215 22.7563C22.5439 22.7633 22.5664 22.7731 22.5875 22.7844C24.0727 23.5672 25.7518 25.8704 26.8619 27.3937C27.0558 27.6597 27.2328 27.9019 27.3874 28.1088C27.5673 28.3608 27.7822 28.6509 28.0281 28.9831C28.4946 29.6138 29.0595 30.3769 29.6679 31.2455C29.7101 31.2089 29.7536 31.1723 29.7958 31.1343L31.6927 29.5068C32.2196 29.0493 32.8772 28.4791 33.4899 27.8625C33.7273 27.6231 34.0379 27.2965 34.3372 26.9094C34.5901 26.5757 34.8514 26.1942 35.0369 25.6831L35.2561 24.9497C35.2926 24.823 35.3348 24.6794 35.3994 24.5372L35.4711 24.3598C35.5104 24.2612 35.5498 24.1627 35.5919 24.0655L35.8378 23.5827C36.1891 22.9534 36.6191 22.3747 37.1587 21.8017C37.6139 21.316 38.124 20.8641 38.6635 20.3869L38.856 20.2165C38.9558 20.1292 39.057 20.0349 39.1595 19.9406L39.3169 19.7956C39.3647 19.7519 39.4139 19.7012 39.4645 19.6506L39.6218 19.4929C39.6668 19.4492 39.7118 19.4056 39.7567 19.3507L40.0012 19.0663C40.049 19.0114 40.094 18.9452 40.1389 18.8791L40.3188 18.6172C40.3272 18.6017 40.3483 18.5581 40.3708 18.5144L40.5562 18.1301C40.6546 17.895 40.8429 17.5965 41.0804 17.2967C41.2841 17.0376 41.5314 16.7631 41.8166 16.4829C42.092 16.2126 42.397 15.9409 42.7244 15.6734C42.8564 15.5664 43.0391 15.5509 43.1866 15.6368C43.3328 15.7227 43.4115 15.8902 43.3834 16.0578C43.3229 16.4097 43.2583 16.7631 43.1937 17.1094L43.0461 17.8908L43.8274 17.9781C44.4892 18.0527 45.0667 18.2498 45.5458 18.5651C46.0278 18.8622 46.4746 19.3211 46.8301 19.8843L47.0564 20.2883L47.2446 20.7318C47.4034 21.1654 47.5931 21.5145 47.7744 21.8285C48.0681 22.3283 48.3926 22.8027 48.7931 23.3194C48.8788 23.4306 48.9027 23.5784 48.8535 23.7108C48.8282 23.7783 48.8029 23.8473 48.7692 23.9191C48.7425 23.9867 48.706 24.0684 48.6624 24.1486C48.505 24.4654 48.3252 24.7554 48.1299 25.0017C47.9177 25.2678 47.6859 25.4945 47.4414 25.6761C47.1941 25.8535 46.9285 25.9746 46.6264 26.0506C46.6123 26.0548 46.5969 26.0576 46.5814 26.059C46.5308 26.0661 46.4817 26.0731 46.4311 26.0844C46.4212 26.0872 46.3875 26.0928 46.3777 26.0942L46.2287 26.1125C46.1585 26.1224 46.1135 26.1266 46.0671 26.1393C45.8114 26.19 45.5655 26.2871 45.3519 26.418C44.8236 26.739 44.5412 27.236 44.4189 27.5035C44.2475 27.8751 44.1365 28.2722 44.0677 28.755C44.0396 28.955 44.0213 29.1577 44.0129 29.3731C44.0086 29.4773 44.0072 29.5814 44.0072 29.6856L44.01 29.8447C44.0129 29.9024 44.0143 29.9433 44.0185 30.0108L44.0311 30.0939C44.395 31.5918 44.7646 33.5403 44.3894 35.3367C44.1295 36.6375 43.4606 37.8581 42.7511 39.1491C42.5571 39.5039 42.359 39.8629 42.1679 40.2289C42.0555 40.4359 41.9501 40.6414 41.8461 40.8498L41.7295 41.0806C41.6635 41.2102 41.5974 41.3383 41.5356 41.4706L41.0972 42.4265L40.9595 42.7729C40.7993 43.1375 40.6925 43.5134 40.5815 43.9132L40.5028 44.2131C40.4115 44.6791 40.3272 45.1197 40.3103 45.5702C40.2471 46.5557 40.3736 47.5496 40.6729 48.4563L40.7937 48.7956L40.937 49.1504C40.9651 49.2123 41.0017 49.2855 41.0382 49.3587L41.093 49.4713C41.1436 49.5783 41.197 49.6797 41.256 49.7783C41.3656 49.9754 41.4893 50.171 41.6551 50.409L41.7281 50.5061C41.7731 50.568 41.8195 50.63 41.87 50.6919C41.9543 50.7961 42.0232 50.8792 42.1342 50.9932L42.241 51.1016L42.4068 51.1044C42.9042 51.1143 43.3215 51.1847 43.6475 51.3142L43.7585 51.3578C43.7782 51.3649 43.7979 51.3747 43.8175 51.386L43.9173 51.4451C43.9693 51.4733 44.0227 51.5 44.0761 51.5465C44.0944 51.5606 44.1168 51.5789 44.1407 51.5972C44.1815 51.6211 44.2391 51.6732 44.2925 51.738C44.2953 51.7394 44.3164 51.7605 44.3374 51.7802C44.3543 51.7971 44.3698 51.8154 44.3838 51.8337L44.4484 51.9224C44.4667 51.9463 44.5032 51.9928 44.5356 52.0561C44.6353 52.2166 44.6943 52.3968 44.7505 52.5827C44.8082 52.8333 44.8363 53.0346 44.8447 53.2303V53.2908C44.8489 53.3795 44.8517 53.4696 44.8475 53.5625C44.8377 53.7807 44.6578 53.9666 44.44 53.9666L38.9951 53.9595C38.7703 53.9595 38.5877 53.7765 38.5877 53.5513C38.5877 53.326 38.7689 53.143 38.9937 53.143L44.0227 53.15C44.0114 53.0402 43.9918 52.9219 43.9637 52.791C43.9285 52.6784 43.8892 52.5545 43.8386 52.4785C43.8274 52.4616 43.8175 52.4419 43.8077 52.4236L43.7501 52.3476C43.7262 52.325 43.7037 52.3011 43.6812 52.2772C43.6194 52.2265 43.5857 52.1983 43.5506 52.1702C43.5407 52.1702 43.5168 52.1575 43.4944 52.142L43.3496 52.0744C43.1122 51.9801 42.7918 51.928 42.3913 51.921L42.0583 51.9139C41.9515 51.9125 41.8504 51.8675 41.7759 51.7915L41.5595 51.5718C41.4176 51.4254 41.3375 51.3283 41.2433 51.2128C41.1843 51.1439 41.1281 51.0664 41.0719 50.9904L40.9974 50.8904C40.8049 50.6159 40.6672 50.3963 40.552 50.1879C40.486 50.0795 40.4199 49.9542 40.3595 49.8247L40.3089 49.7233C40.2682 49.6403 40.226 49.5572 40.1881 49.4713L39.8986 48.7097C39.5684 47.7101 39.4293 46.6092 39.4982 45.5308C39.5164 45.0268 39.6134 44.5355 39.7047 44.0582L39.7216 43.9723L39.7989 43.6922C39.9141 43.2839 40.0321 42.8601 40.2106 42.4561L40.4972 41.7663L40.7993 41.1243C40.864 40.9849 40.9342 40.8469 41.0045 40.709L41.1183 40.4837C41.2279 40.2669 41.3361 40.0529 41.4499 39.8446C41.641 39.4785 41.8405 39.1153 42.0372 38.7563C42.7145 37.5202 43.3553 36.3531 43.5913 35.1734C43.9328 33.5332 43.5829 31.7002 43.24 30.2868L43.2218 30.2122C43.2161 30.191 43.2133 30.1685 43.2119 30.146L43.2063 30.0714C43.2007 29.9897 43.1979 29.9433 43.1965 29.8855L43.1923 29.6941C43.1923 29.5702 43.1923 29.4547 43.1979 29.3393C43.2077 29.0986 43.2274 28.8691 43.2597 28.641C43.3398 28.0765 43.4733 27.6077 43.677 27.1642C43.9538 26.556 44.3979 26.0436 44.9262 25.7212C45.2241 25.5381 45.5571 25.4086 45.8887 25.3424C45.9449 25.3284 46.0194 25.3171 46.0952 25.3073L46.2821 25.2833C46.3313 25.2721 46.3889 25.2622 46.4465 25.2538C46.6404 25.2017 46.8091 25.1242 46.9608 25.0158C47.1435 24.8807 47.3233 24.7033 47.4905 24.4935C47.6493 24.2922 47.7983 24.0515 47.9346 23.7769C47.9613 23.7248 47.9823 23.6784 48.0034 23.6319C47.6451 23.1589 47.3458 22.7112 47.0676 22.2396C46.8765 21.9087 46.6587 21.5061 46.4803 21.0204L46.3229 20.6459L46.1346 20.3108C45.8508 19.8603 45.4925 19.4915 45.106 19.2536C44.7253 19.003 44.2672 18.8481 43.7346 18.789L42.5178 18.6524C42.4054 18.6397 42.3028 18.5806 42.2354 18.4891C42.1679 18.3976 42.1412 18.2822 42.1623 18.1709L42.3674 17.0827C42.1159 17.3319 41.8967 17.574 41.7183 17.8021C41.5258 18.0442 41.3754 18.2807 41.3024 18.4525L41.0958 18.8833C41.0663 18.941 41.0368 18.9987 41.0059 19.0522L40.8092 19.3408C40.7459 19.4324 40.6813 19.5253 40.6167 19.5999L40.3792 19.8758C40.3202 19.9462 40.2584 20.0096 40.1951 20.0715L40.0434 20.2236C39.9844 20.2827 39.9253 20.3432 39.8677 20.3953L39.7132 20.5375C39.605 20.6375 39.4968 20.7374 39.3942 20.8275L39.2031 20.9965C38.6776 21.461 38.1816 21.9003 37.753 22.3592C37.2598 22.8844 36.8678 23.4095 36.5573 23.967L36.3296 24.4133C36.3015 24.4794 36.2664 24.5695 36.2299 24.6596L36.1484 24.8638C36.102 24.9637 36.0725 25.0665 36.0416 25.1749L35.8111 25.9394C35.5807 26.5771 35.2645 27.0361 34.9849 27.4049C34.6575 27.8301 34.3231 28.1792 34.0702 28.4369C33.4365 29.076 32.7662 29.6575 32.2267 30.1235L30.3297 31.7523C30.2637 31.8086 30.1991 31.865 30.1372 31.9199C31.3456 33.6909 32.6665 35.8224 33.702 38.1003C33.7077 38.1129 33.7133 38.127 33.7175 38.1411C34.6603 40.9779 35.2898 44.1061 35.5877 47.4384C35.731 49.0377 35.8013 50.6384 35.7957 52.1955V52.8586L35.7943 52.9304C35.7957 52.9445 35.7901 52.9909 35.783 53.0374C35.7676 53.143 35.7381 53.2246 35.7128 53.295C35.561 53.6484 35.2716 53.9018 34.9301 53.9933C34.8571 54.013 34.7657 54.0341 34.6603 54.037L34.3849 54.0412L33.7892 54.0454L33.7878 54.0567ZM19.9936 53.0388L24.1402 53.0599C25.3514 53.0656 26.6033 53.0712 27.837 53.1106L29.0736 53.1514C30.2286 53.1908 31.4229 53.2303 32.5948 53.2401H33.7835L34.6252 53.2331C34.6589 53.2331 34.6898 53.2232 34.7151 53.2176C34.8135 53.1908 34.909 53.105 34.9526 53.0036C34.9526 53.0022 34.9681 52.96 34.9709 52.9402L35.3812 52.9529L34.9779 52.8994L34.9807 52.8431L34.9779 52.2082C34.9835 50.6736 34.9147 49.0983 34.7727 47.5243C34.4819 44.2624 33.8678 41.2031 32.9475 38.4325C31.9527 36.2489 30.6852 34.1963 29.5148 32.4745C29.2042 32.7505 28.9274 32.9997 28.6647 33.2432C26.1158 35.5873 24.209 37.8694 22.8348 40.2205C22.0704 41.5269 21.4479 42.901 20.9842 44.3032C20.5248 45.7012 20.21 47.178 20.047 48.6942C19.9726 49.4207 19.929 50.1809 19.9192 50.9552V51.1157C19.9206 51.4395 19.922 51.7619 19.9374 52.0857C19.943 52.2786 19.9501 52.4644 19.9641 52.6516L19.9894 53.0388H19.9936ZM20.0049 53.2049V53.2218C20.0049 53.2218 20.0049 53.2106 20.0049 53.2049ZM9.45378 6.60274C9.43551 6.62527 9.41584 6.64497 9.39336 6.66328C9.39055 6.66468 9.38915 6.6675 9.38634 6.66891C9.41725 6.6492 9.44395 6.62245 9.46643 6.59288C9.46362 6.59429 9.46081 6.5957 9.4594 6.59711C9.458 6.59992 9.45519 6.60133 9.45378 6.60415V6.60274ZM9.51842 6.49293C9.52966 6.46337 9.53809 6.43099 9.5423 6.3972C9.53809 6.42958 9.52966 6.46196 9.51701 6.49293H9.51842Z" fill="white"/>
<path d="M9.78818 9.6493C10.1296 9.6493 10.4064 9.37196 10.4064 9.02985C10.4064 8.68774 10.1296 8.4104 9.78818 8.4104C9.44672 8.4104 9.16992 8.68774 9.16992 9.02985C9.16992 9.37196 9.44672 9.6493 9.78818 9.6493Z" fill="white"/>
<path d="M45.172 21.9158C45.5134 21.9158 45.7902 21.6384 45.7902 21.2963C45.7902 20.9542 45.5134 20.6769 45.172 20.6769C44.8305 20.6769 44.5537 20.9542 44.5537 21.2963C44.5537 21.6384 44.8305 21.9158 45.172 21.9158Z" fill="white"/>
</g>
<path d="M68.366 29.69H69.896C70.736 29.69 71.39 29.51 71.858 29.15C72.338 28.778 72.578 28.232 72.578 27.512C72.578 26.78 72.35 26.246 71.894 25.91C71.45 25.562 70.802 25.388 69.95 25.388C69.662 25.388 69.38 25.4 69.104 25.424C68.84 25.448 68.594 25.478 68.366 25.514V29.69ZM70.022 31.22H66.494V24.92C66.494 24.704 66.548 24.542 66.656 24.434C66.776 24.326 66.938 24.236 67.142 24.164C67.502 24.056 67.94 23.978 68.456 23.93C68.972 23.87 69.458 23.84 69.914 23.84C71.474 23.84 72.626 24.17 73.37 24.83C74.114 25.49 74.486 26.378 74.486 27.494C74.486 28.25 74.318 28.91 73.982 29.474C73.646 30.026 73.148 30.458 72.488 30.77C71.828 31.07 71.006 31.22 70.022 31.22ZM66.494 30.356H68.384V34.964C68.3 34.988 68.18 35.018 68.024 35.054C67.868 35.09 67.7 35.108 67.52 35.108C67.16 35.108 66.896 35.042 66.728 34.91C66.572 34.766 66.494 34.538 66.494 34.226V30.356ZM76.9652 31.814L76.8752 30.464L81.9872 29.744C81.9512 29.18 81.7532 28.712 81.3932 28.34C81.0332 27.956 80.5232 27.764 79.8632 27.764C79.1912 27.764 78.6332 28.004 78.1892 28.484C77.7452 28.964 77.5172 29.648 77.5052 30.536L77.5412 31.22C77.6372 32.072 77.9432 32.714 78.4592 33.146C78.9752 33.566 79.6532 33.776 80.4932 33.776C80.9972 33.776 81.4592 33.698 81.8792 33.542C82.2992 33.386 82.6352 33.218 82.8872 33.038C83.0312 33.122 83.1452 33.236 83.2292 33.38C83.3252 33.524 83.3732 33.68 83.3732 33.848C83.3732 34.112 83.2412 34.352 82.9772 34.568C82.7132 34.784 82.3532 34.952 81.8972 35.072C81.4532 35.192 80.9492 35.252 80.3852 35.252C79.4612 35.252 78.6512 35.084 77.9552 34.748C77.2592 34.4 76.7192 33.89 76.3352 33.218C75.9512 32.534 75.7592 31.7 75.7592 30.716C75.7592 30.008 75.8612 29.384 76.0652 28.844C76.2812 28.292 76.5752 27.83 76.9472 27.458C77.3192 27.086 77.7572 26.804 78.2612 26.612C78.7652 26.42 79.3052 26.324 79.8812 26.324C80.6372 26.324 81.3032 26.486 81.8792 26.81C82.4672 27.122 82.9232 27.56 83.2472 28.124C83.5712 28.688 83.7332 29.33 83.7332 30.05C83.7332 30.35 83.6612 30.572 83.5172 30.716C83.3732 30.848 83.1692 30.932 82.9052 30.968L76.9652 31.814ZM85.7194 30.248H87.5554V32.552C87.5554 32.984 87.6814 33.29 87.9334 33.47C88.1854 33.65 88.5394 33.74 88.9954 33.74C89.1874 33.74 89.4034 33.71 89.6434 33.65C89.8834 33.59 90.0814 33.518 90.2374 33.434C90.3214 33.518 90.3934 33.626 90.4534 33.758C90.5254 33.878 90.5614 34.016 90.5614 34.172C90.5614 34.484 90.3994 34.742 90.0754 34.946C89.7634 35.138 89.2894 35.234 88.6534 35.234C87.7654 35.234 87.0514 35.036 86.5114 34.64C85.9834 34.244 85.7194 33.584 85.7194 32.66V30.248ZM86.7634 28.232V26.756H90.3454C90.3934 26.828 90.4354 26.93 90.4714 27.062C90.5194 27.194 90.5434 27.332 90.5434 27.476C90.5434 27.728 90.4834 27.92 90.3634 28.052C90.2554 28.172 90.0994 28.232 89.8954 28.232H86.7634ZM87.5554 30.752H85.7194V24.254C85.7914 24.23 85.9054 24.2 86.0614 24.164C86.2174 24.128 86.3854 24.11 86.5654 24.11C86.9014 24.11 87.1474 24.176 87.3034 24.308C87.4714 24.44 87.5554 24.656 87.5554 24.956V30.752ZM101.454 34.802C101.37 34.874 101.22 34.94 101.004 35C100.788 35.072 100.554 35.108 100.302 35.108C100.002 35.108 99.7377 35.066 99.5097 34.982C99.2937 34.898 99.1437 34.772 99.0597 34.604C98.8797 34.244 98.6637 33.764 98.4117 33.164C98.1597 32.552 97.8897 31.868 97.6017 31.112C97.3137 30.356 97.0257 29.582 96.7377 28.79C96.4617 27.998 96.2037 27.224 95.9637 26.468C95.7237 25.712 95.5197 25.034 95.3517 24.434C95.4477 24.314 95.5857 24.206 95.7657 24.11C95.9577 24.014 96.1677 23.966 96.3957 23.966C96.6717 23.966 96.8817 24.032 97.0257 24.164C97.1817 24.296 97.3077 24.5 97.4037 24.776C97.8717 26.24 98.3337 27.662 98.7897 29.042C99.2457 30.422 99.7437 31.82 100.284 33.236H100.356C100.668 32.36 100.992 31.418 101.328 30.41C101.676 29.402 102.012 28.364 102.336 27.296C102.66 26.228 102.948 25.184 103.2 24.164C103.32 24.092 103.446 24.044 103.578 24.02C103.722 23.984 103.878 23.966 104.046 23.966C104.322 23.966 104.544 24.032 104.712 24.164C104.892 24.296 104.982 24.5 104.982 24.776C104.982 24.968 104.916 25.316 104.784 25.82C104.664 26.312 104.49 26.894 104.262 27.566C104.046 28.226 103.806 28.922 103.542 29.654C103.29 30.374 103.026 31.082 102.75 31.778C102.486 32.462 102.24 33.068 102.012 33.596C101.796 34.124 101.61 34.526 101.454 34.802ZM109.769 33.812C110.201 33.812 110.567 33.77 110.867 33.686C111.179 33.59 111.407 33.5 111.551 33.416V31.094L109.553 31.292C109.001 31.34 108.581 31.466 108.293 31.67C108.017 31.862 107.879 32.15 107.879 32.534C107.879 32.93 108.035 33.242 108.347 33.47C108.659 33.698 109.133 33.812 109.769 33.812ZM109.715 26.324C110.831 26.324 111.713 26.57 112.361 27.062C113.021 27.542 113.351 28.304 113.351 29.348V33.542C113.351 33.818 113.291 34.034 113.171 34.19C113.051 34.346 112.883 34.484 112.667 34.604C112.355 34.784 111.947 34.934 111.443 35.054C110.951 35.186 110.393 35.252 109.769 35.252C108.605 35.252 107.693 35.03 107.033 34.586C106.385 34.13 106.061 33.464 106.061 32.588C106.061 31.796 106.319 31.19 106.835 30.77C107.351 30.338 108.083 30.08 109.031 29.996L111.551 29.744V29.33C111.551 28.79 111.377 28.4 111.029 28.16C110.681 27.92 110.207 27.8 109.607 27.8C109.127 27.8 108.659 27.866 108.203 27.998C107.759 28.13 107.363 28.28 107.015 28.448C106.907 28.352 106.811 28.238 106.727 28.106C106.643 27.962 106.601 27.812 106.601 27.656C106.601 27.284 106.805 27.002 107.213 26.81C107.549 26.654 107.933 26.534 108.365 26.45C108.809 26.366 109.259 26.324 109.715 26.324ZM115.921 30.248L117.757 30.41V34.964C117.685 34.988 117.571 35.018 117.415 35.054C117.259 35.09 117.091 35.108 116.911 35.108C116.575 35.108 116.323 35.042 116.155 34.91C115.999 34.778 115.921 34.562 115.921 34.262V30.248ZM117.757 31.328L115.921 31.166V23.318C115.993 23.294 116.107 23.264 116.263 23.228C116.419 23.192 116.581 23.174 116.749 23.174C117.097 23.174 117.349 23.24 117.505 23.372C117.673 23.492 117.757 23.708 117.757 24.02V31.328ZM120.562 30.248L122.398 30.41V34.964C122.326 34.988 122.212 35.018 122.056 35.054C121.9 35.09 121.732 35.108 121.552 35.108C121.216 35.108 120.964 35.042 120.796 34.91C120.64 34.778 120.562 34.562 120.562 34.262V30.248ZM122.398 31.328L120.562 31.166V23.318C120.634 23.294 120.748 23.264 120.904 23.228C121.06 23.192 121.222 23.174 121.39 23.174C121.738 23.174 121.99 23.24 122.146 23.372C122.314 23.492 122.398 23.708 122.398 24.02V31.328ZM125.797 31.814L125.707 30.464L130.819 29.744C130.783 29.18 130.585 28.712 130.225 28.34C129.865 27.956 129.355 27.764 128.695 27.764C128.023 27.764 127.465 28.004 127.021 28.484C126.577 28.964 126.349 29.648 126.337 30.536L126.373 31.22C126.469 32.072 126.775 32.714 127.291 33.146C127.807 33.566 128.485 33.776 129.325 33.776C129.829 33.776 130.291 33.698 130.711 33.542C131.131 33.386 131.467 33.218 131.719 33.038C131.863 33.122 131.977 33.236 132.061 33.38C132.157 33.524 132.205 33.68 132.205 33.848C132.205 34.112 132.073 34.352 131.809 34.568C131.545 34.784 131.185 34.952 130.729 35.072C130.285 35.192 129.781 35.252 129.217 35.252C128.293 35.252 127.483 35.084 126.787 34.748C126.091 34.4 125.551 33.89 125.167 33.218C124.783 32.534 124.591 31.7 124.591 30.716C124.591 30.008 124.693 29.384 124.897 28.844C125.113 28.292 125.407 27.83 125.779 27.458C126.151 27.086 126.589 26.804 127.093 26.612C127.597 26.42 128.137 26.324 128.713 26.324C129.469 26.324 130.135 26.486 130.711 26.81C131.299 27.122 131.755 27.56 132.079 28.124C132.403 28.688 132.565 29.33 132.565 30.05C132.565 30.35 132.493 30.572 132.349 30.716C132.205 30.848 132.001 30.932 131.737 30.968L125.797 31.814ZM136.065 33.056C135.861 32.66 135.627 32.15 135.363 31.526C135.099 30.902 134.823 30.194 134.535 29.402C134.247 28.61 133.971 27.764 133.707 26.864C133.803 26.732 133.935 26.624 134.103 26.54C134.283 26.456 134.475 26.414 134.679 26.414C134.943 26.414 135.159 26.474 135.327 26.594C135.495 26.714 135.627 26.93 135.723 27.242C136.047 28.214 136.389 29.174 136.749 30.122C137.109 31.07 137.493 32.048 137.901 33.056H137.973C138.213 32.54 138.459 31.916 138.711 31.184C138.963 30.452 139.203 29.684 139.431 28.88C139.671 28.076 139.863 27.314 140.007 26.594C140.127 26.546 140.253 26.504 140.385 26.468C140.517 26.432 140.655 26.414 140.799 26.414C141.063 26.414 141.279 26.474 141.447 26.594C141.627 26.714 141.717 26.906 141.717 27.17C141.717 27.41 141.663 27.764 141.555 28.232C141.459 28.688 141.315 29.21 141.123 29.798C140.943 30.386 140.733 31.004 140.493 31.652C140.265 32.288 140.013 32.912 139.737 33.524C139.461 34.136 139.185 34.688 138.909 35.18C138.333 36.236 137.799 37.04 137.307 37.592C136.827 38.144 136.371 38.42 135.939 38.42C135.603 38.42 135.339 38.324 135.147 38.132C134.955 37.952 134.841 37.73 134.805 37.466C135.057 37.238 135.339 36.95 135.651 36.602C135.963 36.266 136.263 35.894 136.551 35.486C136.851 35.09 137.097 34.712 137.289 34.352C137.085 34.292 136.887 34.178 136.695 34.01C136.503 33.83 136.293 33.512 136.065 33.056Z" fill="#3D4352"/>
<defs>
<clipPath id="clip0_1_189">
<rect width="50" height="60" fill="white"/>
</clipPath>
</defs>
</svg>
